KJV1611.ufo
<glyph name="numbersign" format="2">
  <advance width="676"/>
  <unicode hex="0023"/>
  <outline>
    <contour>
      <point x="593.0" y="361.0" type="line"/>
      <point x="3.0" y="361.0" type="line"/>
      <point x="3.0" y="271.0" type="line"/>
      <point x="593.0" y="271.0" type="line"/>
    </contour>
    <contour>
      <point x="676.0" y="609.0" type="line"/>
      <point x="86.0" y="609.0" type="line"/>
      <point x="86.0" y="519.0" type="line"/>
      <point x="676.0" y="519.0" type="line"/>
    </contour>
    <contour>
      <point x="359.0" y="6.0" type="line"/>
      <point x="632.0" y="782.0" type="line"/>
      <point x="547.0" y="812.0" type="line"/>
      <point x="274.0" y="36.0" type="line"/>
    </contour>
    <contour>
      <point x="115.0" y="6.0" type="line"/>
      <point x="388.0" y="782.0" type="line"/>
      <point x="303.0" y="812.0" type="line"/>
      <point x="30.0" y="36.0" type="line"/>
    </contour>
  </outline>
</glyph>
<glyph name="dollar" format="2">
  <advance width="514"/>
  <unicode hex="0024"/>
  <outline>
    <contour>
      <point x="277.0" y="813.0" type="line"/>
      <point x="277.0" y="18.0" type="line"/>
      <point x="239.0" y="18.0" type="line"/>
      <point x="239.0" y="813.0" type="line"/>
    </contour>
    <contour>
      <point x="312.0" y="314.0" type="line"/>
      <point x="71.0" y="478.0" type="line"/>
      <point x="72.0" y="679.0" type="line"/>
      <point x="122.0" y="689.0"/>
      <point x="208.0" y="741.0"/>
      <point x="246.0" y="791.0" type="curve"/>
      <point x="246.0" y="791.0"/>
      <point x="330.352539062" y="750.56640625"/>
      <point x="403.307617188" y="750.56640625" type="curve" smooth="yes"/>
      <point x="454.862304688" y="750.56640625"/>
      <point x="483.0" y="758.0"/>
      <point x="483.0" y="758.0" type="curve"/>
      <point x="403.0" y="626.0" type="line"/>
      <point x="403.0" y="626.0"/>
      <point x="330.274790008" y="626.421075597"/>
      <point x="287.0" y="642.0" type="curve" smooth="yes"/>
      <point x="237.0" y="660.0"/>
      <point x="205.0" y="666.0"/>
      <point x="205.0" y="666.0" type="curve"/>
      <point x="206.0" y="538.0" type="line"/>
      <point x="442.0" y="387.0" type="line"/>
      <point x="444.0" y="160.0" type="line"/>
      <point x="347.992306291" y="131.101125092"/>
      <point x="285.152045808" y="76.5875337577"/>
      <point x="256.0" y="56.0" type="curve"/>
      <point x="256.0" y="56.0"/>
      <point x="161.628114954" y="134.02846999"/>
      <point x="31.0" y="105.0" type="curve"/>
      <point x="114.0" y="224.0" type="line"/>
      <point x="114.0" y="224.0"/>
      <point x="190.781415929" y="218.478761062"/>
      <point x="242.0" y="197.0" type="curve" smooth="yes"/>
      <point x="312.0" y="171.0" type="line"/>
    </contour>
  </outline>
</glyph>
<glyph name="percent" format="2">
  <advance width="774"/>
  <unicode hex="0025"/>
  <outline>
    <contour>
      <point x="30.0" y="0.0" type="line"/>
      <point x="92.0" y="0.0" type="line"/>
      <point x="728.0" y="785.0" type="line"/>
      <point x="671.0" y="785.0" type="line"/>
    </contour>
    <component base="o" xScale="0.729828" yScale="0.729828" xOffset="-4.68579" yOffset="371.652"/>
    <component base="o" xScale="0.729828" yScale="0.729828" xOffset="393.314" yOffset="6.65222"/>
  </outline>
</glyph>
<glyph name="ampersand" format="2">
  <advance width="535"/>
  <unicode hex="0026"/>
  <outline>
    <contour>
      <point x="310.0" y="-126.0" type="curve"/>
      <point x="286.0" y="-126.0"/>
      <point x="263.0" y="-126.0"/>
      <point x="239.0" y="-126.0" type="curve" smooth="yes"/>
      <point x="222.0" y="-114.0"/>
      <point x="199.0" y="-94.0"/>
      <point x="175.0" y="-68.0" type="curve" smooth="yes"/>
      <point x="166.0" y="-58.0"/>
      <point x="127.0" y="-14.0"/>
      <point x="91.0" y="73.0" type="curve" smooth="yes"/>
      <point x="64.8702179217" y="137.235714276"/>
      <point x="0.168888119222" y="317.849670939"/>
      <point x="74.0" y="535.0" type="curve"/>
      <point x="101.041940521" y="546.062612031"/>
      <point x="157.396020392" y="572.210180512"/>
      <point x="210.0" y="641.0" type="curve"/>
      <point x="221.42146251" y="630.292378897"/>
      <point x="315.374482913" y="540.791494304"/>
      <point x="451.0" y="586.0" type="curve" smooth="yes"/>
      <point x="462.02093272" y="586.0"/>
      <point x="488.102824187" y="570.411296747"/>
      <point x="482.0" y="546.0" type="curve" smooth="yes"/>
      <point x="478.503961518" y="544.751414828"/>
      <point x="404.339657805" y="523.018973415"/>
      <point x="377.0" y="441.0" type="curve" smooth="yes"/>
      <point x="365.806239451" y="401.821838077"/>
      <point x="348.604452556" y="149.455234619"/>
      <point x="387.0" y="133.0" type="curve" smooth="yes"/>
      <point x="413.0" y="121.0"/>
      <point x="455.0" y="165.0"/>
      <point x="458.0" y="169.0" type="curve"/>
      <point x="464.0" y="163.0"/>
      <point x="471.0" y="156.0"/>
      <point x="477.0" y="150.0" type="curve" smooth="yes"/>
      <point x="435.0" y="102.0"/>
      <point x="393.0" y="54.0"/>
      <point x="351.0" y="6.0" type="curve"/>
      <point x="291.447281653" y="1.41902166563"/>
      <point x="238.083962045" y="32.1537739295"/>
      <point x="214.0" y="70.0" type="curve"/>
      <point x="212.081771501" y="110.922207976"/>
      <point x="201.430064566" y="277.37620661"/>
      <point x="261.0" y="468.0" type="curve"/>
      <point x="250.564899551" y="477.275644843"/>
      <point x="195.487279142" y="521.243639571"/>
      <point x="119.0" y="483.0" type="curve"/>
      <point x="109.403288551" y="422.677813749"/>
      <point x="86.8593132672" y="225.963671992"/>
      <point x="165.0" y="61.0" type="curve" smooth="yes"/>
      <point x="207.0" y="-27.0"/>
      <point x="265.0" y="-88.0"/>
    </contour>
    <contour>
      <point x="509.0" y="388.0" type="curve"/>
      <point x="484.0" y="355.0"/>
      <point x="458.0" y="322.0"/>
      <point x="433.0" y="289.0" type="curve"/>
      <point x="360.843919175" y="337.104053883"/>
      <point x="198.989414157" y="368.441072564"/>
      <point x="91.0" y="231.0" type="curve"/>
      <point x="14.745043783" y="391.135408056"/>
      <point x="285.149391883" y="485.326351355"/>
    </contour>
  </outline>
</glyph>
<glyph name="quotesingle" format="2">
  <advance width="297"/>
  <unicode hex="0027"/>
  <outline>
    <contour>
      <point x="83.9375" y="499.84375" type="curve"/>
      <point x="75.181640625" y="510.78125"/>
      <point x="68.408203125" y="544.10546875"/>
      <point x="144.021484375" y="684.530273438" type="curve" smooth="yes"/>
      <point x="202.099609375" y="791.583984375"/>
      <point x="220.28125" y="804.796875"/>
      <point x="237.362304688" y="805.564453125" type="curve" smooth="yes"/>
      <point x="259.260742188" y="805.844726562"/>
      <point x="287.28515625" y="792.948242188"/>
      <point x="295.3828125" y="774.544921875" type="curve" smooth="yes"/>
      <point x="301.727539062" y="763.859375"/>
      <point x="308.943359375" y="735.509765625"/>
      <point x="224.577148438" y="606.021484375" type="curve" smooth="yes"/>
      <point x="153.791015625" y="492.725585938"/>
      <point x="128.604492188" y="482.73828125"/>
      <point x="111.744140625" y="484.459960938" type="curve" smooth="yes"/>
      <point x="97.2890625" y="485.9296875"/>
      <point x="83.9375" y="499.84375"/>
    </contour>
  </outline>
</glyph>
<glyph name="parenright" format="2">
  <advance width="358"/>
  <unicode hex="0029"/>
  <outline>
    <contour>
      <point x="17.0" y="677.0" type="line"/>
      <point x="353.219276619" y="523.786152427"/>
      <point x="344.77667272" y="38.7198419318"/>
      <point x="9.0" y="-140.0" type="curve"/>
      <point x="46.0" y="-208.0" type="line"/>
      <point x="432.460182579" y="-1.35115237081"/>
      <point x="446.558287653" y="565.138230116"/>
      <point x="49.0" y="747.0" type="curve"/>
    </contour>
  </outline>
</glyph>
<glyph name="plus" format="2">
  <advance width="485"/>
  <unicode hex="002B"/>
  <outline>
    <contour>
      <point x="456.0" y="392.0" type="line"/>
      <point x="31.0" y="392.0" type="line"/>
      <point x="31.0" y="483.0" type="line"/>
      <point x="456.0" y="483.0" type="line"/>
    </contour>
    <contour>
      <point x="295.0" y="641.0" type="line"/>
      <point x="295.0" y="215.0" type="line"/>
      <point x="205.0" y="215.0" type="line"/>
      <point x="205.0" y="641.0" type="line"/>
    </contour>
  </outline>
</glyph>
<glyph name="hyphen" format="2">
  <advance width="548"/>
  <unicode hex="002D"/>
  <outline>
    <contour>
      <point x="154.0" y="225.0" type="curve" smooth="yes"/>
      <point x="128.0" y="234.0"/>
      <point x="111.0" y="253.0"/>
      <point x="111.0" y="280.0" type="curve" smooth="yes"/>
      <point x="111.0" y="298.0"/>
      <point x="119.0" y="310.0"/>
      <point x="145.0" y="328.0" type="curve" smooth="yes"/>
      <point x="176.0" y="350.0"/>
      <point x="223.0" y="373.0"/>
      <point x="281.0" y="369.0" type="curve" smooth="yes"/>
      <point x="339.0" y="365.0"/>
      <point x="392.0" y="354.0"/>
      <point x="409.0" y="333.0" type="curve" smooth="yes"/>
      <point x="430.0" y="307.0"/>
      <point x="446.0" y="198.0"/>
      <point x="397.0" y="181.0" type="curve" smooth="yes"/>
      <point x="377.0" y="174.0"/>
      <point x="346.0" y="194.0"/>
      <point x="324.0" y="210.0" type="curve"/>
      <point x="236.0" y="246.0"/>
      <point x="217.0" y="204.0"/>
    </contour>
  </outline>
</glyph>
<glyph name="period" format="2">
  <advance width="280"/>
  <unicode hex="002E"/>
  <outline>
    <contour>
      <point x="139.0" y="-2.0" type="line"/>
      <point x="17.0" y="120.0" type="line"/>
      <point x="139.0" y="243.0" type="line"/>
      <point x="261.0" y="120.0" type="line"/>
    </contour>
  </outline>
</glyph>
<glyph name="slash" format="2">
  <advance width="393"/>
  <unicode hex="002F"/>
  <outline>
    <contour>
      <point x="57.0" y="21.0" type="line"/>
      <point x="99.0" y="6.0" type="line"/>
      <point x="373.0" y="782.0" type="line"/>
      <point x="330.0" y="797.0" type="line"/>
      <point x="288.0" y="812.0" type="line"/>
      <point x="14.0" y="36.0" type="line"/>
    </contour>
  </outline>
</glyph>
<glyph name="zero" format="2">
  <advance width="493"/>
  <unicode hex="0030"/>
  <outline>
    <contour>
      <point x="21.4814453125" y="323.999023438" type="curve" smooth="yes"/>
      <point x="21.4814453125" y="450.383789062"/>
      <point x="126.916015625" y="553.36328125"/>
      <point x="248.299804688" y="553.36328125" type="curve" smooth="yes"/>
      <point x="368.798828125" y="553.36328125"/>
      <point x="475.118164062" y="450.383789062"/>
      <point x="475.118164062" y="323.999023438" type="curve" smooth="yes"/>
      <point x="475.118164062" y="196.674804688"/>
      <point x="368.798828125" y="94.6337890625"/>
      <point x="248.299804688" y="94.6337890625" type="curve" smooth="yes"/>
      <point x="126.916015625" y="94.6337890625"/>
      <point x="21.4814453125" y="196.674804688"/>
    </contour>
    <contour>
      <point x="94.6201171875" y="324.3046875" type="curve" smooth="yes"/>
      <point x="94.6201171875" y="242.881835938"/>
      <point x="161.969726562" y="177.541992188"/>
      <point x="241.383789062" y="177.541992188" type="curve" smooth="yes"/>
      <point x="320.795898438" y="177.541992188"/>
      <point x="385.131835938" y="242.881835938"/>
      <point x="385.131835938" y="324.3046875" type="curve" smooth="yes"/>
      <point x="385.131835938" y="404.72265625"/>
      <point x="320.795898438" y="471.069335938"/>
      <point x="241.383789062" y="471.069335938" type="curve" smooth="yes"/>
      <point x="161.969726562" y="471.069335938"/>
      <point x="94.6201171875" y="404.72265625"/>
    </contour>
  </outline>
</glyph>
<glyph name="two" format="2">
  <advance width="580"/>
  <unicode hex="0032"/>
  <outline>
    <contour>
      <point x="257.96103823" y="383.532849421" type="curve" smooth="yes"/>
      <point x="257.96103823" y="423.107533144"/>
      <point x="237.414172965" y="464.357173651"/>
      <point x="171.015969941" y="464.357173651" type="curve" smooth="yes"/>
      <point x="111.746903582" y="464.357173651"/>
      <point x="82.3566555537" y="400.636439256"/>
      <point x="49.3041627393" y="400.636439256" type="curve" smooth="yes"/>
      <point x="33.1916258643" y="400.636439256"/>
      <point x="9.7389298381" y="422.546823538"/>
      <point x="9.7389298381" y="447.871647912" type="curve" smooth="yes"/>
      <point x="9.7389298381" y="509.368015141"/>
      <point x="101.543365245" y="610.923828125"/>
      <point x="201.826171875" y="610.923828125" type="curve" smooth="yes"/>
      <point x="307.008318983" y="610.923828125"/>
      <point x="394.161941582" y="534.101462137"/>
      <point x="394.161941582" y="436.700571159" type="curve" smooth="yes"/>
      <point x="394.161941582" y="352.062688668"/>
      <point x="224.920346697" y="124.705896756"/>
      <point x="224.767578125" y="124.581054688" type="curve"/>
      <point x="294.352353807" y="144.903144563"/>
      <point x="431.712543196" y="117.264038407"/>
      <point x="440.286132812" y="116.3046875" type="curve"/>
      <point x="540.782226562" y="210.427734375" type="line"/>
      <point x="568.565429688" y="151.200195312" type="line"/>
      <point x="400.496105108" y="-15.178411292" type="line"/>
      <point x="336.958651342" y="49.4481713107"/>
      <point x="138.284897336" y="0.816863239893"/>
      <point x="79.7685794124" y="0.816863239893" type="curve" smooth="yes"/>
      <point x="60.1035318771" y="0.816863239893"/>
      <point x="49.411490268" y="5.90272857012"/>
      <point x="49.411490268" y="21.4942935283" type="curve" smooth="yes"/>
      <point x="49.411490268" y="72.0280338793"/>
      <point x="90.4860987868" y="36.3806228984"/>
      <point x="163.53515625" y="136.9609375" type="curve" smooth="yes"/>
      <point x="220.42642583" y="215.293800252"/>
      <point x="257.96103823" y="325.885425352"/>
    </contour>
  </outline>
</glyph>
<glyph name="three" format="2">
  <advance width="371"/>
  <unicode hex="0033"/>
  <outline>
    <contour>
      <point x="32.1596826261" y="537.441516462" type="curve" smooth="yes"/>
      <point x="24.3017679304" y="537.441516462"/>
      <point x="20.8930221089" y="547.628712761"/>
      <point x="20.8930221089" y="556.10829613" type="curve" smooth="yes"/>
      <point x="20.8930221089" y="600.866532886"/>
      <point x="59.8526410883" y="580.186923327"/>
      <point x="98.240234375" y="659.227539062" type="curve"/>
      <point x="104.063072691" y="659.690124652"/>
      <point x="110.520084448" y="660.046685566"/>
      <point x="117.466902899" y="660.046685566" type="curve" smooth="yes"/>
      <point x="208.965288702" y="660.046685566"/>
      <point x="302.67943075" y="569.559993167"/>
      <point x="302.67943075" y="508.383746845" type="curve" smooth="yes"/>
      <point x="302.67943075" y="456.161464613"/>
      <point x="234.410649084" y="404.716013607"/>
      <point x="199.373990913" y="379.146484375" type="curve" smooth="yes"/>
      <point x="183.401926432" y="367.490234375" type="line"/>
      <point x="201.432623262" y="361.803710938" type="line" smooth="yes"/>
      <point x="251.509781151" y="346.013517759"/>
      <point x="344.842594396" y="289.170070142"/>
      <point x="344.842594396" y="187.719474055" type="curve" smooth="yes"/>
      <point x="344.842594396" y="80.0871286534"/>
      <point x="203.941736151" y="-76.3630362094"/>
      <point x="94.0839099226" y="-76.3630362094" type="curve" smooth="yes"/>
      <point x="58.5092525913" y="-76.3630362094"/>
      <point x="29.247999377" y="-52.5660026183"/>
      <point x="17.0" y="-32.322265625" type="curve"/>
      <point x="96.322265625" y="53.1396484375" type="line"/>
      <point x="101.216304977" y="47.5600128964"/>
      <point x="120.562594252" y="25.9998130175"/>
      <point x="145.188252022" y="25.9998130175" type="curve" smooth="yes"/>
      <point x="196.363501996" y="25.9998130175"/>
      <point x="210.590199234" y="104.709148071"/>
      <point x="210.590199234" y="155.682086372" type="curve" smooth="yes"/>
      <point x="210.590199234" y="288.400632724"/>
      <point x="43.0355733154" y="249.859135234"/>
      <point x="43.0355733154" y="295.716183242" type="curve" smooth="yes"/>
      <point x="43.0355733154" y="349.043212755"/>
      <point x="164.36396651" y="371.134865108"/>
      <point x="164.36396651" y="451.564314969" type="curve" smooth="yes"/>
      <point x="164.36396651" y="493.859739567"/>
      <point x="128.159401279" y="557.0"/>
      <point x="82.7529296875" y="557.0" type="curve" smooth="yes"/>
      <point x="52.615587524" y="557.0"/>
      <point x="41.9158047272" y="537.441516462"/>
    </contour>
  </outline>
</glyph>
<glyph name="four" format="2">
  <advance width="829"/>
  <unicode hex="0034"/>
  <outline>
    <contour>
      <point x="761.017578125" y="18.0" type="line"/>
      <point x="515.9140625" y="18.0" type="line"/>
      <point x="515.9140625" y="-277.595703125" type="line"/>
      <point x="403.737304688" y="-241.506835938" type="line"/>
      <point x="403.737304688" y="18.0" type="line"/>
      <point x="31.3603515625" y="18.0" type="line"/>
      <point x="14.0" y="53.4755859375" type="line"/>
      <point x="465.961914062" y="502.0" type="line"/>
      <point x="515.9140625" y="502.0" type="line"/>
      <point x="515.9140625" y="162.5" type="line"/>
      <point x="515.9140625" y="143.0" type="line"/>
      <point x="811.365234375" y="143.0" type="line"/>
    </contour>
    <contour>
      <point x="384.879882812" y="143.0" type="line"/>
      <point x="403.737304688" y="143.0" type="line"/>
      <point x="403.737304688" y="360.76953125" type="line"/>
      <point x="184.08984375" y="143.0" type="line"/>
    </contour>
  </outline>
</glyph>
<glyph name="five" format="2">
  <advance width="459"/>
  <unicode hex="0035"/>
  <outline>
    <contour>
      <point x="106.604492188" y="304.481445312" type="curve" smooth="yes"/>
      <point x="75.0693359375" y="323.03125"/>
      <point x="42.9375" y="341.956054688"/>
      <point x="12.0" y="360.930664062" type="curve"/>
      <point x="21.7314453125" y="392.4375"/>
      <point x="33.384765625" y="422.3125"/>
      <point x="46.95703125" y="451.265625" type="curve" smooth="yes"/>
      <point x="62.619140625" y="483.568359375"/>
      <point x="81.421875" y="515.270507812"/>
      <point x="101.291992188" y="546.0703125" type="curve" smooth="yes"/>
      <point x="115.965820312" y="568.997070312"/>
      <point x="132.548828125" y="592.666015625"/>
      <point x="146.096679688" y="614.0" type="curve"/>
      <point x="230.69140625" y="614.0" type="line"/>
      <point x="295.2734375" y="614.0" type="line"/>
      <point x="300.9140625" y="614.0" type="line"/>
      <point x="303.775390625" y="619.41796875" type="line"/>
      <point x="350.626953125" y="702.83203125" type="line"/>
      <point x="388.1015625" y="696.169921875" type="line"/>
      <point x="388.381835938" y="696.120117188" type="line"/>
      <point x="388.663085938" y="696.084960938" type="line" smooth="yes"/>
      <point x="395.645507812" y="695.211914062"/>
      <point x="401.991210938" y="693.427734375"/>
      <point x="409.005859375" y="691.422851562" type="curve" smooth="yes"/>
      <point x="414.471679688" y="689.861328125"/>
      <point x="421.420898438" y="686.353515625"/>
      <point x="425.985351562" y="682.549804688" type="curve" smooth="yes"/>
      <point x="426.202148438" y="682.369140625" type="line"/>
      <point x="426.427734375" y="682.200195312" type="line" smooth="yes"/>
      <point x="435.364257812" y="675.497070312"/>
      <point x="441.41796875" y="663.342773438"/>
      <point x="443.124023438" y="650.545898438" type="curve" smooth="yes"/>
      <point x="444.73828125" y="638.434570312"/>
      <point x="441.427734375" y="624.026367188"/>
      <point x="436.66796875" y="610.69921875" type="curve" smooth="yes"/>
      <point x="432.19140625" y="598.165039062"/>
      <point x="424.477539062" y="585.49609375"/>
      <point x="417.188476562" y="570.918945312" type="curve" smooth="yes"/>
      <point x="409.181640625" y="554.905273438"/>
      <point x="401.461914062" y="539.630859375"/>
      <point x="391.377929688" y="526.795898438" type="curve" smooth="yes"/>
      <point x="381.305664062" y="513.9765625"/>
      <point x="368.573242188" y="503.38671875"/>
      <point x="354.5546875" y="498.439453125" type="curve" smooth="yes"/>
      <point x="341.1953125" y="494.264648438"/>
      <point x="323.942382812" y="494.0"/>
      <point x="308.728515625" y="494.0" type="curve" smooth="yes"/>
      <point x="179.564453125" y="494.0" type="line"/>
      <point x="174.061523438" y="494.0" type="line"/>
      <point x="171.169921875" y="488.780273438" type="line"/>
      <point x="152.333007812" y="454.780273438" type="line"/>
      <point x="145.87109375" y="443.115234375" type="line"/>
      <point x="157.486328125" y="438.610351562" type="line" smooth="yes"/>
      <point x="198.271484375" y="422.794921875"/>
      <point x="237.888671875" y="403.161132812"/>
      <point x="275.053710938" y="378.498046875" type="curve" smooth="yes"/>
      <point x="296.127929688" y="364.79296875"/>
      <point x="316.12109375" y="349.248046875"/>
      <point x="334.451171875" y="331.025390625" type="curve" smooth="yes"/>
      <point x="353.5390625" y="312.891601562"/>
      <point x="369.530273438" y="291.215820312"/>
      <point x="379.935546875" y="266.623046875" type="curve" smooth="yes"/>
      <point x="391.159179688" y="241.369140625"/>
      <point x="394.993164062" y="213.184570312"/>
      <point x="394.034179688" y="185.37890625" type="curve" smooth="yes"/>
      <point x="393.094726562" y="158.142578125"/>
      <point x="385.514648438" y="130.349609375"/>
      <point x="374.837890625" y="104.14453125" type="curve" smooth="yes"/>
      <point x="351.678710938" y="47.2119140625"/>
      <point x="312.8203125" y="-1.939453125"/>
      <point x="275.317382812" y="-49.7216796875" type="curve" smooth="yes"/>
      <point x="261.86328125" y="-66.7216796875"/>
      <point x="248.46875" y="-83.642578125"/>
      <point x="235.153320312" y="-99.4765625" type="curve" smooth="yes"/>
      <point x="221.81640625" y="-115.337890625"/>
      <point x="208.228515625" y="-130.319335938"/>
      <point x="191.815429688" y="-140.383789062" type="curve" smooth="yes"/>
      <point x="184.450195312" y="-144.9453125"/>
      <point x="177.125" y="-148.0"/>
      <point x="169.697265625" y="-148.0" type="curve" smooth="yes"/>
      <point x="160.827148438" y="-148.0"/>
      <point x="153.700195312" y="-146.02734375"/>
      <point x="149.28515625" y="-141.721679688" type="curve" smooth="yes"/>
      <point x="148.918945312" y="-141.364257812" type="line"/>
      <point x="148.5234375" y="-141.048828125" type="line" smooth="yes"/>
      <point x="144.469726562" y="-137.821289062"/>
      <point x="140.790039062" y="-131.731445312"/>
      <point x="138.572265625" y="-125.137695312" type="curve" smooth="yes"/>
      <point x="136.734375" y="-119.673828125"/>
      <point x="136.622070312" y="-112.848632812"/>
      <point x="138.008789062" y="-106.66796875" type="curve" smooth="yes"/>
      <point x="138.092773438" y="-106.29296875" type="line"/>
      <point x="138.153320312" y="-105.912109375" type="line" smooth="yes"/>
      <point x="140.341796875" y="-92.087890625"/>
      <point x="148.037109375" y="-79.5341796875"/>
      <point x="156.852539062" y="-66.7578125" type="curve" smooth="yes"/>
      <point x="180.25390625" y="-33.64453125"/>
      <point x="202.801757812" y="0.5380859375"/>
      <point x="224.513671875" y="35.8388671875" type="curve" smooth="yes"/>
      <point x="235.313476562" y="53.8974609375"/>
      <point x="247.350585938" y="73.3134765625"/>
      <point x="255.100585938" y="94.9150390625" type="curve" smooth="yes"/>
      <point x="262.950195312" y="116.791992188"/>
      <point x="266.118164062" y="142.805664062"/>
      <point x="259.852539062" y="167.251953125" type="curve" smooth="yes"/>
      <point x="255.75" y="180.975585938"/>
      <point x="249.935546875" y="192.791015625"/>
      <point x="241.984375" y="203.872070312" type="curve" smooth="yes"/>
      <point x="234.122070312" y="214.828125"/>
      <point x="225.500976562" y="223.31640625"/>
      <point x="216.171875" y="231.63671875" type="curve" smooth="yes"/>
      <point x="182.65234375" y="260.701171875"/>
      <point x="143.796875" y="281.748046875"/>
    </contour>
  </outline>
</glyph>
<glyph name="six" format="2">
  <advance width="531"/>
  <unicode hex="0036"/>
  <outline>
    <contour>
      <point x="250.082942986" y="18.7088966195" type="curve" smooth="yes"/>
      <point x="127.407272349" y="18.7088966195"/>
      <point x="22.2858757706" y="117.323080915"/>
      <point x="22.2858757706" y="255.95235199" type="curve" smooth="yes"/>
      <point x="22.2858757706" y="462.035510378"/>
      <point x="294.023317822" y="674.667299715"/>
      <point x="475.760545685" y="674.667299715" type="curve" smooth="yes"/>
      <point x="495.239685394" y="674.667299715"/>
      <point x="506.852414886" y="660.127677106"/>
      <point x="506.852414886" y="640.813991499" type="curve" smooth="yes"/>
      <point x="506.852414886" y="585.912870595"/>
      <point x="268.708479187" y="562.030265622"/>
      <point x="185.154296875" y="378.293945312" type="curve"/>
      <point x="216.996236727" y="386.217287937"/>
      <point x="255.970144926" y="391.894525545"/>
      <point x="294.496256174" y="391.894525545" type="curve" smooth="yes"/>
      <point x="436.1599401" y="391.894525545"/>
      <point x="495.441209258" y="307.317899588"/>
      <point x="495.441209258" y="230.762272415" type="curve" smooth="yes"/>
      <point x="495.441209258" y="93.901529639"/>
      <point x="389.727985333" y="18.7088966195"/>
    </contour>
    <contour>
      <point x="352.539325788" y="214.378652102" type="curve" smooth="yes"/>
      <point x="352.539325788" y="269.918120548"/>
      <point x="319.115280707" y="313.812481131"/>
      <point x="246.308951906" y="313.812481131" type="curve" smooth="yes"/>
      <point x="189.016502037" y="313.812481131"/>
      <point x="150.669890356" y="280.917799579"/>
      <point x="150.669890356" y="225.472074907" type="curve" smooth="yes"/>
      <point x="150.669890356" y="166.029592326"/>
      <point x="191.033303798" y="117.917910089"/>
      <point x="262.333943809" y="117.917910089" type="curve" smooth="yes"/>
      <point x="314.435169824" y="117.917910089"/>
      <point x="352.539325788" y="156.592405176"/>
    </contour>
  </outline>
</glyph>
<glyph name="eight" format="2">
  <advance width="513"/>
  <unicode hex="0038"/>
  <outline>
    <contour>
      <point x="45.3952271434" y="425.126547416" type="curve" smooth="yes"/>
      <point x="45.3952271434" y="508.28369278"/>
      <point x="153.55719108" y="639.898017708"/>
      <point x="281.891744398" y="639.898017708" type="curve" smooth="yes"/>
      <point x="416.299024224" y="639.898017708"/>
      <point x="484.440108273" y="530.522436966"/>
      <point x="484.440108273" y="454.001928792" type="curve" smooth="yes"/>
      <point x="484.440108273" y="415.583196261"/>
      <point x="464.171875" y="391.064453125"/>
      <point x="323.276367188" y="287.676757812" type="curve"/>
      <point x="386.627203288" y="264.442717165"/>
      <point x="483.712862954" y="180.349121945"/>
      <point x="483.712862954" y="91.318890992" type="curve" smooth="yes"/>
      <point x="483.712862954" y="25.9548638343"/>
      <point x="393.21839515" y="-111.376241176"/>
      <point x="199.453816128" y="-111.376241176" type="curve" smooth="yes"/>
      <point x="66.5417010943" y="-111.376241176"/>
      <point x="25.4176494055" y="2.60556684498"/>
      <point x="25.4176494055" y="45.8671572285" type="curve" smooth="yes"/>
      <point x="25.4176494055" y="81.6127280957"/>
      <point x="32.6976822811" y="103.957137292"/>
      <point x="128.016601562" y="180.563476562" type="curve" smooth="yes"/>
      <point x="165.334960938" y="210.555664062"/>
      <point x="212.985351562" y="242.676757812"/>
      <point x="212.985351562" y="242.676757812" type="curve"/>
      <point x="140.410273381" y="295.921077081"/>
      <point x="45.3952271434" y="358.787676392"/>
    </contour>
    <contour>
      <point x="251.024462207" y="557.038467564" type="curve" smooth="yes"/>
      <point x="207.841876126" y="557.038467564"/>
      <point x="165.899414062" y="523.227174276"/>
      <point x="165.899414062" y="468.0" type="curve" smooth="yes"/>
      <point x="165.899414062" y="412.729284537"/>
      <point x="215.68970912" y="362.319874119"/>
      <point x="272.432536083" y="362.319874119" type="curve" smooth="yes"/>
      <point x="316.882375144" y="362.319874119"/>
      <point x="341.894349424" y="403.068859066"/>
      <point x="341.894349424" y="448.840439845" type="curve" smooth="yes"/>
      <point x="341.894349424" y="503.395835192"/>
      <point x="307.385287903" y="557.038467564"/>
    </contour>
    <contour>
      <point x="262.684736594" y="-21.492031549" type="curve" smooth="yes"/>
      <point x="300.739372255" y="-21.492031549"/>
      <point x="338.789355747" y="25.6809559807"/>
      <point x="338.789355747" y="75.2610982756" type="curve" smooth="yes"/>
      <point x="338.789355747" y="131.836921835"/>
      <point x="308.344051332" y="190.480092579"/>
      <point x="241.685862989" y="190.480092579" type="curve" smooth="yes"/>
      <point x="203.253802259" y="190.480092579"/>
      <point x="157.704749458" y="139.32728018"/>
      <point x="157.704749458" y="100.974285624" type="curve" smooth="yes"/>
      <point x="157.704749458" y="27.5812249579"/>
      <point x="222.090040036" y="-21.492031549"/>
    </contour>
  </outline>
</glyph>
<glyph name="less" format="2">
  <advance width="809"/>
  <unicode hex="003C"/>
  <outline>
    <contour>
      <point x="728.0" y="44.0" type="line"/>
      <point x="705.0" y="5.0" type="line"/>
      <point x="59.0" y="378.0" type="line"/>
      <point x="59.0" y="456.0" type="line"/>
      <point x="705.0" y="829.0" type="line"/>
      <point x="728.0" y="790.0" type="line"/>
      <point x="750.0" y="751.0" type="line"/>
      <point x="172.0" y="417.0" type="line"/>
      <point x="750.0" y="83.0" type="line"/>
    </contour>
  </outline>
</glyph>
<glyph name="equal" format="2">
  <advance width="485"/>
  <unicode hex="003D"/>
  <outline>
    <contour>
      <point x="456.0" y="317.0" type="line"/>
      <point x="456.0" y="272.0" type="line"/>
      <point x="31.0" y="272.0" type="line"/>
      <point x="31.0" y="317.0" type="line"/>
      <point x="31.0" y="363.0" type="line"/>
      <point x="456.0" y="363.0" type="line"/>
    </contour>
    <contour>
      <point x="456.0" y="517.0" type="line"/>
      <point x="456.0" y="472.0" type="line"/>
      <point x="31.0" y="472.0" type="line"/>
      <point x="31.0" y="517.0" type="line"/>
      <point x="31.0" y="563.0" type="line"/>
      <point x="456.0" y="563.0" type="line"/>
    </contour>
  </outline>
</glyph>
<glyph name="greater" format="2">
  <advance width="809"/>
  <unicode hex="003E"/>
  <outline>
    <contour>
      <point x="82.0" y="44.0" type="line"/>
      <point x="104.0" y="5.0" type="line"/>
      <point x="750.0" y="378.0" type="line"/>
      <point x="750.0" y="456.0" type="line"/>
      <point x="104.0" y="829.0" type="line"/>
      <point x="82.0" y="790.0" type="line"/>
      <point x="59.0" y="751.0" type="line"/>
      <point x="637.0" y="417.0" type="line"/>
      <point x="59.0" y="83.0" type="line"/>
    </contour>
  </outline>
</glyph>
<glyph name="question" format="2">
  <advance width="379"/>
  <unicode hex="003F"/>
  <outline>
    <contour>
      <point x="143.6171875" y="247.212890625" type="line"/>
      <point x="188.0" y="224.0"/>
      <point x="253.0" y="189.0"/>
      <point x="314.0" y="165.0" type="curve"/>
      <point x="207.147294323" y="92.9873004981"/>
      <point x="223.052312939" y="3.47900075002"/>
      <point x="218.0" y="-5.0" type="curve"/>
      <point x="211.636770517" y="7.01875262016"/>
      <point x="155.321790188" y="96.6280569739"/>
      <point x="87.5090382014" y="96.6280569739" type="curve" smooth="yes"/>
      <point x="75.2886320881" y="96.6280569739"/>
      <point x="69.0" y="93.0"/>
      <point x="69.0" y="93.0" type="curve"/>
      <point x="60.0" y="114.0" type="line"/>
    </contour>
    <contour>
      <point x="47.3589819758" y="287.27258004" type="curve" smooth="yes"/>
      <point x="40.4285416014" y="287.27258004"/>
      <point x="22.4184643148" y="297.935596952"/>
      <point x="22.4184643148" y="330.722981535" type="curve" smooth="yes"/>
      <point x="22.4184643148" y="377.163400953"/>
      <point x="102.815447055" y="415.283401065"/>
      <point x="107.0" y="433.0" type="curve" smooth="yes"/>
      <point x="109.676472175" y="444.331672632"/>
      <point x="113.991786333" y="454.851534089"/>
      <point x="116.0" y="459.0" type="curve"/>
      <point x="183.022400851" y="442.562874921"/>
      <point x="230.210884354" y="419.488553567"/>
      <point x="230.210884354" y="462.785552316" type="curve" smooth="yes"/>
      <point x="230.210884354" y="495.259128953"/>
      <point x="193.000206804" y="532.831884773"/>
      <point x="193.0" y="533.0" type="curve" smooth="yes"/>
      <point x="288.0" y="615.0" type="line"/>
      <point x="288.0" y="615.0"/>
      <point x="351.0" y="576.0"/>
      <point x="351.0" y="502.0" type="curve" smooth="yes"/>
      <point x="351.0" y="428.0"/>
      <point x="234.0" y="316.0"/>
      <point x="234.0" y="316.0" type="curve"/>
      <point x="227.728417034" y="317.618748034"/>
      <point x="161.167305321" y="335.672226678"/>
      <point x="115.426810762" y="335.672226678" type="curve" smooth="yes"/>
      <point x="71.2998898005" y="335.672226678"/>
      <point x="61.3719474127" y="287.27258004"/>
    </contour>
  </outline>
</glyph>
<glyph name="at" format="2">
  <advance width="834"/>
  <unicode hex="0040"/>
  <outline>
    <contour>
      <point x="459.030413764" y="-81.2175903671" type="curve" smooth="yes"/>
      <point x="531.540120825" y="-81.2175903671"/>
      <point x="580.668265958" y="-62.8552874419"/>
      <point x="635.0" y="-33.0" type="curve"/>
      <point x="674.0" y="-91.0" type="line"/>
      <point x="609.707498542" y="-128.114306373"/>
      <point x="544.690256367" y="-151.655909939"/>
      <point x="457.075367166" y="-151.655909939" type="curve" smooth="yes"/>
      <point x="192.142709505" y="-151.655909939"/>
      <point x="14.5757021864" y="61.5611416649"/>
      <point x="14.5757021864" y="318.37274671" type="curve" smooth="yes"/>
      <point x="14.5757021864" y="593.094695561"/>
      <point x="224.883992012" y="801.828281489"/>
      <point x="453.879434185" y="801.828281489" type="curve" smooth="yes"/>
      <point x="667.32207056" y="801.828281489"/>
      <point x="813.257438716" y="645.19584055"/>
      <point x="813.257438716" y="423.506228399" type="curve" smooth="yes"/>
      <point x="813.257438716" y="262.366115656"/>
      <point x="736.30405925" y="-0.373640494297"/>
      <point x="564.2391931" y="-0.373640494297" type="curve" smooth="yes"/>
      <point x="514.101044016" y="-0.373640494297"/>
      <point x="504.555705515" y="49.2744719997"/>
      <point x="489.0" y="114.0" type="curve"/>
      <point x="355.0" y="-7.0" type="line"/>
      <point x="261.51612951" y="17.4907981868"/>
      <point x="190.544787846" y="101.859849286"/>
      <point x="190.544787846" y="300.366142779" type="curve" smooth="yes"/>
      <point x="190.544787846" y="419.173845431"/>
      <point x="248.618693449" y="495.028176934"/>
      <point x="290.0" y="532.0" type="curve" smooth="yes"/>
      <point x="412.0" y="641.0" type="line"/>
      <point x="440.0" y="641.0" type="line"/>
      <point x="446.537505119" y="635.583834261"/>
      <point x="553.669830229" y="553.005403218"/>
      <point x="575.14739229" y="559.367346939" type="curve"/>
      <point x="591.176534771" y="564.11130311"/>
      <point x="600.715907659" y="596.577801629"/>
      <point x="617.506543312" y="596.577264582" type="curve" smooth="yes"/>
      <point x="626.924977032" y="596.218443888"/>
      <point x="636.650129942" y="585.161481843"/>
      <point x="636.650129942" y="573.164572765" type="curve" smooth="yes"/>
      <point x="636.650129942" y="534.405383788"/>
      <point x="607.93598546" y="501.914553712"/>
      <point x="607.93598546" y="453.516836259" type="curve" smooth="yes"/>
      <point x="607.93598546" y="393.708928772"/>
      <point x="612.218001609" y="189.715691746"/>
      <point x="634.0" y="98.0" type="curve"/>
      <point x="699.799544077" y="143.67916632"/>
      <point x="740.031975349" y="283.227204248"/>
      <point x="740.031975349" y="421.296505161" type="curve" smooth="yes"/>
      <point x="740.031975349" y="604.246966618"/>
      <point x="634.540648996" y="732.713162824"/>
      <point x="455.586981473" y="732.713162824" type="curve" smooth="yes"/>
      <point x="222.192476435" y="732.713162824"/>
      <point x="87.3588655189" y="510.839922026"/>
      <point x="87.3588655189" y="320.439141601" type="curve" smooth="yes"/>
      <point x="87.3588655189" y="101.956976865"/>
      <point x="233.713493897" y="-81.2175903671"/>
    </contour>
    <contour>
      <point x="373.0" y="515.0" type="line"/>
      <point x="342.672124586" y="477.673384105"/>
      <point x="320.167821887" y="386.602225204"/>
      <point x="320.167821887" y="300.112666739" type="curve" smooth="yes"/>
      <point x="320.167821887" y="213.699812038"/>
      <point x="356.744413476" y="127.213193375"/>
      <point x="404.0" y="102.0" type="curve"/>
      <point x="481.0" y="168.0" type="line"/>
      <point x="477.276335558" y="201.823285348"/>
      <point x="469.706702699" y="298.013945887"/>
      <point x="478.0" y="439.0" type="curve"/>
    </contour>
  </outline>
</glyph>
<glyph name="C" format="2">
  <advance width="765"/>
  <unicode hex="0043"/>
  <outline>
    <contour>
      <point x="164.0" y="282.0" type="line"/>
      <point x="372.0" y="416.0" type="line"/>
      <point x="372.366210938" y="343.544921875" type="line"/>
      <point x="193.0" y="231.0" type="line"/>
    </contour>
    <contour>
      <point x="596.296875" y="629.830078125" type="line"/>
      <point x="529.260236746" y="657.991214526"/>
      <point x="454.991932677" y="679.812373123"/>
      <point x="374.49609375" y="691.564453125" type="curve"/>
      <point x="372.366210938" y="343.544921875" type="line"/>
      <point x="264.095703125" y="275.412109375" type="line"/>
      <point x="262.87890625" y="697.7890625" type="line"/>
      <point x="397.560546875" y="838.35546875" type="line"/>
      <point x="419.18259385" y="850.61353935"/>
      <point x="444.04764939" y="856.886362025"/>
      <point x="468.890970781" y="856.886362025" type="curve" smooth="yes"/>
      <point x="551.276863725" y="856.886362025"/>
      <point x="587.647221168" y="787.733875532"/>
      <point x="657.848497652" y="787.733875532" type="curve" smooth="yes"/>
      <point x="680.072958021" y="787.733875532"/>
      <point x="702.20258198" y="796.335228054"/>
      <point x="718.56640625" y="811.379882812" type="curve"/>
      <point x="748.20703125" y="770.623046875" type="line"/>
    </contour>
    <contour>
      <point x="279.060546875" y="784.551757812" type="curve"/>
      <point x="317.046875" y="726.915039062" type="line"/>
      <point x="306.300152434" y="720.515466295"/>
      <point x="176.389026279" y="645.932769841"/>
      <point x="176.389026279" y="479.055743226" type="curve" smooth="yes"/>
      <point x="176.389026279" y="297.829551948"/>
      <point x="344.290234081" y="157.431280214"/>
      <point x="546.773031253" y="157.431280214" type="curve" smooth="yes"/>
      <point x="607.190583633" y="157.431280214"/>
      <point x="667.632330621" y="169.946898553"/>
      <point x="722.840820312" y="194.51953125" type="curve"/>
      <point x="749.409179688" y="167.915039062" type="line"/>
      <point x="709.124762072" y="111.360678372"/>
      <point x="605.577356252" y="9.230611533"/>
      <point x="441.702879234" y="9.230611533" type="curve" smooth="yes"/>
      <point x="206.126981062" y="9.230611533"/>
      <point x="26.1527554233" y="213.386494083"/>
      <point x="26.1527554233" y="431.195494907" type="curve" smooth="yes"/>
      <point x="26.1527554233" y="611.947016764"/>
      <point x="141.78978349" y="740.256365921"/>
    </contour>
    <contour>
      <point x="424.4609375" y="135.474609375" type="line"/>
      <point x="424.4609375" y="755.079101562" type="line"/>
      <point x="504.368164062" y="755.079101562" type="line"/>
      <point x="504.368164062" y="135.474609375" type="line"/>
    </contour>
  </outline>
</glyph>
<glyph name="D" format="2">
  <advance width="1074"/>
  <unicode hex="0044"/>
  <outline>
    <contour>
      <point x="585.0" y="130.0" type="line"/>
      <point x="585.0" y="719.0" type="line"/>
      <point x="654.0" y="719.0" type="line"/>
      <point x="654.0" y="130.0" type="line"/>
    </contour>
    <contour>
      <point x="227.102529447" y="94.8831045654" type="curve" smooth="yes"/>
      <point x="151.341156715" y="94.8831045654"/>
      <point x="91.8458870821" y="55.4012172255"/>
      <point x="57.0" y="26.0" type="curve"/>
      <point x="46.0" y="33.0"/>
      <point x="37.0" y="39.0"/>
      <point x="27.0" y="46.0" type="curve"/>
      <point x="32.0" y="71.0"/>
      <point x="42.0" y="103.0"/>
      <point x="65.0" y="136.0" type="curve" smooth="yes"/>
      <point x="126.0" y="224.0"/>
      <point x="227.0" y="241.0"/>
      <point x="251.0" y="244.0" type="curve"/>
      <point x="331.0" y="217.0"/>
      <point x="403.0" y="201.0"/>
      <point x="463.0" y="193.0" type="curve"/>
      <point x="463.0" y="350.0" type="line"/>
      <point x="453.102845791" y="342.930604136"/>
      <point x="349.816649888" y="272.442591572"/>
      <point x="283.573653416" y="272.442591572" type="curve" smooth="yes"/>
      <point x="225.076460481" y="272.442591572"/>
      <point x="128.036561289" y="320.070193264"/>
      <point x="128.036561289" y="410.065874702" type="curve" smooth="yes"/>
      <point x="128.036561289" y="526.039726198"/>
      <point x="269.723632812" y="617.43359375"/>
      <point x="384.0" y="686.0" type="curve"/>
      <point x="408.0" y="682.0"/>
      <point x="433.0" y="679.0"/>
      <point x="455.0" y="675.0" type="curve"/>
      <point x="397.283203125" y="661.5078125"/>
      <point x="279.211292275" y="590.707771615"/>
      <point x="279.211292275" y="481.78574034" type="curve" smooth="yes"/>
      <point x="279.211292275" y="414.0"/>
      <point x="321.0" y="369.403701963"/>
      <point x="378.96539075" y="369.403701963" type="curve" smooth="yes"/>
      <point x="411.792819952" y="369.403701963"/>
      <point x="441.017870115" y="375.241601217"/>
      <point x="463.0" y="383.0" type="curve"/>
      <point x="465.0" y="664.0" type="line"/>
      <point x="352.0" y="664.0"/>
      <point x="268.0" y="633.4921875"/>
      <point x="161.0" y="633.4921875" type="curve" smooth="yes"/>
      <point x="126.145507812" y="633.4921875"/>
      <point x="69.5127347704" y="648.943505508"/>
      <point x="69.5127347704" y="723.931335333" type="curve" smooth="yes"/>
      <point x="69.5127347704" y="731.916816828"/>
      <point x="70.1303061543" y="739.752551286"/>
      <point x="71.0" y="747.0" type="curve"/>
      <point x="251.0" y="894.0" type="line"/>
      <point x="255.54529592" y="875.818816319"/>
      <point x="276.477410316" y="791.167246047"/>
      <point x="354.685499982" y="791.167246047" type="curve" smooth="yes"/>
      <point x="392.902815205" y="791.167246047"/>
      <point x="457.357965427" y="815.845132678"/>
      <point x="543.638053811" y="815.845132678" type="curve" smooth="yes"/>
      <point x="706.0" y="815.845132678"/>
      <point x="881.0" y="781.0"/>
      <point x="980.0" y="640.0" type="curve" smooth="yes"/>
      <point x="1019.11664552" y="584.288413956"/>
      <point x="1049.34909511" y="506.789243555"/>
      <point x="1049.34909511" y="427.280972873" type="curve" smooth="yes"/>
      <point x="1049.34909511" y="277.643950034"/>
      <point x="958.443124042" y="214.722259352"/>
      <point x="833.0" y="124.0" type="curve" smooth="yes"/>
      <point x="753.0" y="66.0"/>
      <point x="678.0" y="27.0"/>
      <point x="627.0" y="4.0" type="curve"/>
      <point x="404.388372276" y="17.9132267327"/>
      <point x="319.829515005" y="94.8831045654"/>
    </contour>
    <contour>
      <point x="549.0" y="675.0" type="curve"/>
      <point x="549.0" y="185.0" type="line"/>
      <point x="550.0" y="185.0"/>
      <point x="550.0" y="185.0"/>
      <point x="551.0" y="185.0" type="curve" smooth="yes"/>
      <point x="586.57621056" y="183.235890385"/>
      <point x="617.657190507" y="181.731120999"/>
      <point x="645.335867471" y="181.731120999" type="curve" smooth="yes"/>
      <point x="711.796500452" y="181.731120999"/>
      <point x="758.641096146" y="190.406895186"/>
      <point x="801.0" y="225.0" type="curve" smooth="yes"/>
      <point x="853.823742683" y="268.501905739"/>
      <point x="884.923324364" y="339.159012733"/>
      <point x="884.923324364" y="409.782601017" type="curve" smooth="yes"/>
      <point x="884.923324364" y="543.889541695"/>
      <point x="761.123133808" y="661.165882578"/>
    </contour>
  </outline>
</glyph>
<glyph name="F" format="2">
  <advance width="825"/>
  <unicode hex="0046"/>
  <outline>
    <contour>
      <point x="736.425305623" y="787.843481819" type="curve" smooth="yes"/>
      <point x="755.404986692" y="787.843481819"/>
      <point x="778.659888694" y="792.997095155"/>
      <point x="795.0" y="800.0" type="curve"/>
      <point x="807.0" y="787.0"/>
      <point x="815.0" y="770.0"/>
      <point x="815.0" y="748.0" type="curve" smooth="yes"/>
      <point x="815.0" y="742.0"/>
      <point x="814.0" y="733.0"/>
      <point x="813.0" y="728.0" type="curve"/>
      <point x="741.0" y="662.0" type="line"/>
      <point x="731.990195136" y="661.249182928"/>
      <point x="723.408822241" y="660.904248774"/>
      <point x="715.238951104" y="660.904248774" type="curve" smooth="yes"/>
      <point x="613.195942188" y="660.904248774"/>
      <point x="591.929709298" y="709.142863938"/>
      <point x="541.008640872" y="709.142863938" type="curve" smooth="yes"/>
      <point x="519.299727254" y="709.142863938"/>
      <point x="501.14197631" y="698.606482232"/>
      <point x="491.0" y="691.0" type="curve"/>
      <point x="491.0" y="169.0" type="line"/>
      <point x="434.6653411" y="9.79335528121"/>
      <point x="190.0" y="-35.0"/>
      <point x="190.0" y="-35.0" type="curve"/>
      <point x="165.731062766" y="-10.7310627658"/>
      <point x="125.786025849" y="8.50486743945"/>
      <point x="82.1890860465" y="8.50486743945" type="curve" smooth="yes"/>
      <point x="63.6472669721" y="8.50486743945"/>
      <point x="48.943402552" y="5.26954358628"/>
      <point x="41.0" y="3.0" type="curve"/>
      <point x="20.0" y="32.0" type="line"/>
      <point x="26.5046027629" y="40.2785853346"/>
      <point x="70.7206127784" y="97.4365349466"/>
      <point x="152.808352367" y="97.4365349466" type="curve" smooth="yes"/>
      <point x="176.528860098" y="97.4365349466"/>
      <point x="225.074836164" y="91.7401310686"/>
      <point x="271.0" y="55.0" type="curve"/>
      <point x="316.0" y="83.0" type="line"/>
      <point x="316.0" y="605.0" type="line" smooth="yes"/>
      <point x="316.0" y="620.0"/>
      <point x="272.0" y="645.0"/>
      <point x="231.0" y="670.0" type="curve"/>
      <point x="231.0" y="706.0" type="line"/>
      <point x="379.0" y="729.0"/>
      <point x="504.0" y="785.0"/>
      <point x="585.0" y="836.0" type="curve"/>
      <point x="625.0" y="836.0" type="line"/>
      <point x="634.648564768" y="826.351435232"/>
      <point x="676.880310265" y="787.843481819"/>
    </contour>
    <contour>
      <point x="541.0" y="-2.0" type="line"/>
      <point x="541.0" y="748.0" type="line"/>
      <point x="604.0" y="748.0" type="line"/>
      <point x="604.0" y="-2.0" type="line"/>
    </contour>
    <contour>
      <point x="708.0" y="450.0" type="line"/>
      <point x="694.630182116" y="455.72992195"/>
      <point x="638.26625699" y="482.741487433"/>
      <point x="568.0" y="452.0" type="curve"/>
      <point x="560.0" y="537.0" type="line"/>
      <point x="570.596604952" y="545.29299518"/>
      <point x="661.090504216" y="616.320281326"/>
      <point x="787.0" y="578.0" type="curve"/>
    </contour>
    <contour>
      <point x="438.0" y="350.0" type="curve"/>
      <point x="354.0" y="251.0" type="line"/>
      <point x="351.0" y="261.0"/>
      <point x="334.635499895" y="298.703894803"/>
      <point x="293.0" y="325.0" type="curve" smooth="yes"/>
      <point x="274.0" y="337.0"/>
      <point x="256.0" y="341.0"/>
      <point x="223.0" y="341.0" type="curve"/>
      <point x="204.0" y="365.0" type="line"/>
      <point x="208.565117851" y="369.565117851"/>
      <point x="247.308329333" y="409.141941373"/>
      <point x="306.529700513" y="409.141941373" type="curve" smooth="yes"/>
      <point x="369.264470049" y="409.141941373"/>
      <point x="432.348120807" y="357.91263087"/>
    </contour>
    <contour>
      <point x="377.0" y="527.0" type="line"/>
      <point x="370.159448408" y="522.602502548"/>
      <point x="304.499624315" y="477.299335671"/>
      <point x="207.035453724" y="477.299335671" type="curve" smooth="yes"/>
      <point x="177.665299522" y="477.299335671"/>
      <point x="145.407067129" y="481.413210114"/>
      <point x="111.0" y="492.0" type="curve"/>
      <point x="123.0" y="547.0" type="line"/>
      <point x="212.0" y="550.0"/>
      <point x="294.0" y="576.0"/>
      <point x="358.0" y="610.0" type="curve"/>
    </contour>
  </outline>
</glyph>
<glyph name="K" format="2">
  <advance width="1114"/>
  <unicode hex="004B"/>
  <outline>
    <contour>
      <point x="610.0" y="349.0" type="line"/>
      <point x="515.0" y="56.0" type="line"/>
      <point x="447.0" y="78.0" type="line"/>
      <point x="539.0" y="362.0" type="line"/>
      <point x="542.0" y="722.0" type="line"/>
      <point x="644.0" y="829.0" type="line"/>
      <point x="694.0" y="778.0" type="line"/>
      <point x="616.0" y="701.0" type="line"/>
    </contour>
    <contour>
      <point x="896.0" y="771.0" type="line"/>
      <point x="896.0" y="724.0"/>
      <point x="903.0" y="682.0"/>
      <point x="936.0" y="643.0" type="curve" smooth="yes"/>
      <point x="974.044846495" y="598.037908688"/>
      <point x="1026.0" y="584.0"/>
      <point x="1040.0" y="581.0" type="curve" smooth="yes"/>
      <point x="1040.0" y="528.0" type="line"/>
      <point x="931.978515625" y="492.775390625"/>
      <point x="881.057060198" y="488.820649494"/>
      <point x="881.057060198" y="444.36099861" type="curve" smooth="yes"/>
      <point x="881.057060198" y="385.005438927"/>
      <point x="979.43814339" y="356.137890593"/>
      <point x="1019.0" y="188.0" type="curve"/>
      <point x="1093.0" y="173.0" type="line"/>
      <point x="1096.0" y="173.0" type="line"/>
      <point x="1096.0" y="170.0" type="line"/>
      <point x="1091.02681125" y="122.754706915"/>
      <point x="1057.24522453" y="26.0817415108"/>
      <point x="958.0" y="-7.0" type="curve"/>
      <point x="956.0" y="-8.0" type="line"/>
      <point x="872.0" y="53.0" type="line"/>
      <point x="872.0" y="55.0" type="line"/>
      <point x="871.0" y="83.0"/>
      <point x="864.0" y="187.0"/>
      <point x="782.0" y="272.0" type="curve" smooth="yes"/>
      <point x="734.0" y="321.0"/>
      <point x="681.0" y="343.0"/>
      <point x="651.0" y="352.0" type="curve"/>
      <point x="650.0" y="352.0" type="line"/>
      <point x="645.677753128" y="361.638826412"/>
      <point x="644.321382593" y="373.359639489"/>
      <point x="640.0" y="383.0" type="curve"/>
      <point x="642.0" y="384.0" type="line"/>
      <point x="704.0" y="423.0"/>
      <point x="767.0" y="464.0"/>
      <point x="828.0" y="503.0" type="curve"/>
      <point x="767.814641972" y="543.123572018"/>
      <point x="793.94198389" y="604.583135456"/>
      <point x="733.187769235" y="604.583135456" type="curve" smooth="yes"/>
      <point x="712.919299521" y="604.583135456"/>
      <point x="677.11490177" y="572.409934513"/>
      <point x="585.0" y="511.0" type="curve"/>
      <point x="581.0" y="509.0" type="line"/>
      <point x="576.544078019" y="526.544078019"/>
      <point x="570.835529657" y="542.835529657"/>
      <point x="566.0" y="560.0" type="curve"/>
      <point x="666.417350476" y="630.249316191"/>
      <point x="767.269141764" y="700.064191569"/>
      <point x="867.0" y="771.0" type="curve"/>
    </contour>
    <contour>
      <point x="149.0" y="452.0" type="curve"/>
      <point x="149.0" y="520.046711981"/>
      <point x="201.149477186" y="588.245549603"/>
      <point x="307.0" y="569.0" type="curve"/>
      <point x="309.0" y="654.0" type="line"/>
      <point x="325.259593656" y="670.259593656"/>
      <point x="344.744414589" y="685.774483461"/>
      <point x="362.0" y="701.0" type="curve"/>
      <point x="339.943703235" y="704.284980369"/>
      <point x="313.042424582" y="706.90928139"/>
      <point x="282.536346147" y="706.90928139" type="curve" smooth="yes"/>
      <point x="252.0" y="706.90928139"/>
      <point x="128.0" y="692.0"/>
      <point x="53.0" y="654.0" type="curve"/>
      <point x="20.0" y="675.0" type="line"/>
      <point x="46.1495673057" y="740.443766002"/>
      <point x="143.014933156" y="836.911834324"/>
      <point x="250.762951895" y="836.911834324" type="curve" smooth="yes"/>
      <point x="320.575099325" y="836.911834324"/>
      <point x="357.613542019" y="797.991744931"/>
      <point x="420.258414066" y="797.991744931" type="curve" smooth="yes"/>
      <point x="466.428388805" y="797.991744931"/>
      <point x="509.122068762" y="821.333922274"/>
      <point x="529.0" y="835.0" type="curve"/>
      <point x="531.0" y="836.0" type="line"/>
      <point x="539.518857908" y="828.40914952"/>
      <point x="548.727611068" y="819.827955523"/>
      <point x="558.0" y="813.0" type="curve"/>
      <point x="526.790269126" y="782.604614378"/>
      <point x="481.989433938" y="755.270432829"/>
      <point x="481.989433938" y="668.774035145" type="curve" smooth="yes"/>
      <point x="481.989433938" y="630.389316755"/>
      <point x="488.741752857" y="587.140624303"/>
      <point x="488.741752857" y="538.397838718" type="curve" smooth="yes"/>
      <point x="488.741752857" y="483.789578643"/>
      <point x="483.300312709" y="376.580813042"/>
      <point x="445.0" y="277.0" type="curve" smooth="yes"/>
      <point x="424.0" y="222.0"/>
      <point x="396.0" y="180.0"/>
      <point x="377.0" y="154.0" type="curve"/>
      <point x="414.220874248" y="164.568890219"/>
      <point x="446.162852445" y="168.591949333"/>
      <point x="473.505142433" y="168.591949333" type="curve" smooth="yes"/>
      <point x="579.152959243" y="168.591949333"/>
      <point x="617.556976061" y="104.915539967"/>
      <point x="703.453820845" y="104.915539967" type="curve" smooth="yes"/>
      <point x="731.443433581" y="104.915539967"/>
      <point x="758.770508523" y="110.885254261"/>
      <point x="773.0" y="118.0" type="curve"/>
      <point x="800.0" y="86.0" type="line"/>
      <point x="713.0" y="-15.0" type="line"/>
      <point x="711.0" y="-15.0" type="line"/>
      <point x="514.524589529" y="-4.37970754213"/>
      <point x="446.224643131" y="47.6266695091"/>
      <point x="358.774760447" y="47.6266695091" type="curve" smooth="yes"/>
      <point x="305.034046932" y="47.6266695091"/>
      <point x="227.466796875" y="28.9345703125"/>
      <point x="141.0" y="-24.0" type="curve"/>
      <point x="141.0" y="-24.0"/>
      <point x="138.25" y="-11.1369472484"/>
      <point x="138.25" y="5.25" type="curve" smooth="yes"/>
      <point x="138.25" y="113.294810683"/>
      <point x="249.739763093" y="89.6048343462"/>
      <point x="280.0" y="202.0" type="curve"/>
      <point x="273.236015956" y="213.27330674"/>
      <point x="250.71979184" y="255.18680544"/>
      <point x="194.0" y="293.0" type="curve"/>
      <point x="202.250123254" y="305.375184882"/>
      <point x="234.556348154" y="347.842997385"/>
      <point x="296.0" y="337.0" type="curve"/>
      <point x="301.0" y="414.0" type="line"/>
      <point x="244.182067747" y="450.525813591"/>
      <point x="179.568888889" y="459.642222222"/>
    </contour>
  </outline>
</glyph>
<glyph name="L" format="2">
  <advance width="1015"/>
  <unicode hex="004C"/>
  <outline>
    <contour>
      <point x="43.0" y="-11.0" type="curve"/>
      <point x="151.240462977" y="79.7309763188"/>
      <point x="396.852283876" y="223.183127567"/>
      <point x="642.498735805" y="223.183127567" type="curve" smooth="yes"/>
      <point x="724.846046545" y="223.183127567"/>
      <point x="772.572116811" y="191.0"/>
      <point x="816.0" y="191.0" type="curve" smooth="yes"/>
      <point x="870.0" y="191.0"/>
      <point x="914.0" y="220.0"/>
      <point x="942.0" y="244.0" type="curve"/>
      <point x="992.0" y="244.0" type="line"/>
      <point x="992.0" y="217.0" type="line"/>
      <point x="786.0" y="0.0" type="line"/>
      <point x="756.721178476" y="11.9776997142"/>
      <point x="631.633636322" y="61.3429971703"/>
      <point x="472.041506805" y="61.3429971703" type="curve" smooth="yes"/>
      <point x="401.510862918" y="61.3429971703"/>
      <point x="253.072795376" y="66.4839313822"/>
      <point x="177.0" y="-1.0" type="curve" smooth="yes"/>
      <point x="149.094211832" y="-25.1850164126"/>
      <point x="124.649459278" y="-60.6183985729"/>
      <point x="95.6171651133" y="-60.6183985729" type="curve" smooth="yes"/>
      <point x="67.3182058196" y="-60.6183985729"/>
      <point x="52.493207572" y="-32.0960168266"/>
    </contour>
    <contour>
      <point x="661.514220677" y="681.757069432" type="curve" smooth="yes"/>
      <point x="661.514220677" y="629.151909972"/>
      <point x="664.532013905" y="561.178598157"/>
      <point x="664.532013905" y="526.731578726" type="curve" smooth="yes"/>
      <point x="664.532013905" y="290.941534627"/>
      <point x="495.335910293" y="310.007730879"/>
      <point x="445.0" y="159.0" type="curve"/>
      <point x="453.388525599" y="480.56014795"/>
      <point x="469.27746899" y="823.587594961"/>
      <point x="740.0" y="834.0" type="curve"/>
      <point x="740.0" y="778.0" type="line"/>
      <point x="724.0" y="778.0"/>
      <point x="703.0" y="776.0"/>
      <point x="686.0" y="762.0" type="curve" smooth="yes"/>
      <point x="664.910987927" y="744.035286012"/>
      <point x="661.514220677" y="715.699256092"/>
    </contour>
    <contour>
      <point x="135.431936972" y="698.23582566" type="curve" smooth="yes"/>
      <point x="98.1112687883" y="698.23582566"/>
      <point x="73.1386894242" y="668.802114532"/>
      <point x="62.0" y="649.0" type="curve"/>
      <point x="21.0" y="660.0" type="line"/>
      <point x="41.4037733948" y="767.119810323"/>
      <point x="132.294809639" y="830.011419467"/>
      <point x="219.96756366" y="830.011419467" type="curve" smooth="yes"/>
      <point x="292.34904407" y="830.011419467"/>
      <point x="309.706793378" y="784.770694839"/>
      <point x="383.027508286" y="784.770694839" type="curve" smooth="yes"/>
      <point x="438.000349602" y="784.770694839"/>
      <point x="483.698056604" y="810.234950257"/>
      <point x="515.0" y="833.0" type="curve"/>
      <point x="541.0" y="809.0" type="line"/>
      <point x="523.0" y="800.0"/>
      <point x="496.0" y="783.0"/>
      <point x="471.0" y="754.0" type="curve" smooth="yes"/>
      <point x="413.516099179" y="687.999965724"/>
      <point x="400.0" y="578.927854396"/>
      <point x="400.0" y="478.82248633" type="curve" smooth="yes"/>
      <point x="400.0" y="412.012981876" type="line" smooth="yes"/>
      <point x="400.0" y="192.971478603"/>
      <point x="118.0" y="16.0"/>
      <point x="118.0" y="16.0" type="curve"/>
      <point x="122.0" y="49.0" type="line"/>
      <point x="153.082095219" y="71.9737225535"/>
      <point x="237.321046427" y="152.362342489"/>
      <point x="237.321046427" y="249.310499696" type="curve" smooth="yes"/>
      <point x="237.321046427" y="304.770651961"/>
      <point x="215.191579041" y="356.617777791"/>
      <point x="215.191579041" y="431.123223496" type="curve" smooth="yes"/>
      <point x="215.191579041" y="493.0"/>
      <point x="244.0" y="608.958007812"/>
      <point x="312.0" y="700.0" type="curve"/>
      <point x="278.69848481" y="688.899494937"/>
      <point x="251.055086528" y="685.343145751"/>
      <point x="229.56828099" y="685.343145751" type="curve" smooth="yes"/>
      <point x="192.072108519" y="685.343145751"/>
      <point x="159.605156853" y="698.23582566"/>
    </contour>
    <contour>
      <point x="19.0" y="498.0" type="line"/>
      <point x="116.298376634" y="572.404640956"/>
      <point x="243.014125385" y="563.767576111"/>
      <point x="323.0" y="506.0" type="curve"/>
      <point x="305.0" y="457.0"/>
      <point x="287.0" y="407.0"/>
      <point x="269.0" y="358.0" type="curve"/>
      <point x="263.256568475" y="369.486863049"/>
      <point x="198.198738323" y="497.279810748"/>
      <point x="43.0" y="474.0" type="curve"/>
    </contour>
    <contour>
      <point x="317.0" y="357.0" type="curve"/>
      <point x="299.0" y="299.0"/>
      <point x="280.0" y="241.0"/>
      <point x="262.0" y="183.0" type="curve"/>
      <point x="243.093756983" y="208.208324022"/>
      <point x="186.293085387" y="277.353075819"/>
      <point x="74.0" y="292.0" type="curve"/>
      <point x="61.0" y="315.0" type="line"/>
      <point x="91.1644824255" y="330.082241213"/>
      <point x="184.053215497" y="374.044459552"/>
    </contour>
  </outline>
</glyph>
<glyph name="M" format="2">
  <advance width="1234"/>
  <unicode hex="004D"/>
  <outline>
    <contour>
      <point x="416.0" y="148.0" type="line"/>
      <point x="416.0" y="709.0" type="line"/>
      <point x="484.0" y="709.0" type="line"/>
      <point x="484.0" y="148.0" type="line"/>
    </contour>
    <contour>
      <point x="774.0" y="176.0" type="line"/>
      <point x="774.0" y="664.0" type="line"/>
      <point x="832.0" y="664.0" type="line"/>
      <point x="832.0" y="176.0" type="line"/>
    </contour>
    <contour>
      <point x="558.0" y="97.0" type="line"/>
      <point x="558.0" y="678.0" type="line"/>
      <point x="688.0" y="678.0" type="line"/>
      <point x="688.0" y="97.0" type="line"/>
    </contour>
    <contour>
      <point x="816.0" y="329.0" type="line"/>
      <point x="816.0" y="461.0" type="line"/>
      <point x="1106.0" y="461.0" type="line"/>
      <point x="1106.0" y="329.0" type="line"/>
    </contour>
    <contour>
      <point x="19.0" y="83.0" type="curve"/>
      <point x="51.9708404942" y="172.492281341"/>
      <point x="148.657540448" y="214.813503244"/>
      <point x="244.610858376" y="214.813503244" type="curve" smooth="yes"/>
      <point x="278.669544564" y="214.813503244"/>
      <point x="330.649459081" y="204.915967143"/>
      <point x="377.0" y="155.0" type="curve"/>
      <point x="431.0" y="166.0"/>
      <point x="484.0" y="176.0"/>
      <point x="538.0" y="187.0" type="curve"/>
      <point x="550.0" y="171.0"/>
      <point x="562.0" y="154.0"/>
      <point x="574.0" y="138.0" type="curve"/>
      <point x="363.0" y="3.0" type="line"/>
      <point x="338.408966413" y="23.3512002098"/>
      <point x="246.722401008" y="94.8628587136"/>
      <point x="115.967289478" y="94.8628587136" type="curve" smooth="yes"/>
      <point x="75.716602646" y="94.8628587136"/>
      <point x="42.2254136012" y="88.4648032003"/>
    </contour>
    <contour>
      <point x="246.35771151" y="527.117271752" type="curve" smooth="yes"/>
      <point x="246.35771151" y="433.662566254"/>
      <point x="334.554398771" y="366.918278325"/>
      <point x="430.0" y="379.0" type="curve"/>
      <point x="430.0" y="361.0"/>
      <point x="428.0" y="343.0"/>
      <point x="428.0" y="325.0" type="curve"/>
      <point x="361.0" y="293.0"/>
      <point x="288.0" y="263.0"/>
      <point x="229.0" y="206.0" type="curve"/>
      <point x="133.416522492" y="373.995202893"/>
      <point x="35.3215080366" y="348.463437467"/>
      <point x="35.3215080366" y="440.125489919" type="curve" smooth="yes"/>
      <point x="35.3215080366" y="573.957308733"/>
      <point x="340.840803486" y="828.330236065"/>
      <point x="519.858107518" y="828.330236065" type="curve" smooth="yes"/>
      <point x="607.581446994" y="828.330236065"/>
      <point x="689.82222962" y="758.562939538"/>
      <point x="726.0" y="644.0" type="curve"/>
      <point x="683.0" y="625.0"/>
      <point x="601.0" y="610.0"/>
      <point x="558.0" y="591.0" type="curve"/>
      <point x="558.0" y="635.0"/>
      <point x="522.0" y="700.68547565"/>
      <point x="427.962699413" y="700.68547565" type="curve" smooth="yes"/>
      <point x="334.371092362" y="700.68547565"/>
      <point x="246.35771151" y="622.049884118"/>
    </contour>
    <contour>
      <point x="670.0" y="662.0" type="line"/>
      <point x="671.405569554" y="664.225485128"/>
      <point x="789.201471327" y="808.992078893"/>
      <point x="927.062279603" y="808.992078893" type="curve" smooth="yes"/>
      <point x="996.237593664" y="808.992078893"/>
      <point x="1215.20588551" y="749.082310876"/>
      <point x="1215.20588551" y="407.597824003" type="curve" smooth="yes"/>
      <point x="1215.20588551" y="168.385187223"/>
      <point x="1027.03983747" y="-78.4629067303"/>
      <point x="726.971505891" y="-78.4629067303" type="curve" smooth="yes"/>
      <point x="703.72248403" y="-78.4629067303"/>
      <point x="683.469757377" y="-76.8715633383"/>
      <point x="667.0" y="-75.0" type="curve"/>
      <point x="654.0" y="-55.0"/>
      <point x="640.0" y="-36.0"/>
      <point x="627.0" y="-16.0" type="curve"/>
      <point x="791.743511779" y="-12.2558292777"/>
      <point x="1056.76541082" y="101.357774988"/>
      <point x="1056.76541082" y="412.058677838" type="curve" smooth="yes"/>
      <point x="1056.76541082" y="592.256911628"/>
      <point x="948.913127076" y="667.624311013"/>
      <point x="870.153313674" y="667.624311013" type="curve" smooth="yes"/>
      <point x="813.799598406" y="667.624311013"/>
      <point x="688.0" y="602.0"/>
      <point x="688.0" y="516.0" type="curve"/>
    </contour>
    <contour>
      <point x="506.735345886" y="-90.5619501356" type="curve" smooth="yes"/>
      <point x="506.735345886" y="-36.0670378235"/>
      <point x="583.320044026" y="8.0350535938"/>
      <point x="632.813011627" y="8.0350535938" type="curve" smooth="yes"/>
      <point x="661.294190918" y="8.0350535938"/>
      <point x="682.311135518" y="-8.52330299371"/>
      <point x="682.311135518" y="-47.9730201236" type="curve" smooth="yes"/>
      <point x="682.311135518" y="-112.877278234"/>
      <point x="619.996124093" y="-158.206929456"/>
      <point x="571.826389104" y="-158.206929456" type="curve" smooth="yes"/>
      <point x="536.61095346" y="-158.206929456"/>
      <point x="506.735345886" y="-127.875559281"/>
    </contour>
    <contour>
      <point x="496.0" y="154.0" type="line"/>
      <point x="622.0" y="254.0" type="line"/>
      <point x="723.0" y="164.0" type="line"/>
      <point x="811.0" y="270.0" type="line"/>
      <point x="865.0" y="186.0" type="line"/>
      <point x="622.0" y="-56.0" type="line"/>
    </contour>
  </outline>
</glyph>
<glyph name="N" format="2">
  <advance width="1094"/>
  <unicode hex="004E"/>
  <outline>
    <contour>
      <point x="760.0" y="382.0" type="line"/>
      <point x="760.0" y="456.0" type="line"/>
      <point x="952.0" y="456.0" type="line"/>
      <point x="952.0" y="382.0" type="line"/>
    </contour>
    <contour>
      <point x="152.0" y="489.0" type="line"/>
      <point x="211.907295748" y="531.707563897"/>
      <point x="307.815824364" y="550.212469909"/>
      <point x="394.0" y="496.0" type="curve"/>
      <point x="358.0" y="380.0" type="line"/>
      <point x="309.209091499" y="422.349513342"/>
      <point x="245.54079353" y="453.652980068"/>
      <point x="163.0" y="456.0" type="curve"/>
    </contour>
    <contour>
      <point x="149.0" y="276.0" type="line"/>
      <point x="205.122848702" y="327.737233606"/>
      <point x="306.710308982" y="355.613758756"/>
      <point x="397.0" y="302.0" type="curve"/>
      <point x="361.0" y="186.0" type="line"/>
      <point x="319.442860425" y="235.724166502"/>
      <point x="249.95321665" y="270.064770072"/>
      <point x="167.0" y="250.0" type="curve"/>
    </contour>
    <contour>
      <point x="516.0" y="-112.0" type="line"/>
      <point x="516.0" y="767.0" type="line"/>
      <point x="588.0" y="767.0" type="line"/>
      <point x="588.0" y="-112.0" type="line"/>
    </contour>
    <contour>
      <point x="615.0" y="420.0" type="line"/>
      <point x="714.0" y="519.0" type="line"/>
      <point x="814.0" y="420.0" type="line"/>
      <point x="714.0" y="321.0" type="line"/>
    </contour>
    <contour>
      <point x="914.0" y="0.0" type="line"/>
      <point x="885.759980437" y="22.766980015"/>
      <point x="798.7130142" y="75.128480868"/>
      <point x="696.0" y="22.0" type="curve"/>
      <point x="679.0" y="40.0" type="line"/>
      <point x="751.858238744" y="128.626565621"/>
      <point x="885.271731706" y="289.034291614"/>
      <point x="885.271731706" y="447.676547226" type="curve" smooth="yes"/>
      <point x="885.271731706" y="595.660040152"/>
      <point x="771.52670729" y="705.701635367"/>
      <point x="619.426844603" y="705.701635367" type="curve" smooth="yes"/>
      <point x="565.552326553" y="705.701635367"/>
      <point x="511.523690667" y="691.277593685"/>
      <point x="465.0" y="664.0" type="curve"/>
      <point x="469.0" y="79.0" type="line"/>
      <point x="238.0" y="-127.0" type="line"/>
      <point x="151.0" y="-72.0" type="line"/>
      <point x="67.0" y="-156.0" type="line"/>
      <point x="19.0" y="-119.0" type="line"/>
      <point x="175.0" y="55.0" type="line"/>
      <point x="209.778300792" y="45.9461812176"/>
      <point x="221.411760213" y="5.24970304651"/>
      <point x="260.420286598" y="5.24970304651" type="curve" smooth="yes"/>
      <point x="295.155719029" y="5.24970304651"/>
      <point x="297.0" y="44.2679158879"/>
      <point x="297.0" y="93.0" type="curve" smooth="yes"/>
      <point x="297.0" y="626.0" type="line"/>
      <point x="547.0" y="819.0" type="line"/>
      <point x="588.465378223" y="833.976020803"/>
      <point x="632.563683592" y="841.634635317"/>
      <point x="676.643031966" y="841.634635317" type="curve" smooth="yes"/>
      <point x="867.433590229" y="841.634635317"/>
      <point x="1022.06298948" y="705.649628596"/>
      <point x="1022.06298948" y="510.827560991" type="curve" smooth="yes"/>
      <point x="1022.06298948" y="470.015087351"/>
      <point x="1018.53784532" y="337.391908769"/>
      <point x="855.0" y="171.0" type="curve"/>
      <point x="890.807475871" y="167.734494171"/>
      <point x="925.936297211" y="151.785946751"/>
      <point x="950.0" y="132.0" type="curve"/>
      <point x="1028.0" y="176.0" type="line"/>
      <point x="1055.0" y="139.0" type="line"/>
    </contour>
  </outline>
</glyph>
<glyph name="P" format="2">
  <advance width="855"/>
  <unicode hex="0050"/>
  <outline>
    <contour>
      <point x="612.0" y="135.0" type="curve"/>
      <point x="650.426953694" y="150.822863286"/>
      <point x="684.600807806" y="175.39096625"/>
      <point x="684.600807806" y="243.70046111" type="curve" smooth="yes"/>
      <point x="684.600807806" y="629.0"/>
      <point x="454.0" y="661.0"/>
      <point x="354.0" y="661.0" type="curve"/>
      <point x="424.0" y="715.838867188"/>
      <point x="493.458915801" y="780.050844239"/>
      <point x="529.0" y="828.38671875" type="curve"/>
      <point x="603.0" y="828.0" type="line"/>
      <point x="597.038599067" y="816.077198133"/>
      <point x="590.351926682" y="799.077496111"/>
      <point x="590.351926682" y="780.089203864" type="curve" smooth="yes"/>
      <point x="590.351926682" y="681.380275875"/>
      <point x="836.141367166" y="667.733969139"/>
      <point x="836.141367166" y="320.660641695" type="curve" smooth="yes"/>
      <point x="836.141367166" y="112.305431207"/>
      <point x="673.834979196" y="118.834979196"/>
      <point x="546.0" y="-9.0" type="curve"/>
      <point x="206.0" y="121.0" type="line"/>
      <point x="224.0" y="163.0"/>
      <point x="242.0" y="204.0"/>
      <point x="260.0" y="246.0" type="curve"/>
      <point x="377.0" y="209.0"/>
      <point x="495.0" y="172.0"/>
    </contour>
    <contour>
      <point x="194.595446224" y="758.09745624" type="curve" smooth="yes"/>
      <point x="239.723757654" y="758.09745624"/>
      <point x="277.772759448" y="710.729561772"/>
      <point x="297.0" y="649.0" type="curve"/>
      <point x="297.0" y="408.0"/>
      <point x="297.0" y="168.0"/>
      <point x="297.0" y="-73.0" type="curve"/>
      <point x="308.0" y="-86.0"/>
      <point x="319.0" y="-97.0"/>
      <point x="330.0" y="-110.0" type="curve"/>
      <point x="329.0" y="-123.0"/>
      <point x="327.0" y="-136.0"/>
      <point x="326.0" y="-149.0" type="curve"/>
      <point x="317.742346142" y="-149.367006838"/>
      <point x="309.754080322" y="-149.531972647"/>
      <point x="302.053740151" y="-149.531972647" type="curve" smooth="yes"/>
      <point x="267.791155542" y="-149.531972647"/>
      <point x="239.228911104" y="-146.265986324"/>
      <point x="218.0" y="-143.0" type="curve" smooth="yes"/>
      <point x="155.0" y="-134.0"/>
      <point x="140.0" y="-120.0"/>
      <point x="133.0" y="-110.0" type="curve" smooth="yes"/>
      <point x="124.105263158" y="-97.6842105263"/>
      <point x="122.700831025" y="-83.4958448753"/>
      <point x="122.700831025" y="-73.5207756233" type="curve" smooth="yes"/>
      <point x="122.700831025" y="-68.9168975069"/>
      <point x="123.0" y="-65.2105263158"/>
      <point x="123.0" y="-63.0" type="curve" smooth="yes"/>
      <point x="123.0" y="162.0"/>
      <point x="123.0" y="386.0"/>
      <point x="123.0" y="611.0" type="curve"/>
      <point x="96.0" y="606.0"/>
      <point x="62.0" y="589.0"/>
      <point x="46.0" y="577.0" type="curve"/>
      <point x="30.0" y="607.0" type="line"/>
      <point x="54.9853920243" y="647.361017885"/>
      <point x="138.546497199" y="758.09745624"/>
    </contour>
    <contour>
      <point x="208.0" y="458.0" type="curve"/>
      <point x="193.0" y="415.0"/>
      <point x="179.0" y="373.0"/>
      <point x="164.0" y="330.0" type="curve"/>
      <point x="139.422132273" y="385.300202387"/>
      <point x="82.8313741774" y="409.366274835"/>
      <point x="31.0" y="399.0" type="curve"/>
      <point x="43.657960388" y="493.93470291"/>
      <point x="141.283592433" y="498.506390308"/>
    </contour>
    <contour>
      <point x="204.0" y="285.0" type="curve"/>
      <point x="188.0" y="234.0"/>
      <point x="171.0" y="183.0"/>
      <point x="154.0" y="132.0" type="curve"/>
      <point x="150.923207332" y="136.023498105"/>
      <point x="107.019876955" y="198.550034179"/>
      <point x="19.0" y="223.0" type="curve"/>
      <point x="37.201523906" y="249.291090086"/>
      <point x="97.875860616" y="320.374713128"/>
    </contour>
    <contour>
      <point x="354.0" y="108.0" type="line"/>
      <point x="354.0" y="661.0" type="line"/>
      <point x="420.0" y="661.0" type="line"/>
      <point x="420.0" y="108.0" type="line"/>
    </contour>
    <contour>
      <point x="408.0" y="209.0" type="line"/>
      <point x="379.0" y="268.0" type="line"/>
      <point x="710.0" y="437.0" type="line"/>
      <point x="740.0" y="378.0" type="line"/>
    </contour>
    <contour>
      <point x="399.0" y="346.0" type="line"/>
      <point x="370.0" y="405.0" type="line"/>
      <point x="701.0" y="574.0" type="line"/>
      <point x="731.0" y="515.0" type="line"/>
    </contour>
  </outline>
</glyph>
<glyph name="Q" format="2">
  <advance width="1113"/>
  <unicode hex="0051"/>
  <outline>
    <contour>
      <point x="197.25185243" y="61.8834254517" type="curve" smooth="yes"/>
      <point x="136.582139394" y="61.8834254517"/>
      <point x="79.1470473614" y="39.3223465224"/>
      <point x="50.0" y="23.0" type="curve"/>
      <point x="19.0" y="62.0" type="line" smooth="yes"/>
      <point x="19.0457364441" y="62.1372093324"/>
      <point x="141.349378306" y="239.16"/>
      <point x="209.76" y="239.16" type="curve" smooth="yes"/>
      <point x="264.063703352" y="239.16"/>
      <point x="464.12105184" y="151.355937916"/>
      <point x="643.249557466" y="151.355937916" type="curve" smooth="yes"/>
      <point x="772.81257081" y="151.355937916"/>
      <point x="858.527734159" y="276.641871405"/>
      <point x="858.527734159" y="395.182090029" type="curve" smooth="yes"/>
      <point x="858.527734159" y="504.337545662"/>
      <point x="784.266295427" y="674.784533235"/>
      <point x="560.73589252" y="674.784533235" type="curve" smooth="yes"/>
      <point x="440.109850261" y="674.784533235"/>
      <point x="242.718003869" y="616.768896163"/>
      <point x="242.718003869" y="471.178507767" type="curve" smooth="yes"/>
      <point x="242.718003869" y="421.887695646"/>
      <point x="285.48828125" y="405.997070312"/>
      <point x="341.573242188" y="405.997070312" type="curve" smooth="yes"/>
      <point x="372.483398438" y="405.997070312"/>
      <point x="403.43545343" y="419.397016088"/>
      <point x="421.0" y="423.0" type="curve"/>
      <point x="453.0" y="378.0" type="line"/>
      <point x="236.0" y="268.0" type="line"/>
      <point x="146.478588938" y="302.10339469"/>
      <point x="86.0" y="381.284334365"/>
      <point x="86.0" y="453.0" type="curve" smooth="yes"/>
      <point x="86.0" y="607.462197113"/>
      <point x="445.834538535" y="825.239987495"/>
      <point x="635.317997523" y="825.239987495" type="curve" smooth="yes"/>
      <point x="886.100101967" y="825.239987495"/>
      <point x="1038.28097181" y="601.024622599"/>
      <point x="1038.28097181" y="466.794774581" type="curve" smooth="yes"/>
      <point x="1038.28097181" y="307.993035841"/>
      <point x="907.522815807" y="217.100825452"/>
      <point x="820.0" y="150.0" type="curve" smooth="yes"/>
      <point x="686.068611957" y="47.0609992724"/>
      <point x="626.779391978" y="-1.77471561308"/>
      <point x="550.481735944" y="-1.77471561308" type="curve" smooth="yes"/>
      <point x="448.189479118" y="-1.77471561308"/>
      <point x="270.431693084" y="61.8834254517"/>
    </contour>
    <contour>
      <point x="409.0" y="124.0" type="line"/>
      <point x="409.0" y="696.0" type="line"/>
      <point x="470.0" y="696.0" type="line"/>
      <point x="470.0" y="124.0" type="line"/>
    </contour>
    <contour>
      <point x="527.0" y="134.0" type="line"/>
      <point x="527.0" y="687.0" type="line"/>
      <point x="588.0" y="687.0" type="line"/>
      <point x="588.0" y="134.0" type="line"/>
    </contour>
    <contour>
      <point x="877.0" y="226.0" type="curve"/>
      <point x="880.995043836" y="220.007434246"/>
      <point x="920.130791171" y="169.955197465"/>
      <point x="983.226659221" y="169.955197465" type="curve" smooth="yes"/>
      <point x="1017.61115935" y="169.955197465"/>
      <point x="1043.33115299" y="185.210733724"/>
      <point x="1054.0" y="192.0" type="curve"/>
      <point x="1094.0" y="176.0" type="line"/>
      <point x="1057.52885152" y="75.7043416681"/>
      <point x="976.072433537" y="-2.39718408664"/>
      <point x="892.102644281" y="-2.39718408664" type="curve" smooth="yes"/>
      <point x="820.586439921" y="-2.39718408664"/>
      <point x="837.834827376" y="36.6991035746"/>
      <point x="719.0" y="108.0" type="curve"/>
      <point x="772.0" y="147.0"/>
      <point x="824.0" y="187.0"/>
    </contour>
  </outline>
</glyph>
<glyph name="R" format="2">
  <advance width="1027"/>
  <unicode hex="0052"/>
  <outline>
    <contour>
      <point x="471.0" y="147.0" type="line"/>
      <point x="471.0" y="698.0" type="line"/>
      <point x="528.0" y="698.0" type="line"/>
      <point x="528.0" y="147.0" type="line"/>
    </contour>
    <contour>
      <point x="591.888888889" y="690.333333333" type="curve" smooth="yes"/>
      <point x="517.292648515" y="690.333333333"/>
      <point x="461.197252582" y="661.198233802"/>
      <point x="422.0" y="636.0" type="curve"/>
      <point x="421.0" y="639.0"/>
      <point x="415.0" y="648.0"/>
      <point x="415.0" y="648.0" type="curve"/>
      <point x="473.158233227" y="736.852856319"/>
      <point x="582.27085281" y="810.020266467"/>
      <point x="670.962371824" y="810.020266467" type="curve" smooth="yes"/>
      <point x="781.489887395" y="810.020266467"/>
      <point x="904.079191613" y="733.149101946"/>
      <point x="906.0" y="664.0" type="curve" smooth="yes"/>
      <point x="906.0" y="594.920242684"/>
      <point x="779.829667093" y="513.891376276"/>
      <point x="739.0" y="494.0" type="curve"/>
      <point x="932.841515583" y="337.21642122"/>
      <point x="806.833410878" y="167.788085938"/>
      <point x="996.993164062" y="167.788085938" type="curve"/>
      <point x="997.0" y="156.0" type="line"/>
      <point x="971.429458687" y="106.68538461"/>
      <point x="905.341740993" y="23.7382315576"/>
      <point x="796.518726289" y="23.7382315576" type="curve" smooth="yes"/>
      <point x="621.366827052" y="23.7382315576"/>
      <point x="818.154538301" y="415.0"/>
      <point x="525.0" y="415.0" type="curve"/>
      <point x="524.0" y="424.0"/>
      <point x="521.0" y="476.0"/>
      <point x="520.0" y="484.0" type="curve"/>
      <point x="530.833333333" y="484.0"/>
      <point x="568.75" y="480.527777778"/>
      <point x="592.083333333" y="480.527777778" type="curve" smooth="yes"/>
      <point x="682.955140503" y="480.527777778"/>
      <point x="716.563979171" y="537.821399391"/>
      <point x="716.563979171" y="579.633038293" type="curve" smooth="yes"/>
      <point x="716.563979171" y="598.99208387"/>
      <point x="702.948676673" y="690.333333333"/>
    </contour>
    <contour>
      <point x="269.150476175" y="74.782426638" type="curve" smooth="yes"/>
      <point x="199.375650843" y="74.782426638"/>
      <point x="156.844362784" y="67.5992238733"/>
      <point x="77.0" y="33.0" type="curve"/>
      <point x="66.0" y="61.0" type="line"/>
      <point x="126.0" y="110.0"/>
      <point x="180.0" y="139.0"/>
      <point x="256.0" y="173.0" type="curve"/>
      <point x="256.0" y="308.0" type="line"/>
      <point x="218.10111481" y="371.954368758"/>
      <point x="137.844552219" y="415.384157777"/>
      <point x="49.0" y="390.0" type="curve"/>
      <point x="44.0" y="401.0" type="line"/>
      <point x="68.965739065" y="435.327891214"/>
      <point x="149.680719377" y="522.0"/>
      <point x="256.0" y="522.0" type="curve"/>
      <point x="256.0" y="586.0" type="line" smooth="yes"/>
      <point x="256.0" y="621.0"/>
      <point x="222.238531271" y="659.0"/>
      <point x="156.0" y="659.0" type="curve" smooth="yes"/>
      <point x="105.794279789" y="659.0"/>
      <point x="76.0800672784" y="641.925042049"/>
      <point x="49.0" y="625.0" type="curve"/>
      <point x="31.0" y="674.0" type="line"/>
      <point x="44.6994769391" y="684.35071591"/>
      <point x="225.7004914" y="816.659348244"/>
      <point x="237.845209753" y="816.659348244" type="curve" smooth="yes"/>
      <point x="286.800741845" y="816.659348244"/>
      <point x="343.731686379" y="770.014203261"/>
      <point x="384.0" y="726.0" type="curve" smooth="yes"/>
      <point x="410.354750055" y="697.009774939"/>
      <point x="424.0" y="660.302073761"/>
      <point x="424.0" y="621.300687244" type="curve" smooth="yes"/>
      <point x="424.0" y="195.0" type="line"/>
      <point x="505.422076919" y="187.815699095"/>
      <point x="507.569095813" y="159.488259085"/>
      <point x="572.019438177" y="159.488259085" type="curve" smooth="yes"/>
      <point x="601.701114701" y="159.488259085"/>
      <point x="639.874272329" y="170.097883495"/>
      <point x="687.0" y="201.0" type="curve"/>
      <point x="700.0" y="171.0" type="line"/>
      <point x="542.0" y="9.0" type="line"/>
      <point x="491.455808428" y="32.6925897994"/>
      <point x="372.061856752" y="74.782426638"/>
    </contour>
  </outline>
</glyph>
<glyph name="S" format="2">
  <advance width="1002"/>
  <unicode hex="0053"/>
  <outline>
    <contour>
      <point x="265.76953125" y="120.165039062" type="curve" smooth="yes"/>
      <point x="165.956054688" y="120.165039062"/>
      <point x="94.060546875" y="70.6494140625"/>
      <point x="61.0" y="0.0" type="curve"/>
      <point x="9.0" y="41.0" type="line"/>
      <point x="41.82421875" y="109.063476562"/>
      <point x="140.2421875" y="242.681640625"/>
      <point x="354.491210938" y="242.681640625" type="curve" smooth="yes"/>
      <point x="516.640625" y="242.681640625"/>
      <point x="691.38671875" y="152.662109375"/>
      <point x="738.497070312" y="152.662109375" type="curve" smooth="yes"/>
      <point x="794.129882812" y="152.662109375"/>
      <point x="867.21875" y="228.392578125"/>
      <point x="867.21875" y="300.93359375" type="curve" smooth="yes"/>
      <point x="867.21875" y="367.005859375"/>
      <point x="775.1875" y="516.317382812"/>
      <point x="654.643554688" y="516.317382812" type="curve" smooth="yes"/>
      <point x="598.302734375" y="516.317382812"/>
      <point x="559.221679688" y="489.90625"/>
      <point x="503.474609375" y="489.90625" type="curve" smooth="yes"/>
      <point x="337.5" y="489.90625"/>
      <point x="242.009765625" y="603.645507812"/>
      <point x="242.009765625" y="653.883789062" type="curve" smooth="yes"/>
      <point x="242.009765625" y="698.2578125"/>
      <point x="276.168945312" y="690.473632812"/>
      <point x="365.0" y="745.90234375" type="curve" smooth="yes"/>
      <point x="439.079101562" y="792.127929688"/>
      <point x="456.994140625" y="830.52734375"/>
      <point x="503.768554688" y="830.52734375" type="curve" smooth="yes"/>
      <point x="535.498046875" y="830.52734375"/>
      <point x="557.724609375" y="801.922851562"/>
      <point x="674.0" y="757.0" type="curve"/>
      <point x="578.0" y="616.0" type="line"/>
      <point x="559.149414062" y="632.754882812"/>
      <point x="502.469726562" y="692.19140625"/>
      <point x="447.838867188" y="692.19140625" type="curve" smooth="yes"/>
      <point x="418.18359375" y="692.19140625"/>
      <point x="392.52734375" y="676.05078125"/>
      <point x="392.52734375" y="646.41015625" type="curve" smooth="yes"/>
      <point x="392.52734375" y="617.870117188"/>
      <point x="415.4921875" y="601.297851562"/>
      <point x="444.427734375" y="601.297851562" type="curve" smooth="yes"/>
      <point x="502.684570312" y="601.297851562"/>
      <point x="608.25390625" y="647.276367188"/>
      <point x="691.657226562" y="647.276367188" type="curve" smooth="yes"/>
      <point x="789.45703125" y="647.276367188"/>
      <point x="983.609375" y="580.745117188"/>
      <point x="983.609375" y="340.94921875" type="curve" smooth="yes"/>
      <point x="983.609375" y="145.778320312"/>
      <point x="849.256835938" y="87.2880859375"/>
      <point x="795.495117188" y="54.2138671875" type="curve" smooth="yes"/>
      <point x="778.591796875" y="43.8154296875"/>
      <point x="711.904296875" y="4.7314453125"/>
      <point x="686.203125" y="4.7314453125" type="curve" smooth="yes"/>
      <point x="654.23046875" y="4.7314453125"/>
      <point x="382.518554688" y="120.165039062"/>
    </contour>
    <contour>
      <point x="321.588867188" y="293.73828125" type="curve" smooth="yes"/>
      <point x="214.369140625" y="293.73828125"/>
      <point x="110.849609375" y="334.076171875"/>
      <point x="110.849609375" y="442.588867188" type="curve" smooth="yes"/>
      <point x="110.849609375" y="517.526450464"/>
      <point x="173.27233442" y="602.0390625"/>
      <point x="270.9296875" y="602.0390625" type="curve" smooth="yes"/>
      <point x="284.81640625" y="602.0390625"/>
      <point x="298.701171875" y="600.20703125"/>
      <point x="312.092773438" y="596.529296875" type="curve"/>
      <point x="337.560546875" y="550.087890625" type="line"/>
      <point x="329.931640625" y="556.487304688"/>
      <point x="319.971679688" y="559.971679688"/>
      <point x="310.02734375" y="559.971679688" type="curve" smooth="yes"/>
      <point x="285.455078125" y="559.971679688"/>
      <point x="267.608398438" y="540.93359375"/>
      <point x="267.608398438" y="515.569335938" type="curve" smooth="yes"/>
      <point x="267.608398438" y="476.288085938"/>
      <point x="313.044921875" y="422.302734375"/>
      <point x="400.7265625" y="422.302734375" type="curve" smooth="yes"/>
      <point x="469.791015625" y="422.302734375"/>
      <point x="553.310546875" y="452.723632812"/>
      <point x="630.220703125" y="452.723632812" type="curve" smooth="yes"/>
      <point x="704.015625" y="452.723632812"/>
      <point x="760.83203125" y="414.546875"/>
      <point x="760.83203125" y="339.486328125" type="curve" smooth="yes"/>
      <point x="760.83203125" y="271.231445312"/>
      <point x="724.790039062" y="257.915039062"/>
      <point x="624.448242188" y="132.116210938" type="curve"/>
      <point x="536.060546875" y="168.0703125" type="line"/>
      <point x="537.19140625" y="169.092773438"/>
      <point x="602.88671875" y="227.052734375"/>
      <point x="602.88671875" y="266.97265625" type="curve" smooth="yes"/>
      <point x="602.88671875" y="306.120117188"/>
      <point x="560.640625" y="323.401367188"/>
      <point x="521.491210938" y="323.401367188" type="curve" smooth="yes"/>
      <point x="472.427734375" y="323.401367188"/>
      <point x="410.396484375" y="293.73828125"/>
    </contour>
  </outline>
</glyph>
<glyph name="T" format="2">
  <advance width="1063"/>
  <unicode hex="0054"/>
  <outline>
    <contour>
      <point x="431.485398093" y="46.0184778362" type="curve" smooth="yes"/>
      <point x="316.060528927" y="46.0184778362"/>
      <point x="206.800094614" y="-6.91213281522"/>
      <point x="152.0" y="-43.0" type="curve"/>
      <point x="108.0" y="0.0" type="line"/>
      <point x="180.0" y="80.0"/>
      <point x="250.0" y="122.0"/>
      <point x="302.0" y="145.0" type="curve"/>
      <point x="341.0" y="183.0"/>
      <point x="377.0" y="234.0"/>
      <point x="378.0" y="306.0" type="curve"/>
      <point x="358.194909032" y="335.125133777"/>
      <point x="300.549252067" y="399.814211889"/>
      <point x="198.4872772" y="399.814211889" type="curve" smooth="yes"/>
      <point x="180.48008251" y="399.814211889"/>
      <point x="166.257146074" y="397.651429215"/>
      <point x="158.0" y="396.0" type="curve"/>
      <point x="140.0" y="421.0" type="line"/>
      <point x="202.363807233" y="466.159998341"/>
      <point x="293.542265987" y="516.677534647"/>
      <point x="369.0" y="543.0" type="curve"/>
      <point x="387.0" y="582.0"/>
      <point x="421.0" y="628.0"/>
      <point x="481.0" y="677.0" type="curve"/>
      <point x="175.0" y="677.0"/>
      <point x="116.025250632" y="649.700561928"/>
      <point x="53.0" y="536.0" type="curve"/>
      <point x="19.0" y="565.0" type="line"/>
      <point x="89.961334428" y="695.095779785"/>
      <point x="237.431283921" y="819.754668556"/>
      <point x="472.282887606" y="819.754668556" type="curve" smooth="yes"/>
      <point x="737.18634772" y="819.754668556"/>
      <point x="862.650002095" y="717.100001397"/>
      <point x="1002.0" y="810.0" type="curve"/>
      <point x="1028.0" y="778.0" type="line"/>
      <point x="1023.25761095" y="744.803276659"/>
      <point x="995.904413177" y="629.726103294"/>
      <point x="857.0" y="595.0" type="curve"/>
      <point x="786.0" y="624.0"/>
      <point x="721.0" y="643.0"/>
      <point x="664.0" y="655.0" type="curve"/>
      <point x="664.0" y="186.0" type="line"/>
      <point x="773.802278994" y="177.265727807"/>
      <point x="849.350624906" y="154.928584885"/>
      <point x="882.591616795" y="154.928584885" type="curve" smooth="yes"/>
      <point x="925.045367283" y="154.928584885"/>
      <point x="967.673729395" y="179.673729395"/>
      <point x="987.0" y="199.0" type="curve"/>
      <point x="1041.0" y="200.0" type="line"/>
      <point x="1033.03997093" y="175.32390988"/>
      <point x="994.91193777" y="64.1152970322"/>
      <point x="885.0" y="0.0" type="curve"/>
      <point x="857.350068461" y="3.39102933964"/>
      <point x="498.59567467" y="46.0184778362"/>
    </contour>
    <contour>
      <point x="492.0" y="191.0" type="curve"/>
      <point x="512.167199387" y="192.59214732"/>
      <point x="549.361981688" y="194.489944953"/>
      <point x="603.0" y="193.0" type="curve"/>
      <point x="603.0" y="669.0" type="line"/>
      <point x="594.0" y="670.0" type="line"/>
      <point x="555.845616733" y="637.950318056"/>
      <point x="508.936707438" y="579.689256691"/>
      <point x="508.936707438" y="502.672154981" type="curve" smooth="yes"/>
      <point x="508.936707438" y="406.431455561"/>
      <point x="565.544597627" y="329.436889651"/>
    </contour>
  </outline>
</glyph>
<glyph name="V" format="2">
  <advance width="885"/>
  <unicode hex="0056"/>
  <outline>
    <contour>
      <point x="117.0" y="197.0" type="line"/>
      <point x="117.0" y="197.0"/>
      <point x="56.0" y="293.0"/>
      <point x="27.0" y="293.0" type="curve"/>
      <point x="27.0" y="324.0" type="line"/>
      <point x="42.6982421875" y="317.618164062"/>
      <point x="118.0" y="394.0"/>
      <point x="118.0" y="394.0" type="curve"/>
    </contour>
    <contour>
      <point x="106.0" y="401.0" type="line"/>
      <point x="27.0" y="480.0" type="line"/>
      <point x="116.0" y="541.0" type="line"/>
    </contour>
    <contour>
      <point x="429.0" y="216.0" type="line"/>
      <point x="390.0" y="279.0" type="line"/>
      <point x="689.0" y="466.0" type="line"/>
      <point x="728.0" y="404.0" type="line"/>
    </contour>
    <contour>
      <point x="438.0" y="706.0" type="line"/>
      <point x="438.0" y="100.0" type="line"/>
      <point x="368.0" y="100.0" type="line"/>
      <point x="368.0" y="683.0" type="line"/>
    </contour>
    <contour>
      <point x="425.0" y="377.0" type="line"/>
      <point x="386.0" y="440.0" type="line"/>
      <point x="685.0" y="628.0" type="line"/>
      <point x="725.0" y="565.0" type="line"/>
    </contour>
    <contour>
      <point x="86.0" y="99.0" type="line"/>
      <point x="86.0" y="647.0" type="line"/>
      <point x="48.0" y="681.0" type="line"/>
      <point x="0.0" y="641.0" type="line"/>
      <point x="-30.0" y="669.0" type="line"/>
      <point x="172.0" y="832.0" type="line"/>
      <point x="297.0" y="732.0" type="line"/>
      <point x="297.0" y="72.0" type="line"/>
    </contour>
    <contour>
      <point x="271.0" y="672.0" type="curve"/>
      <point x="588.0" y="853.0" type="line"/>
      <point x="764.181640625" y="783.346679688"/>
      <point x="865.192382812" y="661.994140625"/>
      <point x="865.192382812" y="360.06640625" type="curve" smooth="yes"/>
      <point x="865.192382812" y="279.991210938"/>
      <point x="852.28515625" y="215.879882812"/>
      <point x="842.0" y="171.0" type="curve"/>
      <point x="541.0" y="-36.0" type="line"/>
      <point x="86.0" y="99.0" type="line"/>
      <point x="126.076171875" y="134.06640625"/>
      <point x="166.15234375" y="207.47265625"/>
      <point x="206.810546875" y="207.47265625" type="curve" smooth="yes"/>
      <point x="232.0" y="207.47265625"/>
      <point x="550.0" y="94.0"/>
      <point x="550.0" y="94.0" type="curve"/>
      <point x="672.0" y="182.0" type="line"/>
      <point x="672.0" y="182.0"/>
      <point x="685.166015625" y="241.095703125"/>
      <point x="685.166015625" y="335.989257812" type="curve" smooth="yes"/>
      <point x="685.166015625" y="504.645915029"/>
      <point x="670.726066036" y="711.102539062"/>
      <point x="502.99609375" y="711.102539062" type="curve" smooth="yes"/>
      <point x="463.32415946" y="711.102539062"/>
      <point x="266.0" y="585.0"/>
      <point x="266.0" y="585.0" type="curve"/>
      <point x="266.0" y="615.0"/>
      <point x="271.0" y="640.0"/>
    </contour>
  </outline>
</glyph>
<glyph name="W" format="2">
  <advance width="1210"/>
  <unicode hex="0057"/>
  <outline>
    <contour>
      <point x="754.0" y="216.0" type="line"/>
      <point x="715.0" y="279.0" type="line"/>
      <point x="1015.0" y="466.0" type="line"/>
      <point x="1054.0" y="404.0" type="line"/>
    </contour>
    <contour>
      <point x="763.0" y="706.0" type="line"/>
      <point x="763.0" y="142.0" type="line"/>
      <point x="694.0" y="142.0" type="line"/>
      <point x="694.0" y="683.0" type="line"/>
    </contour>
    <contour>
      <point x="750.0" y="377.0" type="line"/>
      <point x="711.0" y="440.0" type="line"/>
      <point x="1011.0" y="628.0" type="line"/>
      <point x="1050.0" y="565.0" type="line"/>
    </contour>
    <contour>
      <point x="120.0" y="832.0" type="line"/>
      <point x="164.128600064" y="824.93942399"/>
      <point x="252.611896532" y="804.397633262"/>
      <point x="309.0" y="707.0" type="curve"/>
      <point x="309.0" y="157.0" type="line"/>
      <point x="251.0" y="155.0"/>
      <point x="192.0" y="155.0"/>
      <point x="134.0" y="155.0" type="curve"/>
      <point x="134.0" y="463.892578125" type="line" smooth="yes"/>
      <point x="134.0" y="624.0"/>
      <point x="117.7890625" y="640.90625"/>
      <point x="101.802734375" y="640.90625" type="curve" smooth="yes"/>
      <point x="86.96875" y="640.90625"/>
      <point x="77.0" y="633.0"/>
      <point x="69.0" y="621.0" type="curve"/>
      <point x="51.0" y="632.0"/>
      <point x="35.0" y="640.0"/>
      <point x="19.0" y="651.0" type="curve"/>
    </contour>
    <contour>
      <point x="180.0" y="314.0" type="curve"/>
      <point x="177.265482957" y="320.562840904"/>
      <point x="152.889030622" y="388.730138483"/>
      <point x="60.0" y="402.0" type="curve"/>
      <point x="80.9313367462" y="496.191015358"/>
      <point x="166.623813587" y="493.087298983"/>
      <point x="212.0" y="464.0" type="curve"/>
      <point x="200.0" y="413.0"/>
      <point x="191.0" y="363.0"/>
    </contour>
    <contour>
      <point x="48.958963251" y="98.9962857123" type="curve" smooth="yes"/>
      <point x="48.958963251" y="183.535153672"/>
      <point x="156.338542457" y="200.174272827"/>
      <point x="195.494908735" y="200.174272827" type="curve" smooth="yes"/>
      <point x="278.810607997" y="200.174272827"/>
      <point x="343.616369849" y="142.61454013"/>
      <point x="356.0" y="132.0" type="curve"/>
      <point x="452.0" y="188.0" type="line"/>
      <point x="452.0" y="647.0" type="line"/>
      <point x="407.0" y="702.0" type="line"/>
      <point x="265.0" y="614.0" type="line"/>
      <point x="252.0" y="666.0" type="line"/>
      <point x="497.0" y="832.0" type="line"/>
      <point x="623.0" y="732.0" type="line"/>
      <point x="623.0" y="162.0" type="line"/>
      <point x="356.0" y="-6.0" type="line"/>
      <point x="269.274415952" y="19.3830977701"/>
      <point x="202.344683729" y="67.5589513538"/>
      <point x="152.289598574" y="67.5589513538" type="curve" smooth="yes"/>
      <point x="126.452246218" y="67.5589513538"/>
      <point x="95.9749356636" y="57.9862765583"/>
      <point x="95.9749356636" y="26.473162088" type="curve" smooth="yes"/>
      <point x="95.9749356636" y="11.006353623"/>
      <point x="102.617086445" y="-3.23417289006"/>
      <point x="104.0" y="-6.0" type="curve"/>
      <point x="76.0" y="-9.0" type="line"/>
      <point x="67.2380558836" y="10.9135093554"/>
      <point x="48.958963251" y="59.3784642596"/>
    </contour>
    <contour>
      <point x="596.0" y="672.0" type="curve"/>
      <point x="701.424190205" y="720.128434659"/>
      <point x="826.361187509" y="792.855716918"/>
      <point x="914.0" y="853.0" type="curve"/>
      <point x="1088.42887202" y="784.039748271"/>
      <point x="1191.19241788" y="661.366100704"/>
      <point x="1191.19241788" y="360.06685582" type="curve" smooth="yes"/>
      <point x="1191.19241788" y="279.991672869"/>
      <point x="1178.28489756" y="215.879552994"/>
      <point x="1168.0" y="171.0" type="curve"/>
      <point x="866.0" y="-36.0" type="line"/>
      <point x="443.0" y="97.0" type="line"/>
      <point x="485.730846034" y="134.38949028"/>
      <point x="521.329171745" y="229.631645406"/>
      <point x="568.843641368" y="229.631645406" type="curve" smooth="yes"/>
      <point x="596.491718141" y="229.631645406"/>
      <point x="832.210406261" y="116.120516425"/>
      <point x="876.0" y="94.0" type="curve"/>
      <point x="997.0" y="182.0" type="line"/>
      <point x="997.0" y="182.0"/>
      <point x="1009.82686981" y="240.637119114"/>
      <point x="1009.82686981" y="334.958011372" type="curve" smooth="yes"/>
      <point x="1009.82686981" y="498.88128127"/>
      <point x="988.785068023" y="722.413085938"/>
      <point x="834.782226562" y="722.413085938" type="curve" smooth="yes"/>
      <point x="791.581054688" y="722.413085938"/>
      <point x="767.0" y="691.0"/>
      <point x="591.0" y="585.0" type="curve"/>
      <point x="591.0" y="615.0"/>
      <point x="596.0" y="640.0"/>
    </contour>
  </outline>
</glyph>
<glyph name="X" format="2">
  <advance width="692"/>
  <unicode hex="0058"/>
  <outline>
    <contour>
      <point x="174.974635043" y="676.016063771" type="curve" smooth="yes"/>
      <point x="141.873061728" y="676.016063771"/>
      <point x="125.086266061" y="624.089339542"/>
      <point x="70.0704676349" y="624.089339542" type="curve" smooth="yes"/>
      <point x="49.2921099245" y="624.089339542"/>
      <point x="31.8029846314" y="632.255437353"/>
      <point x="20.0" y="639.0" type="curve"/>
      <point x="73.0" y="709.0"/>
      <point x="125.0" y="778.0"/>
      <point x="178.0" y="848.0" type="curve"/>
      <point x="349.432046354" y="848.0"/>
      <point x="434.240929955" y="748.675578335"/>
      <point x="434.240929955" y="505.199273943" type="curve" smooth="yes"/>
      <point x="434.240929955" y="414.566186561"/>
      <point x="415.600192725" y="351.210255268"/>
      <point x="415.600192725" y="299.108378273" type="curve" smooth="yes"/>
      <point x="415.600192725" y="216.456558695"/>
      <point x="484.433262316" y="161.76826179"/>
      <point x="535.849793023" y="161.76826179" type="curve" smooth="yes"/>
      <point x="578.821837014" y="161.76826179"/>
      <point x="606.551848887" y="194.452259751"/>
      <point x="616.0" y="206.0" type="curve"/>
      <point x="650.0" y="188.0" type="line"/>
      <point x="496.0" y="4.0" type="line"/>
      <point x="486.125859774" y="2.48090150368"/>
      <point x="472.35754289" y="0.817574242257"/>
      <point x="456.064409975" y="0.817574242257" type="curve" smooth="yes"/>
      <point x="292.186968873" y="0.817574242257"/>
      <point x="230.693187155" y="161.822616519"/>
      <point x="230.693187155" y="271.129255821" type="curve" smooth="yes"/>
      <point x="230.693187155" y="361.711883786"/>
      <point x="258.316384857" y="420.0"/>
      <point x="258.316384857" y="531.382862726" type="curve" smooth="yes"/>
      <point x="258.316384857" y="650.0"/>
      <point x="222.508007781" y="676.016063771"/>
    </contour>
    <contour>
      <point x="347.0" y="632.0" type="line"/>
      <point x="489.0" y="817.0" type="line"/>
      <point x="499.514884523" y="820.504961508"/>
      <point x="521.331743802" y="827.94104467"/>
      <point x="549.972588062" y="827.94104467" type="curve" smooth="yes"/>
      <point x="606.522005772" y="827.94104467"/>
      <point x="658.901542906" y="790.098457094"/>
      <point x="674.0" y="775.0" type="curve"/>
      <point x="651.0" y="727.0"/>
      <point x="627.0" y="679.0"/>
      <point x="604.0" y="631.0" type="curve"/>
      <point x="527.444349323" y="631.0"/>
      <point x="540.0" y="678.0"/>
      <point x="482.0" y="678.0" type="curve" smooth="yes"/>
      <point x="456.023166957" y="678.0"/>
      <point x="393.897793578" y="601.868591743"/>
      <point x="359.0" y="557.0" type="curve"/>
    </contour>
    <contour>
      <point x="312.0" y="148.0" type="line"/>
      <point x="263.0" y="84.0"/>
      <point x="239.0" y="51.0"/>
      <point x="49.0" y="-158.0" type="curve"/>
      <point x="19.0" y="-98.0" type="line"/>
      <point x="259.0" y="258.0" type="line"/>
    </contour>
    <contour>
      <point x="586.0" y="447.0" type="line"/>
      <point x="80.0" y="449.0" type="line"/>
      <point x="80.0" y="522.0" type="line"/>
      <point x="586.0" y="520.0" type="line"/>
    </contour>
    <contour>
      <point x="586.0" y="327.0" type="line"/>
      <point x="80.0" y="329.0" type="line"/>
      <point x="80.0" y="402.0" type="line"/>
      <point x="586.0" y="400.0" type="line"/>
    </contour>
  </outline>
</glyph>
<glyph name="Y" format="2">
  <advance width="832"/>
  <unicode hex="0059"/>
  <outline>
    <contour>
      <point x="51.0" y="0.0" type="line"/>
      <point x="19.0" y="75.0" type="line"/>
      <point x="761.0" y="391.0" type="line"/>
      <point x="793.0" y="317.0" type="line"/>
    </contour>
    <contour>
      <point x="100.0" y="736.0" type="curve" smooth="yes"/>
      <point x="323.0" y="835.0" type="line"/>
      <point x="375.0" y="783.0" type="line"/>
      <point x="375.0" y="215.0" type="line"/>
      <point x="171.0" y="125.0" type="line"/>
      <point x="171.0" y="658.0" type="line" smooth="yes"/>
      <point x="171.0" y="658.0"/>
      <point x="102.0" y="738.0"/>
    </contour>
    <contour>
      <point x="199.0" y="243.0" type="line"/>
      <point x="197.428710938" y="246.404296875"/>
      <point x="183.186523438" y="285.033203125"/>
      <point x="109.0" y="340.0" type="curve"/>
      <point x="109.0" y="371.0" type="line"/>
      <point x="170.465820312" y="387.549804688"/>
      <point x="195.432617188" y="437.73828125"/>
      <point x="200.0" y="441.0" type="curve"/>
    </contour>
    <contour>
      <point x="188.0" y="448.0" type="line"/>
      <point x="109.0" y="527.0" type="line"/>
      <point x="198.0" y="587.0" type="line"/>
    </contour>
    <contour>
      <point x="414.0" y="194.0" type="line"/>
      <point x="414.0" y="694.0" type="line"/>
      <point x="479.0" y="694.0" type="line"/>
      <point x="479.0" y="194.0" type="line"/>
    </contour>
    <contour>
      <point x="459.0" y="347.0" type="line"/>
      <point x="431.0" y="406.0" type="line"/>
      <point x="725.0" y="546.0" type="line"/>
      <point x="753.0" y="487.0" type="line"/>
    </contour>
    <contour>
      <point x="452.0" y="485.0" type="line"/>
      <point x="424.0" y="543.0" type="line"/>
      <point x="718.0" y="683.0" type="line"/>
      <point x="746.0" y="625.0" type="line"/>
    </contour>
    <contour>
      <point x="645.0" y="322.0" type="line"/>
      <point x="645.0" y="669.0" type="line"/>
      <point x="566.0" y="727.0" type="line"/>
      <point x="445.0" y="641.0" type="line"/>
      <point x="422.0" y="686.0" type="line"/>
      <point x="637.0" y="835.0" type="line"/>
      <point x="665.0" y="835.0" type="line"/>
      <point x="793.0" y="749.0" type="line"/>
      <point x="793.0" y="319.0" type="line"/>
    </contour>
    <contour>
      <point x="339.0" y="631.0" type="line"/>
      <point x="339.0" y="694.0" type="line"/>
      <point x="422.0" y="694.0" type="line"/>
      <point x="422.0" y="631.0" type="line"/>
    </contour>
  </outline>
</glyph>
<glyph name="Z" format="2">
  <advance width="1043"/>
  <unicode hex="005A"/>
  <outline>
    <contour>
      <point x="319.0" y="188.0" type="line"/>
      <point x="383.000455113" y="202.080100125"/>
      <point x="615.72020827" y="246.110621615"/>
      <point x="847.144880164" y="246.110621615" type="curve" smooth="yes"/>
      <point x="949.993070067" y="246.110621615"/>
      <point x="1019.84277344" y="236.680664062"/>
      <point x="1037.0" y="234.0" type="curve"/>
      <point x="924.0" y="18.0" type="line"/>
      <point x="911.833984375" y="24.0830078125"/>
      <point x="857.423428589" y="47.5127268881"/>
      <point x="743.23941305" y="47.5127268881" type="curve" smooth="yes"/>
      <point x="650.683286442" y="47.5127268881"/>
      <point x="114.59375" y="5.2353515625"/>
      <point x="24.0" y="-3.0" type="curve"/>
      <point x="24.0" y="86.0" type="line"/>
      <point x="778.0" y="668.0" type="line"/>
      <point x="624.20086762" y="640.94990134"/>
      <point x="382.0" y="614.471111111"/>
      <point x="199.712592593" y="614.471111111" type="curve" smooth="yes"/>
      <point x="140.760913659" y="614.471111111"/>
      <point x="82.0" y="620.0"/>
      <point x="49.0" y="636.0" type="curve"/>
      <point x="155.0" y="836.0" type="line"/>
      <point x="203.275390625" y="812.470703125"/>
      <point x="278.456915934" y="806.731646178"/>
      <point x="382.042758178" y="806.731646178" type="curve" smooth="yes"/>
      <point x="525.673351243" y="806.731646178"/>
      <point x="779.868329805" y="812.207592201"/>
      <point x="985.0" y="835.0" type="curve"/>
      <point x="1022.0" y="765.0" type="line"/>
    </contour>
  </outline>
</glyph>
<glyph name="bracketright" format="2">
  <advance width="276"/>
  <unicode hex="005D"/>
  <outline>
    <contour>
      <point x="-1.0" y="-123.0" type="line"/>
      <point x="-1.0" y="-152.0" type="line"/>
      <point x="247.0" y="-152.0" type="line"/>
      <point x="276.0" y="-152.0" type="line"/>
      <point x="276.0" y="-123.0" type="line"/>
      <point x="276.0" y="777.0" type="line"/>
      <point x="276.0" y="806.0" type="line"/>
      <point x="247.0" y="806.0" type="line"/>
      <point x="-1.0" y="806.0" type="line"/>
      <point x="-1.0" y="777.0" type="line"/>
      <point x="-1.0" y="748.0" type="line"/>
      <point x="218.0" y="748.0" type="line"/>
      <point x="218.0" y="-94.0" type="line"/>
      <point x="-1.0" y="-94.0" type="line"/>
    </contour>
  </outline>
</glyph>
<glyph name="asciicircum" format="2">
  <advance width="376"/>
  <unicode hex="005E"/>
  <outline>
    <contour>
      <point x="10.0" y="614.0" type="line"/>
      <point x="62.0" y="570.0" type="line"/>
      <point x="156.0" y="679.0" type="line"/>
      <point x="277.0" y="563.0" type="line" smooth="yes"/>
      <point x="352.0" y="683.0" type="line" smooth="yes"/>
      <point x="201.0" y="836.0" type="line"/>
    </contour>
  </outline>
</glyph>
<glyph name="a" format="2">
  <advance width="494"/>
  <unicode hex="0061"/>
  <outline>
    <contour>
      <point x="367.507616903" y="-1.70476998182" type="curve" smooth="yes"/>
      <point x="278.895892787" y="-1.70476998182"/>
      <point x="271.987873623" y="180.475270745"/>
      <point x="271.987873623" y="311.346769793" type="curve" smooth="yes"/>
      <point x="271.987873623" y="370.363931379"/>
      <point x="274.715634504" y="419.734517566"/>
      <point x="276.0" y="439.0" type="curve"/>
      <point x="154.0" y="526.0" type="line"/>
      <point x="55.0" y="451.0" type="line"/>
      <point x="47.0" y="466.0"/>
      <point x="40.0" y="482.0"/>
      <point x="32.0" y="497.0" type="curve"/>
      <point x="90.3736432368" y="533.280232428"/>
      <point x="167.244627355" y="595.416065417"/>
      <point x="209.0" y="641.0" type="curve"/>
      <point x="238.0" y="641.0" type="line"/>
      <point x="238.0" y="641.0"/>
      <point x="349.56462585" y="559.367346939"/>
      <point x="373.14739229" y="559.367346939" type="curve" smooth="yes"/>
      <point x="389.214146499" y="559.367346939"/>
      <point x="398.760639424" y="596.577264582"/>
      <point x="415.506543312" y="596.577264582" type="curve" smooth="yes"/>
      <point x="426.73021272" y="596.577264582"/>
      <point x="434.506736832" y="583.293734746"/>
      <point x="434.506736832" y="570.660644074" type="curve" smooth="yes"/>
      <point x="434.506736832" y="527.728054728"/>
      <point x="406.0" y="520.412961804"/>
      <point x="406.0" y="434.625" type="curve" smooth="yes"/>
      <point x="406.0" y="382.794790118"/>
      <point x="406.200203613" y="118.816649699"/>
      <point x="440.0" y="116.0" type="curve" smooth="yes"/>
      <point x="449.189189189" y="116.0"/>
      <point x="456.689554419" y="130.355003652"/>
      <point x="464.052987977" y="130.355003652" type="curve" smooth="yes"/>
      <point x="471.516390411" y="130.355003652"/>
      <point x="472.049382716" y="118.069883964"/>
      <point x="472.049382716" y="112.043895748" type="curve" smooth="yes"/>
      <point x="472.049382716" y="62.434837783"/>
      <point x="440.11879863" y="-1.70476998182"/>
    </contour>
    <contour>
      <point x="194.0" y="339.0" type="curve"/>
      <point x="159.695190984" y="298.22258551"/>
      <point x="141.729284405" y="251.160977775"/>
      <point x="141.729284405" y="208.119536374" type="curve" smooth="yes"/>
      <point x="141.729284405" y="150.5444518"/>
      <point x="178.51960466" y="108.147576495"/>
      <point x="213.0" y="90.0" type="curve"/>
      <point x="213.0" y="90.0"/>
      <point x="345.551384339" y="203.488528294"/>
      <point x="345.0" y="203.0" type="curve"/>
      <point x="345.0" y="191.0"/>
      <point x="344.0" y="178.0"/>
      <point x="344.0" y="166.0" type="curve"/>
      <point x="153.0" y="-7.0" type="line"/>
      <point x="141.369707707" y="-3.7693632519"/>
      <point x="17.2056565004" y="22.9255596807"/>
      <point x="17.2056565004" y="174.060219416" type="curve" smooth="yes"/>
      <point x="17.2056565004" y="257.190414903"/>
      <point x="74.9749658783" y="363.009642156"/>
      <point x="141.881567995" y="363.009642156" type="curve" smooth="yes"/>
      <point x="151.254103573" y="363.009642156"/>
      <point x="169.277987814" y="361.661844504"/>
    </contour>
    <contour>
      <point x="294.0" y="295.0" type="curve"/>
      <point x="232.964180145" y="305.463283404"/>
      <point x="80.923828125" y="362.459960938"/>
      <point x="32.0" y="497.0" type="curve"/>
      <point x="49.0" y="499.0"/>
      <point x="58.0" y="502.0"/>
      <point x="75.0" y="504.0" type="curve"/>
      <point x="87.76953125" y="469.522460938"/>
      <point x="155.156021582" y="349.537995375"/>
      <point x="307.0" y="317.0" type="curve"/>
      <point x="301.0" y="309.0"/>
      <point x="297.0" y="302.0"/>
    </contour>
  </outline>
</glyph>
<glyph name="d" format="2">
  <advance width="489"/>
  <unicode hex="0064"/>
  <outline>
    <contour>
      <point x="41.0" y="505.0" type="line"/>
      <point x="178.0" y="582.0" type="line"/>
      <point x="178.0" y="170.0" type="line"/>
      <point x="243.146937962" y="119.105344891"/>
      <point x="314.797918472" y="123.97918472"/>
      <point x="316.0" y="136.0" type="curve" smooth="yes"/>
      <point x="315.0" y="488.0" type="line"/>
      <point x="-6.0" y="668.0" type="line"/>
      <point x="55.0" y="788.0" type="line" smooth="yes"/>
      <point x="450.0" y="575.0" type="line"/>
      <point x="454.0" y="102.0" type="line"/>
      <point x="403.962087228" y="88.8316984996"/>
      <point x="339.421291007" y="71.10801915"/>
      <point x="262.0" y="-10.0" type="curve"/>
      <point x="235.301960933" y="7.45641015928"/>
      <point x="159.97609892" y="59.0"/>
      <point x="41.0" y="59.0" type="curve"/>
    </contour>
  </outline>
</glyph>
<glyph name="f" format="2">
  <advance width="450"/>
  <unicode hex="0066"/>
  <outline>
    <contour>
      <point x="275.00347526" y="589.644461393" type="curve" smooth="yes"/>
      <point x="289.331386793" y="589.644461393"/>
      <point x="293.740986777" y="614.0"/>
      <point x="306.0" y="614.0" type="curve" smooth="yes"/>
      <point x="313.974554999" y="614.0"/>
      <point x="326.153640739" y="599.284142411"/>
      <point x="326.153640739" y="574.805613609" type="curve" smooth="yes"/>
      <point x="326.153640739" y="565.51877032"/>
      <point x="324.400647273" y="554.826739547"/>
      <point x="320.0" y="543.0" type="curve" smooth="yes"/>
      <point x="304.0" y="502.0"/>
      <point x="291.0" y="474.0"/>
      <point x="275.0" y="474.0" type="curve" smooth="yes"/>
      <point x="269.0" y="474.0"/>
      <point x="243.0" y="492.0"/>
      <point x="179.0" y="495.0" type="curve" smooth="yes"/>
      <point x="159.636363636" y="495.818181818"/>
      <point x="139.082644628" y="496.115702479"/>
      <point x="119.428249437" y="496.115702479" type="curve" smooth="yes"/>
      <point x="67.0165289256" y="496.115702479"/>
      <point x="21.0" y="494.0"/>
      <point x="21.0" y="494.0" type="curve"/>
      <point x="19.0" y="570.0" type="line"/>
      <point x="19.0" y="570.0"/>
      <point x="101.344387355" y="603.042519216"/>
      <point x="174.158064323" y="603.042519216" type="curve" smooth="yes"/>
      <point x="236.760769071" y="603.042519216"/>
      <point x="262.854189378" y="589.644461393"/>
    </contour>
    <contour>
      <point x="430.0" y="788.0" type="curve"/>
      <point x="426.024813052" y="772.099252208"/>
      <point x="374.3587178" y="679.086384351"/>
      <point x="345.464286459" y="679.086384351" type="curve"/>
      <point x="340.0" y="682.0" type="line"/>
      <point x="316.527893201" y="716.697897007"/>
      <point x="209.0" y="751.624158301"/>
      <point x="209.0" y="711.0" type="curve" smooth="yes"/>
      <point x="209.0" y="89.0" type="line"/>
      <point x="81.0" y="89.0" type="line"/>
      <point x="81.0" y="715.0" type="line" smooth="yes"/>
      <point x="81.0" y="804.089534722"/>
      <point x="200.916896863" y="823.851927763"/>
      <point x="296.993846073" y="823.851927763" type="curve" smooth="yes"/>
      <point x="346.911487041" y="823.851927763"/>
      <point x="403.820879288" y="803.399482772"/>
    </contour>
    <contour>
      <point x="41.0" y="94.0" type="line"/>
      <point x="124.0" y="194.0" type="line"/>
      <point x="242.0" y="130.0" type="line"/>
      <point x="253.0" y="164.0" type="line"/>
      <point x="289.0" y="174.0" type="line"/>
      <point x="290.995196983" y="152.052833183"/>
      <point x="301.053585386" y="40.6450945199"/>
      <point x="182.0" y="-4.0" type="curve"/>
    </contour>
  </outline>
</glyph>
<glyph name="i" format="2">
  <advance width="295"/>
  <unicode hex="0069"/>
  <outline>
    <contour>
      <point x="231.939453125" y="131.0625" type="curve" smooth="yes"/>
      <point x="201.0" y="131.0625"/>
      <point x="189.0" y="153.0"/>
      <point x="189.0" y="257.0" type="curve" smooth="yes"/>
      <point x="189.0" y="529.0" type="line"/>
      <point x="121.0" y="603.0" type="line"/>
      <point x="21.0" y="514.0" type="line"/>
      <point x="58.0" y="469.0" type="line"/>
      <point x="58.0" y="74.0" type="line"/>
      <point x="142.0" y="-7.0" type="line"/>
      <point x="280.0" y="110.0" type="line"/>
      <point x="260.0" y="137.0" type="line"/>
      <point x="253.352539062" y="133.098632812"/>
      <point x="239.642578125" y="131.0625"/>
    </contour>
    <contour>
      <point x="144.530273438" y="642.833007812" type="curve" smooth="yes"/>
      <point x="133.899414062" y="642.833007812"/>
      <point x="128.176757812" y="653.603515625"/>
      <point x="128.176757812" y="658.052734375" type="curve" smooth="yes"/>
      <point x="128.176757812" y="682.061523438"/>
      <point x="206.149414062" y="778.71875"/>
      <point x="226.185546875" y="778.71875" type="curve" smooth="yes"/>
      <point x="238.23828125" y="778.71875"/>
      <point x="252.581054688" y="766.586914062"/>
      <point x="252.581054688" y="755.190429688" type="curve" smooth="yes"/>
      <point x="252.581054688" y="733.453125"/>
      <point x="166.787109375" y="642.833007812"/>
    </contour>
  </outline>
</glyph>
<glyph name="j" format="2">
  <advance width="301"/>
  <unicode hex="006A"/>
  <outline>
    <contour>
      <point x="121.530705544" y="642.832544551" type="curve" smooth="yes"/>
      <point x="110.899028882" y="642.832544551"/>
      <point x="105.17685402" y="653.603066194"/>
      <point x="105.17685402" y="658.052622552" type="curve" smooth="yes"/>
      <point x="105.17685402" y="682.061700847"/>
      <point x="183.149332666" y="778.718936025"/>
      <point x="203.185685776" y="778.718936025" type="curve" smooth="yes"/>
      <point x="215.237953256" y="778.718936025"/>
      <point x="229.581501411" y="766.587111216"/>
      <point x="229.581501411" y="755.190204496" type="curve" smooth="yes"/>
      <point x="229.581501411" y="733.453316522"/>
      <point x="143.787200402" y="642.832544551"/>
    </contour>
    <contour>
      <point x="-83.0" y="-119.0" type="line"/>
      <point x="-4.67801414023" y="-101.461531196"/>
      <point x="59.0" y="-47.0186666733"/>
      <point x="59.0" y="54.0" type="curve" smooth="yes"/>
      <point x="59.0" y="468.0" type="line"/>
      <point x="-11.0" y="524.0" type="line"/>
      <point x="69.0" y="614.0" type="line"/>
      <point x="168.0" y="538.0" type="line"/>
      <point x="210.0" y="576.0" type="line"/>
      <point x="247.0" y="550.0" type="line"/>
      <point x="195.0" y="502.0" type="line"/>
      <point x="195.0" y="116.0" type="line" smooth="yes"/>
      <point x="195.0" y="-38.6547487955"/>
      <point x="50.390664525" y="-126.007657748"/>
      <point x="-66.0" y="-150.0" type="curve"/>
    </contour>
  </outline>
</glyph>
<glyph name="k" format="2">
  <advance width="594"/>
  <unicode hex="006B"/>
  <outline>
    <contour>
      <point x="35.0" y="496.0" type="line"/>
      <point x="2.90457546495" y="546.755940969"/>
      <point x="24.0" y="571.0"/>
      <point x="24.0" y="571.0" type="curve"/>
      <point x="160.0" y="586.0" type="line"/>
      <point x="150.0" y="527.0" type="line"/>
    </contour>
    <contour>
      <point x="247.029296875" y="829.591796875" type="curve" smooth="yes"/>
      <point x="259.0" y="829.591796875"/>
      <point x="264.381888465" y="824.545115855"/>
      <point x="264.381888465" y="813.387747665" type="curve" smooth="yes"/>
      <point x="264.381888465" y="775.0"/>
      <point x="232.0" y="792.0"/>
      <point x="232.0" y="708.0" type="curve" smooth="yes"/>
      <point x="232.0" y="80.0" type="line"/>
      <point x="190.0" y="85.0"/>
      <point x="128.0" y="81.0"/>
      <point x="86.0" y="86.0" type="curve"/>
      <point x="85.5725992957" y="87.2822021129"/>
      <point x="85.3735377939" y="88.9754147904"/>
      <point x="85.3735377939" y="90.8063794918" type="curve" smooth="yes"/>
      <point x="85.3735377939" y="96.5579308677"/>
      <point x="87.3377904074" y="103.668759504"/>
      <point x="90.3587842883" y="103.668759504" type="curve" smooth="yes"/>
      <point x="90.876359315" y="103.668759504"/>
      <point x="91.4249524711" y="103.460038023"/>
      <point x="92.0" y="103.0" type="curve"/>
      <point x="92.0" y="719.0" type="line" smooth="yes"/>
      <point x="92.0" y="750.65234375"/>
      <point x="71.2860681152" y="758.124260355"/>
      <point x="58.2366863905" y="758.124260355" type="curve" smooth="yes"/>
      <point x="52.4378698225" y="758.124260355"/>
      <point x="47.0256410256" y="757.222222222"/>
      <point x="42.0" y="757.222222222" type="curve" smooth="yes"/>
      <point x="33.8265298944" y="757.222222222"/>
      <point x="19.4952711505" y="763.314876136"/>
      <point x="19.4952711505" y="786.782642575" type="curve" smooth="yes"/>
      <point x="19.4952711505" y="804.972529719"/>
      <point x="31.7658143088" y="817.875"/>
      <point x="50.6875" y="817.875" type="curve" smooth="yes"/>
      <point x="103.963549504" y="817.875"/>
      <point x="109.019765259" y="780.084883614"/>
      <point x="150.528184216" y="780.084883614" type="curve" smooth="yes"/>
      <point x="196.0" y="780.084883614"/>
      <point x="196.15625" y="829.591796875"/>
    </contour>
    <contour>
      <point x="42.6937385493" y="90.1186869835" type="curve" smooth="yes"/>
      <point x="42.6937385493" y="118.094857531"/>
      <point x="91.902565622" y="127.201768143"/>
      <point x="136.954484903" y="127.201768143" type="curve" smooth="yes"/>
      <point x="200.516575709" y="127.201768143"/>
      <point x="237.053173166" y="105.670927459"/>
      <point x="276.655572688" y="105.670927459" type="curve" smooth="yes"/>
      <point x="310.0" y="105.670927459"/>
      <point x="358.0" y="170.0"/>
      <point x="420.0" y="254.0" type="curve"/>
      <point x="440.0" y="240.0"/>
      <point x="459.0" y="227.0"/>
      <point x="479.0" y="213.0" type="curve"/>
      <point x="356.0" y="105.0"/>
      <point x="305.0" y="65.0"/>
      <point x="280.0" y="22.0" type="curve" smooth="yes"/>
      <point x="273.735670574" y="10.5153960519"/>
      <point x="257.144800912" y="-20.2197534942"/>
      <point x="231.861823394" y="-20.2197534942" type="curve" smooth="yes"/>
      <point x="206.448828754" y="-20.2197534942"/>
      <point x="135.068189573" y="63.2542062298"/>
      <point x="99.2985293083" y="63.2542062298" type="curve" smooth="yes"/>
      <point x="85.1625896725" y="63.2542062298"/>
      <point x="77.0730162626" y="53.7092366988"/>
      <point x="68.5987205523" y="53.7092366988" type="curve" smooth="yes"/>
      <point x="52.9108586051" y="53.7092366988"/>
      <point x="42.6937385493" y="73.4288530828"/>
    </contour>
    <contour>
      <point x="208.0" y="525.0" type="line"/>
      <point x="420.0" y="712.0" type="line"/>
      <point x="422.990013359" y="689.574899809"/>
      <point x="440.52908304" y="580.991400161"/>
      <point x="570.614531613" y="580.991400161" type="curve" smooth="yes"/>
      <point x="571.671324913" y="580.991400161"/>
      <point x="572.475409836" y="581.0"/>
      <point x="573.0" y="581.0" type="curve"/>
      <point x="527.38019368" y="468.47114441"/>
      <point x="407.187591184" y="496.40547494"/>
      <point x="419.0" y="396.0" type="curve"/>
      <point x="392.0" y="396.0" type="line"/>
      <point x="404.700721601" y="434.102164804"/>
      <point x="395.509200856" y="537.141896471"/>
      <point x="317.0" y="565.0" type="curve"/>
      <point x="208.0" y="478.0" type="line"/>
    </contour>
    <contour>
      <point x="496.0" y="0.0" type="curve"/>
      <point x="413.0" y="0.0" type="line"/>
      <point x="413.0" y="255.0"/>
      <point x="337.0" y="333.209451798"/>
      <point x="281.685786282" y="333.209451798" type="curve" smooth="yes"/>
      <point x="234.537917867" y="333.209451798"/>
      <point x="189.315933378" y="309.508851876"/>
      <point x="183.0" y="306.0" type="curve"/>
      <point x="191.0" y="368.0" type="line"/>
      <point x="289.711960267" y="395.547523796"/>
      <point x="330.134745562" y="434.113566292"/>
      <point x="370.787693701" y="434.113566292" type="curve" smooth="yes"/>
      <point x="523.0" y="434.113566292"/>
      <point x="475.963457128" y="200.575857151"/>
      <point x="576.0" y="145.0" type="curve"/>
      <point x="576.0" y="127.055407285"/>
      <point x="575.163085938" y="43.9794921875"/>
    </contour>
  </outline>
</glyph>
<glyph name="l" format="2">
  <advance width="309"/>
  <unicode hex="006C"/>
  <outline>
    <contour>
      <point x="230.0" y="162.0" type="line"/>
      <point x="249.0" y="143.0"/>
      <point x="266.0" y="131.0"/>
      <point x="294.0" y="131.0" type="curve"/>
      <point x="294.0" y="74.0"/>
      <point x="274.0" y="16.0"/>
      <point x="191.0" y="4.0" type="curve"/>
      <point x="67.0" y="92.0" type="line"/>
      <point x="92.0" y="117.0" type="line"/>
      <point x="92.0" y="487.0" type="line" smooth="yes"/>
      <point x="92.0" y="489.0"/>
      <point x="92.0" y="492.0"/>
      <point x="92.0" y="494.0" type="curve" smooth="yes"/>
      <point x="71.5932831166" y="508.284701818"/>
      <point x="59.8812914288" y="522.813548571"/>
      <point x="31.0" y="518.0" type="curve"/>
      <point x="31.0" y="541.0" type="line"/>
      <point x="57.5401156662" y="543.412737788"/>
      <point x="81.2549406365" y="543.509881273"/>
      <point x="90.0" y="561.0" type="curve"/>
      <point x="78.0" y="697.0"/>
      <point x="35.0" y="729.0"/>
      <point x="23.0" y="736.0" type="curve"/>
      <point x="33.0" y="763.0" type="line"/>
      <point x="53.066191144" y="759.655634809"/>
      <point x="108.517699061" y="749.985840751"/>
      <point x="156.0" y="712.0" type="curve"/>
      <point x="156.0" y="712.0"/>
      <point x="171.199406669" y="751.359822001"/>
      <point x="230.0" y="769.0" type="curve"/>
    </contour>
  </outline>
</glyph>
<glyph name="n" format="2">
  <advance width="584"/>
  <unicode hex="006E"/>
  <outline>
    <contour>
      <point x="19.0" y="515.0" type="line"/>
      <point x="127.0" y="617.0" type="line"/>
      <point x="221.681037433" y="617.0"/>
      <point x="240.186035166" y="580.106027042"/>
      <point x="223.0" y="148.0" type="curve"/>
      <point x="297.0" y="92.0" type="line"/>
      <point x="175.0" y="-7.0" type="line"/>
      <point x="55.0" y="98.0" type="line"/>
      <point x="60.766547946" y="101.844365297"/>
      <point x="94.0" y="118.911183273"/>
      <point x="94.0" y="169.0" type="curve" smooth="yes"/>
      <point x="94.0" y="468.0" type="line"/>
    </contour>
    <contour>
      <point x="509.047122047" y="479.830729331" type="curve" smooth="yes"/>
      <point x="509.047122047" y="357.987404361"/>
      <point x="499.518518519" y="276.934801274"/>
      <point x="499.518518519" y="199.126200274" type="curve" smooth="yes"/>
      <point x="499.518518519" y="131.0"/>
      <point x="526.263605524" y="122.245464825"/>
      <point x="563.0" y="110.0" type="curve" smooth="yes"/>
      <point x="564.446366488" y="109.517877837"/>
      <point x="565.117927043" y="108.402997497"/>
      <point x="565.117927043" y="106.760679639" type="curve" smooth="yes"/>
      <point x="565.117927043" y="88.0621657887"/>
      <point x="478.064688984" y="0.992835070218"/>
      <point x="456.335500401" y="0.992835070218" type="curve" smooth="yes"/>
      <point x="428.459355424" y="0.992835070218"/>
      <point x="378.470339685" y="67.1556225059"/>
      <point x="368.0" y="90.0" type="curve"/>
      <point x="368.0" y="430.0" type="line" smooth="yes"/>
      <point x="368.0" y="451.889539665"/>
      <point x="360.238301639" y="499.603923569"/>
      <point x="314.532270998" y="499.603923569" type="curve" smooth="yes"/>
      <point x="285.913382561" y="499.603923569"/>
      <point x="235.0" y="443.0"/>
      <point x="188.0" y="396.0" type="curve"/>
      <point x="178.0" y="434.0" type="line"/>
      <point x="387.0" y="627.0" type="line"/>
      <point x="481.148920427" y="579.925539787"/>
      <point x="509.047122047" y="501.924000928"/>
    </contour>
  </outline>
</glyph>
<glyph name="o" format="2">
  <advance width="503"/>
  <unicode hex="006F"/>
  <outline>
    <contour>
      <point x="51.94140625" y="126.676757812" type="curve" smooth="yes"/>
      <point x="51.94140625" y="486.875" type="line"/>
      <point x="74.3125754814" y="493.138032986"/>
      <point x="185.701955866" y="521.407308841"/>
      <point x="258.852539062" y="635.876953125" type="curve"/>
      <point x="283.72119788" y="603.742072877"/>
      <point x="362.785170643" y="513.896045449"/>
      <point x="464.146484375" y="498.358398438" type="curve"/>
      <point x="464.146484375" y="90.6669921875" type="line"/>
      <point x="417.445109154" y="73.0507838376"/>
      <point x="367.622383468" y="57.3619685243"/>
      <point x="257.213867188" y="-9.22265625" type="curve"/>
      <point x="249.871030496" y="-1.83418203916"/>
      <point x="164.561742619" y="83.9633071663"/>
      <point x="19.3544921875" y="67.7373046875" type="curve"/>
      <point x="19.3544921875" y="93.9423828125" type="line"/>
      <point x="38.1124574488" y="93.9423828125"/>
      <point x="51.94140625" y="106.327829697"/>
    </contour>
    <contour>
      <point x="329.0" y="408.291015625" type="line"/>
      <point x="224.640625" y="496.702148438" type="line"/>
      <point x="193.692382812" y="475.428710938" type="line"/>
      <point x="193.692382812" y="167.607421875" type="line"/>
      <point x="269.309270167" y="151.599290314"/>
      <point x="308.0" y="126.0"/>
      <point x="329.0" y="116.753192668" type="curve"/>
    </contour>
  </outline>
</glyph>
<glyph name="p" format="2">
  <advance width="489"/>
  <unicode hex="0070"/>
  <outline>
    <contour>
      <point x="86.1915142692" y="-159.679778163" type="curve" smooth="yes"/>
      <point x="67.0" y="-159.679778163"/>
      <point x="66.138453218" y="-159.0"/>
      <point x="66.138453218" y="-57.4476712742" type="curve" smooth="yes"/>
      <point x="66.138453218" y="88.6223197975"/>
      <point x="74.2285890312" y="400.620367929"/>
      <point x="22.0" y="520.0" type="curve"/>
      <point x="93.0" y="613.0" type="line"/>
      <point x="142.95388831" y="582.47262381"/>
      <point x="190.0" y="528.50370177"/>
      <point x="190.0" y="414.0" type="curve"/>
      <point x="190.0" y="414.0"/>
      <point x="193.0" y="135.0"/>
      <point x="206.0" y="-34.0" type="curve" smooth="yes"/>
      <point x="209.505136931" y="-69.0513693086"/>
      <point x="219.564811406" y="-110.173608555"/>
      <point x="270.0" y="-148.0" type="curve"/>
      <point x="247.333333333" y="-164.0"/>
      <point x="230.888888889" y="-168.888888889"/>
      <point x="219.185185185" y="-168.888888889" type="curve" smooth="yes"/>
      <point x="185.632746418" y="-168.888888889"/>
      <point x="184.158932392" y="-128.300011888"/>
      <point x="148.560892932" y="-128.300011888" type="curve" smooth="yes"/>
      <point x="123.092615011" y="-128.300011888"/>
      <point x="110.755404572" y="-159.679778163"/>
    </contour>
    <contour>
      <point x="122.0" y="401.0" type="line"/>
      <point x="295.0" y="619.0" type="line"/>
      <point x="433.0" y="520.0" type="line"/>
      <point x="449.418908113" y="471.769457419"/>
      <point x="469.047375097" y="396.261431881"/>
      <point x="469.047375097" y="305.94831918" type="curve" smooth="yes"/>
      <point x="469.047375097" y="224.577608636"/>
      <point x="454.523687548" y="157.507554318"/>
      <point x="440.0" y="112.0" type="curve"/>
      <point x="264.0" y="-1.0" type="line"/>
      <point x="19.0" y="74.0" type="line"/>
      <point x="37.8003570575" y="89.8318796274"/>
      <point x="99.6809100198" y="136.01571546"/>
      <point x="187.203123992" y="136.01571546" type="curve" smooth="yes"/>
      <point x="208.524284106" y="136.01571546"/>
      <point x="250.655255013" y="134.121399776"/>
      <point x="299.0" y="111.0" type="curve"/>
      <point x="326.0" y="118.0" type="line"/>
      <point x="335.72037194" y="166.6018597"/>
      <point x="346.448759758" y="242.830320444"/>
      <point x="346.448759758" y="310.238143523" type="curve" smooth="yes"/>
      <point x="346.448759758" y="391.0"/>
      <point x="319.0" y="461.0"/>
      <point x="265.0" y="510.0" type="curve"/>
      <point x="143.0" y="363.0" type="line"/>
    </contour>
  </outline>
</glyph>
<glyph name="q" format="2">
  <advance width="499"/>
  <unicode hex="0071"/>
  <outline>
    <contour>
      <point x="431.392240959" y="-96.7171955088" type="curve" smooth="yes"/>
      <point x="392.341432395" y="-96.7171955088"/>
      <point x="393.734209301" y="-144.551432649"/>
      <point x="351.948427485" y="-144.551432649" type="curve" smooth="yes"/>
      <point x="338.5659122" y="-144.551432649"/>
      <point x="325.629109946" y="-138.275716324"/>
      <point x="317.0" y="-132.0" type="curve"/>
      <point x="317.0" y="458.0" type="line"/>
      <point x="291.0" y="475.0"/>
      <point x="241.0" y="498.0"/>
      <point x="196.0" y="504.0" type="curve"/>
      <point x="178.0" y="486.0" type="line"/>
      <point x="178.0" y="180.0" type="line" smooth="yes"/>
      <point x="178.0" y="157.585123033"/>
      <point x="203.321272835" y="121.29491691"/>
      <point x="241.317919365" y="121.29491691" type="curve" smooth="yes"/>
      <point x="278.349997846" y="121.29491691"/>
      <point x="323.505931948" y="149.516101001"/>
      <point x="348.0" y="216.0" type="curve"/>
      <point x="348.0" y="201.0"/>
      <point x="348.0" y="169.0"/>
      <point x="348.0" y="154.0" type="curve"/>
      <point x="280.0" y="100.0"/>
      <point x="231.0" y="56.0"/>
      <point x="172.0" y="-1.0" type="curve"/>
      <point x="134.340872862" y="55.4886907069"/>
      <point x="69.8069814508" y="71.2581402073"/>
      <point x="40.0" y="67.0" type="curve"/>
      <point x="40.1139053254" y="439.642922167" type="line" smooth="yes"/>
      <point x="40.1139053254" y="469.584319527"/>
      <point x="17.0" y="489.0"/>
      <point x="17.0" y="489.0" type="curve"/>
      <point x="53.7443870321" y="503.40363648"/>
      <point x="186.341461911" y="582.412413435"/>
      <point x="213.0" y="643.0" type="curve"/>
      <point x="278.169138591" y="577.830861409"/>
      <point x="374.48229874" y="542.896459748"/>
      <point x="465.0" y="561.0" type="curve"/>
      <point x="481.0" y="544.0" type="line"/>
      <point x="451.0" y="510.0" type="line"/>
      <point x="459.0" y="-50.0" type="line"/>
      <point x="481.0" y="-90.0" type="line"/>
      <point x="471.0" y="-115.0" type="line"/>
      <point x="453.940198674" y="-100.907120644"/>
      <point x="441.281710335" y="-96.7171955088"/>
    </contour>
  </outline>
</glyph>
<glyph name="r" format="2">
  <advance width="400"/>
  <unicode hex="0072"/>
  <outline>
    <contour>
      <point x="1.0" y="484.0" type="curve"/>
      <point x="84.0" y="614.0" type="line"/>
      <point x="129.589426059" y="583.607049294"/>
      <point x="199.0" y="520.0"/>
      <point x="199.0" y="418.0" type="curve" smooth="yes"/>
      <point x="199.0" y="175.0" type="line"/>
      <point x="249.0" y="133.0" type="line"/>
      <point x="279.438980743" y="150.7560721"/>
      <point x="309.35553842" y="166.968861471"/>
      <point x="340.0" y="216.0" type="curve"/>
      <point x="377.0" y="201.0" type="line"/>
      <point x="337.08665913" y="134.477765217"/>
      <point x="286.662934036" y="65.7024156799"/>
      <point x="171.0" y="-7.0" type="curve"/>
      <point x="61.0" y="84.0" type="line"/>
      <point x="61.0" y="407.0" type="line" smooth="yes"/>
      <point x="61.0" y="466.407226562"/>
      <point x="1.04234266447" y="484.0"/>
    </contour>
    <contour>
      <point x="228.513592627" y="473.416929381" type="curve" smooth="yes"/>
      <point x="202.20675011" y="473.416929381"/>
      <point x="174.576773069" y="432.350642771"/>
      <point x="165.0" y="412.0" type="curve"/>
      <point x="157.0" y="424.0"/>
      <point x="145.0" y="434.0"/>
      <point x="133.0" y="444.0" type="curve"/>
      <point x="294.0" y="620.0" type="line"/>
      <point x="381.0" y="537.0" type="line"/>
      <point x="310.0" y="415.0" type="line"/>
      <point x="279.0" y="415.0" type="line"/>
      <point x="279.0" y="445.755396291"/>
      <point x="254.379009591" y="473.416929381"/>
    </contour>
  </outline>
</glyph>
<glyph name="t" format="2">
  <advance width="367"/>
  <unicode hex="0074"/>
  <outline>
    <contour>
      <point x="19.0" y="549.0" type="line"/>
      <point x="213.0" y="738.0" type="line"/>
      <point x="213.0" y="609.0" type="line"/>
      <point x="347.0" y="609.0" type="line"/>
      <point x="347.0" y="514.0" type="line"/>
      <point x="213.0" y="514.0" type="line"/>
      <point x="213.0" y="167.0" type="line"/>
      <point x="276.0" y="134.0" type="line"/>
      <point x="327.0" y="185.0" type="line"/>
      <point x="358.0" y="164.0" type="line"/>
      <point x="201.0" y="-10.0" type="line"/>
      <point x="173.240914623" y="17.7590853774"/>
      <point x="105.666171331" y="62.6669143343"/>
      <point x="39.0" y="96.0" type="curve"/>
      <point x="39.0" y="114.0" type="line"/>
      <point x="77.0" y="141.0" type="line"/>
      <point x="77.0" y="500.0" type="line"/>
      <point x="19.0" y="500.0" type="line"/>
    </contour>
  </outline>
</glyph>
<glyph name="w" format="2">
  <advance width="846"/>
  <unicode hex="0077"/>
  <outline>
    <contour>
      <point x="32.9244923464" y="96.3410731023" type="curve" smooth="yes"/>
      <point x="32.9244923464" y="126.258093362"/>
      <point x="86.8114988445" y="132.254791185"/>
      <point x="91.0" y="134.0" type="curve" smooth="yes"/>
      <point x="131.566280504" y="152.592878564"/>
      <point x="133.128037435" y="306.907964375"/>
      <point x="133.128037435" y="337.233963644" type="curve" smooth="yes"/>
      <point x="133.128037435" y="373.976062055"/>
      <point x="127.565944773" y="488.301983199"/>
      <point x="16.0" y="604.0" type="curve"/>
      <point x="95.0" y="724.0" type="line"/>
      <point x="215.24000029" y="663.879999855"/>
      <point x="273.411814636" y="578.315214581"/>
      <point x="273.411814636" y="318.314075514" type="curve" smooth="yes"/>
      <point x="273.411814636" y="270.012838191"/>
      <point x="269.762995787" y="212.349976592"/>
      <point x="258.0" y="147.0" type="curve"/>
      <point x="330.0" y="105.0" type="line"/>
      <point x="434.0" y="189.0" type="line"/>
      <point x="458.0" y="120.0" type="line"/>
      <point x="284.0" y="34.0" type="line"/>
      <point x="109.81128131" y="61.5034818984"/>
      <point x="32.9244923464" y="64.8659934557"/>
    </contour>
    <contour>
      <point x="384.0" y="116.0" type="line"/>
      <point x="396.563656458" y="169.681077593"/>
      <point x="407.480087514" y="235.552035506"/>
      <point x="407.480087514" y="307.807131324" type="curve" smooth="yes"/>
      <point x="407.480087514" y="444.624672282"/>
      <point x="374.99088383" y="555.990385326"/>
      <point x="346.0" y="628.0" type="curve"/>
      <point x="219.0" y="522.0" type="line"/>
      <point x="176.0" y="543.0" type="line"/>
      <point x="211.701593392" y="576.151479578"/>
      <point x="381.805012831" y="736.75"/>
      <point x="397.5" y="736.75" type="curve" smooth="yes"/>
      <point x="482.0" y="736.75"/>
      <point x="530.0" y="557.0"/>
      <point x="530.0" y="253.0" type="curve" smooth="yes"/>
      <point x="530.0" y="157.0" type="line"/>
      <point x="646.0" y="111.0" type="line"/>
      <point x="696.123595764" y="198.716292588"/>
      <point x="700.186880907" y="405.331153119"/>
      <point x="611.0" y="520.0" type="curve"/>
      <point x="495.0" y="452.0" type="line"/>
      <point x="495.0" y="490.0" type="line"/>
      <point x="673.0" y="621.0" type="line"/>
      <point x="748.182278903" y="595.939240366"/>
      <point x="807.155713213" y="555.31873756"/>
      <point x="807.155713213" y="299.982066519" type="curve" smooth="yes"/>
      <point x="807.155713213" y="67.2565167219"/>
      <point x="709.778720146" y="126.364229324"/>
      <point x="569.0" y="-3.0" type="curve"/>
    </contour>
  </outline>
</glyph>
<glyph name="x" format="2">
  <advance width="430"/>
  <unicode hex="0078"/>
  <outline>
    <contour>
      <point x="31.0" y="484.0" type="curve"/>
      <point x="114.0" y="614.0" type="line"/>
      <point x="159.58984375" y="583.607421875"/>
      <point x="229.0" y="520.0"/>
      <point x="229.0" y="418.0" type="curve" smooth="yes"/>
      <point x="229.0" y="175.0" type="line"/>
      <point x="279.0" y="133.0" type="line"/>
      <point x="309.439453125" y="150.755859375"/>
      <point x="339.35546875" y="166.96875"/>
      <point x="370.0" y="216.0" type="curve"/>
      <point x="407.0" y="201.0" type="line"/>
      <point x="367.086914062" y="134.477539062"/>
      <point x="316.663085938" y="65.7021484375"/>
      <point x="201.0" y="-7.0" type="curve"/>
      <point x="91.0" y="84.0" type="line"/>
      <point x="91.0" y="407.0" type="line" smooth="yes"/>
      <point x="91.0" y="466.407226562"/>
      <point x="31.0419921875" y="484.0"/>
    </contour>
    <contour>
      <point x="258.513671875" y="473.416992188" type="curve" smooth="yes"/>
      <point x="232.20703125" y="473.416992188"/>
      <point x="204.577148438" y="432.350585938"/>
      <point x="195.0" y="412.0" type="curve"/>
      <point x="187.0" y="424.0"/>
      <point x="175.0" y="434.0"/>
      <point x="163.0" y="444.0" type="curve"/>
      <point x="324.0" y="620.0" type="line"/>
      <point x="411.0" y="537.0" type="line"/>
      <point x="340.0" y="415.0" type="line"/>
      <point x="309.0" y="415.0" type="line"/>
      <point x="309.0" y="445.755859375"/>
      <point x="284.37890625" y="473.416992188"/>
    </contour>
    <contour>
      <point x="143.0" y="312.0" type="line"/>
      <point x="182.0" y="276.0" type="line"/>
      <point x="55.0" y="-128.0" type="line"/>
      <point x="19.0" y="-87.0" type="line"/>
    </contour>
  </outline>
</glyph>
<glyph name="z" format="2">
  <advance width="467"/>
  <unicode hex="007A"/>
  <outline>
    <contour>
      <point x="10.0" y="531.0" type="curve"/>
      <point x="37.0670782522" y="567.08943767"/>
      <point x="96.7902715705" y="617.784353458"/>
      <point x="139.0" y="640.0" type="curve"/>
      <point x="162.757074084" y="625.894237263"/>
      <point x="237.191597377" y="576.362278142"/>
      <point x="391.0" y="555.0" type="curve"/>
      <point x="400.0" y="534.0" type="line"/>
      <point x="334.0" y="465.0"/>
      <point x="299.0" y="431.0"/>
      <point x="197.0" y="362.0" type="curve"/>
      <point x="291.01831763" y="365.877044026"/>
      <point x="441.027517297" y="307.064266025"/>
      <point x="441.027517297" y="166.784996721" type="curve" smooth="yes"/>
      <point x="441.027517297" y="50.8621843714"/>
      <point x="298.001007319" y="-159.444556369"/>
      <point x="78.0" y="-135.0" type="curve"/>
      <point x="67.0" y="-118.0" type="line"/>
      <point x="174.0" y="-48.0" type="line"/>
      <point x="222.302212458" y="-66.6976306288"/>
      <point x="311.423904139" y="-56.6855713494"/>
      <point x="311.423904139" y="47.5550248016" type="curve" smooth="yes"/>
      <point x="311.423904139" y="219.582062861"/>
      <point x="145.119086283" y="282.409526903"/>
      <point x="40.0" y="274.0" type="curve"/>
      <point x="28.0" y="285.0" type="line"/>
      <point x="206.0" y="425.0" type="line"/>
      <point x="186.217129432" y="444.782870568"/>
      <point x="119.383670454" y="509.828967009"/>
    </contour>
  </outline>
</glyph>
<glyph name="braceleft" format="2">
  <advance width="298"/>
  <unicode hex="007B"/>
  <outline>
    <contour>
      <point x="273.0" y="-129.0" type="line"/>
      <point x="273.0" y="-158.0" type="line"/>
      <point x="164.0" y="-158.0"/>
      <point x="109.0" y="-64.0"/>
      <point x="109.0" y="30.0" type="curve" smooth="yes"/>
      <point x="109.0" y="80.0"/>
      <point x="120.0" y="124.0"/>
      <point x="120.0" y="166.0" type="curve" smooth="yes"/>
      <point x="120.0" y="243.0"/>
      <point x="84.0" y="293.0"/>
      <point x="22.0" y="303.0" type="curve"/>
      <point x="22.0" y="361.0" type="line"/>
      <point x="78.0" y="361.0"/>
      <point x="120.0" y="417.0"/>
      <point x="120.0" y="498.0" type="curve" smooth="yes"/>
      <point x="120.0" y="540.0"/>
      <point x="109.0" y="584.0"/>
      <point x="109.0" y="634.0" type="curve" smooth="yes"/>
      <point x="109.0" y="728.0"/>
      <point x="164.0" y="822.0"/>
      <point x="273.0" y="822.0" type="curve"/>
      <point x="273.0" y="793.0" type="line"/>
      <point x="273.0" y="764.0" type="line"/>
      <point x="206.0" y="764.0"/>
      <point x="167.0" y="710.0"/>
      <point x="167.0" y="634.0" type="curve" smooth="yes"/>
      <point x="167.0" y="594.0"/>
      <point x="178.0" y="549.0"/>
      <point x="178.0" y="498.0" type="curve" smooth="yes"/>
      <point x="178.0" y="432.0"/>
      <point x="155.0" y="366.0"/>
      <point x="105.0" y="329.0" type="curve"/>
      <point x="152.0" y="294.0"/>
      <point x="178.0" y="234.0"/>
      <point x="178.0" y="166.0" type="curve" smooth="yes"/>
      <point x="178.0" y="115.0"/>
      <point x="167.0" y="70.0"/>
      <point x="167.0" y="30.0" type="curve" smooth="yes"/>
      <point x="167.0" y="-46.0"/>
      <point x="206.0" y="-100.0"/>
      <point x="273.0" y="-100.0" type="curve"/>
    </contour>
  </outline>
</glyph>
<glyph name="bar" format="2">
  <advance width="120"/>
  <unicode hex="007C"/>
  <outline>
    <contour>
      <point x="19.0" y="-45.0" type="line"/>
      <point x="19.0" y="828.0" type="line"/>
      <point x="94.0" y="828.0" type="line"/>
      <point x="94.0" y="-45.0" type="line"/>
    </contour>
  </outline>
</glyph>
<glyph name="braceright" format="2">
  <advance width="298"/>
  <unicode hex="007D"/>
  <outline>
    <contour>
      <point x="22.0" y="-129.0" type="line"/>
      <point x="22.0" y="-158.0" type="line"/>
      <point x="131.0" y="-158.0"/>
      <point x="186.0" y="-64.0"/>
      <point x="186.0" y="30.0" type="curve" smooth="yes"/>
      <point x="186.0" y="80.0"/>
      <point x="175.0" y="124.0"/>
      <point x="175.0" y="166.0" type="curve" smooth="yes"/>
      <point x="175.0" y="243.0"/>
      <point x="211.0" y="293.0"/>
      <point x="273.0" y="303.0" type="curve"/>
      <point x="273.0" y="361.0" type="line"/>
      <point x="217.0" y="361.0"/>
      <point x="175.0" y="417.0"/>
      <point x="175.0" y="498.0" type="curve" smooth="yes"/>
      <point x="175.0" y="540.0"/>
      <point x="186.0" y="584.0"/>
      <point x="186.0" y="634.0" type="curve" smooth="yes"/>
      <point x="186.0" y="728.0"/>
      <point x="131.0" y="822.0"/>
      <point x="22.0" y="822.0" type="curve"/>
      <point x="22.0" y="793.0" type="line"/>
      <point x="22.0" y="764.0" type="line"/>
      <point x="89.0" y="764.0"/>
      <point x="128.0" y="710.0"/>
      <point x="128.0" y="634.0" type="curve" smooth="yes"/>
      <point x="128.0" y="594.0"/>
      <point x="117.0" y="549.0"/>
      <point x="117.0" y="498.0" type="curve" smooth="yes"/>
      <point x="117.0" y="432.0"/>
      <point x="140.0" y="366.0"/>
      <point x="190.0" y="329.0" type="curve"/>
      <point x="143.0" y="294.0"/>
      <point x="117.0" y="234.0"/>
      <point x="117.0" y="166.0" type="curve" smooth="yes"/>
      <point x="117.0" y="115.0"/>
      <point x="128.0" y="70.0"/>
      <point x="128.0" y="30.0" type="curve" smooth="yes"/>
      <point x="128.0" y="-46.0"/>
      <point x="89.0" y="-100.0"/>
      <point x="22.0" y="-100.0" type="curve"/>
    </contour>
  </outline>
</glyph>
<glyph name="cent" format="2">
  <advance width="503"/>
  <unicode hex="00A2"/>
  <outline>
    <contour>
      <point x="265.0" y="681.0" type="line"/>
      <point x="294.0" y="681.0" type="line"/>
      <point x="294.0" y="-55.0" type="line"/>
      <point x="265.0" y="-55.0" type="line"/>
      <point x="236.0" y="-55.0" type="line"/>
      <point x="236.0" y="681.0" type="line"/>
    </contour>
    <contour>
      <point x="437.0" y="90.0" type="curve" smooth="yes"/>
      <point x="437.0" y="90.0"/>
      <point x="383.0" y="70.0"/>
      <point x="337.0" y="47.0" type="curve" smooth="yes"/>
      <point x="308.0" y="32.0"/>
      <point x="281.0" y="16.0"/>
      <point x="257.0" y="1.0" type="curve"/>
      <point x="239.0" y="19.0"/>
      <point x="209.0" y="42.0"/>
      <point x="168.0" y="58.0" type="curve" smooth="yes"/>
      <point x="104.0" y="84.0"/>
      <point x="48.0" y="81.0"/>
      <point x="19.0" y="78.0" type="curve"/>
      <point x="19.0" y="86.0"/>
      <point x="19.0" y="96.0"/>
      <point x="19.0" y="104.0" type="curve"/>
      <point x="21.0" y="104.0"/>
      <point x="34.0" y="102.0"/>
      <point x="44.0" y="112.0" type="curve" smooth="yes"/>
      <point x="54.0" y="122.0"/>
      <point x="52.0" y="135.0"/>
      <point x="52.0" y="137.0" type="curve" smooth="yes"/>
      <point x="52.0" y="257.0"/>
      <point x="52.0" y="377.0"/>
      <point x="52.0" y="497.0" type="curve"/>
      <point x="81.0" y="505.0"/>
      <point x="130.0" y="521.0"/>
      <point x="179.0" y="559.0" type="curve" smooth="yes"/>
      <point x="218.0" y="588.0"/>
      <point x="244.0" y="623.0"/>
      <point x="259.0" y="646.0" type="curve"/>
      <point x="282.0" y="617.0"/>
      <point x="322.0" y="570.0"/>
      <point x="386.0" y="536.0" type="curve" smooth="yes"/>
      <point x="415.0" y="521.0"/>
      <point x="443.0" y="511.0"/>
      <point x="464.0" y="508.0" type="curve"/>
      <point x="327.0" y="418.0" type="line"/>
      <point x="293.0" y="447.0"/>
      <point x="258.0" y="479.0"/>
      <point x="225.0" y="507.0" type="curve"/>
      <point x="215.0" y="500.0"/>
      <point x="204.0" y="492.0"/>
      <point x="194.0" y="485.0" type="curve"/>
      <point x="194.0" y="383.0"/>
      <point x="194.0" y="280.0"/>
      <point x="194.0" y="178.0" type="curve"/>
      <point x="225.0" y="171.0"/>
      <point x="249.0" y="162.0"/>
      <point x="265.0" y="156.0" type="curve" smooth="yes"/>
      <point x="294.0" y="145.0"/>
      <point x="437.0" y="88.0"/>
    </contour>
  </outline>
</glyph>
<glyph name="sterling" format="2">
  <advance width="569"/>
  <unicode hex="00A3"/>
  <outline>
    <contour>
      <point x="0.0" y="413.0" type="line"/>
      <point x="0.0" y="338.0" type="line"/>
      <point x="369.0" y="338.0" type="line"/>
      <point x="369.0" y="413.0" type="line"/>
    </contour>
    <contour>
      <point x="486.433314746" y="640.329375914" type="curve" smooth="yes"/>
      <point x="486.433314746" y="729.290448568"/>
      <point x="408.494539001" y="765.0"/>
      <point x="323.0" y="765.0" type="curve" smooth="yes"/>
      <point x="149.0" y="765.0"/>
      <point x="81.0" y="647.0"/>
      <point x="67.0" y="440.0" type="curve" smooth="yes"/>
      <point x="59.0" y="318.0"/>
      <point x="40.0" y="190.0"/>
      <point x="37.0" y="55.0" type="curve"/>
      <point x="48.0" y="66.0"/>
      <point x="196.0" y="89.0"/>
      <point x="204.0" y="132.0" type="curve" smooth="yes"/>
      <point x="223.0" y="237.0"/>
      <point x="224.0" y="461.0"/>
      <point x="224.0" y="570.0" type="curve" smooth="yes"/>
      <point x="224.0" y="630.442702758"/>
      <point x="256.732947052" y="709.383953368"/>
      <point x="318.387374625" y="709.383953368" type="curve" smooth="yes"/>
      <point x="342.217361097" y="709.383953368"/>
      <point x="361.0" y="699.570870539"/>
      <point x="361.0" y="675.0" type="curve" smooth="yes"/>
      <point x="361.0" y="653.518518519"/>
      <point x="350.0260631" y="634.780521262"/>
      <point x="350.0260631" y="614.721587156" type="curve" smooth="yes"/>
      <point x="350.0260631" y="581.663450432"/>
      <point x="379.96118241" y="563.475912523"/>
      <point x="404.981322063" y="563.475912523" type="curve" smooth="yes"/>
      <point x="443.581775095" y="563.475912523"/>
      <point x="486.433314746" y="596.432186297"/>
    </contour>
    <contour>
      <point x="431.49459722" y="206.851390751" type="curve" smooth="yes"/>
      <point x="399.069307864" y="206.851390751"/>
      <point x="357.911714092" y="219.13218971"/>
      <point x="323.399772058" y="219.13218971" type="curve" smooth="yes"/>
      <point x="219.771456339" y="219.13218971"/>
      <point x="25.6677271433" y="145.961893252"/>
      <point x="25.6677271433" y="40.210837361" type="curve" smooth="yes"/>
      <point x="25.6677271433" y="37.5273342751"/>
      <point x="26.4431954861" y="36.0135449233"/>
      <point x="28.106362845" y="36.0135449233" type="curve" smooth="yes"/>
      <point x="33.0" y="36.0135449233"/>
      <point x="80.1153776652" y="68.1009573554"/>
      <point x="177.977241693" y="68.0710059172" type="curve" smooth="yes"/>
      <point x="224.392085798" y="68.0568002677"/>
      <point x="312.603790925" y="62.2228676047"/>
      <point x="409.0" y="8.0" type="curve"/>
      <point x="557.0" y="224.0" type="line"/>
      <point x="557.0" y="252.0" type="line"/>
      <point x="519.0" y="252.0" type="line"/>
      <point x="519.0" y="234.0"/>
      <point x="474.352013237" y="206.851390751"/>
    </contour>
  </outline>
</glyph>
<glyph name="brokenbar" format="2">
  <advance width="120"/>
  <unicode hex="00A6"/>
  <outline>
    <contour>
      <point x="19.0" y="448.0" type="line"/>
      <point x="19.0" y="828.0" type="line"/>
      <point x="94.0" y="828.0" type="line"/>
      <point x="94.0" y="448.0" type="line"/>
    </contour>
    <contour>
      <point x="19.0" y="-48.0" type="line"/>
      <point x="19.0" y="332.0" type="line"/>
      <point x="94.0" y="332.0" type="line"/>
      <point x="94.0" y="-48.0" type="line"/>
    </contour>
  </outline>
</glyph>
<glyph name="section" format="2">
  <advance width="514"/>
  <unicode hex="00A7"/>
  <outline>
    <contour>
      <point x="428.0" y="235.0" type="line"/>
      <point x="427.0" y="34.0" type="line"/>
      <point x="368.98064787" y="21.1058384589"/>
      <point x="348.136999011" y="7.90386727632"/>
      <point x="253.0" y="-78.0" type="curve"/>
      <point x="253.0" y="-78.0"/>
      <point x="200.0" y="-36.0"/>
      <point x="128.0" y="-21.0" type="curve" smooth="yes"/>
      <point x="56.0" y="-6.0"/>
      <point x="17.0" y="-45.0"/>
      <point x="17.0" y="-45.0" type="curve"/>
      <point x="96.0" y="87.0" type="line"/>
      <point x="146.129514489" y="89.2778443517"/>
      <point x="212.132377964" y="76.8234752371"/>
      <point x="295.0" y="47.0" type="curve"/>
      <point x="294.0" y="175.0" type="line"/>
      <point x="57.0" y="250.0" type="line"/>
      <point x="55.0" y="477.0" type="line"/>
      <point x="55.0" y="477.0"/>
      <point x="117.0" y="496.0"/>
      <point x="167.0" y="527.0" type="curve" smooth="yes"/>
      <point x="217.0" y="558.0"/>
      <point x="185.0" y="522.0"/>
      <point x="185.0" y="522.0" type="curve"/>
      <point x="185.0" y="522.0"/>
      <point x="242.0" y="480.0"/>
      <point x="299.0" y="472.0" type="curve" smooth="yes"/>
      <point x="356.0" y="464.0"/>
      <point x="410.0" y="473.0"/>
      <point x="410.0" y="473.0" type="curve"/>
      <point x="386.0" y="413.0" type="line"/>
      <point x="386.0" y="413.0"/>
      <point x="326.0" y="422.0"/>
      <point x="267.0" y="453.0" type="curve" smooth="yes"/>
      <point x="208.0" y="484.0"/>
      <point x="196.0" y="466.0"/>
      <point x="196.0" y="466.0" type="curve"/>
      <point x="182.0" y="324.0" type="line"/>
    </contour>
    <contour>
      <point x="55.0" y="516.0" type="line"/>
      <point x="57.0" y="716.0" type="line"/>
      <point x="115.01935213" y="728.894161541"/>
      <point x="135.863000989" y="742.096132724"/>
      <point x="231.0" y="828.0" type="curve"/>
      <point x="336.0" y="723.0"/>
      <point x="466.870472449" y="796.026996045"/>
      <point x="467.0" y="796.0" type="curve"/>
      <point x="388.0" y="664.0" type="line"/>
      <point x="296.0" y="664.0"/>
      <point x="214.652674094" y="693.767819661"/>
      <point x="189.0" y="703.0" type="curve"/>
      <point x="190.0" y="576.0" type="line"/>
      <point x="427.0" y="501.0" type="line"/>
      <point x="428.0" y="274.0" type="line"/>
      <point x="428.0" y="274.0"/>
      <point x="367.0" y="254.0"/>
      <point x="317.0" y="223.0" type="curve" smooth="yes"/>
      <point x="267.0" y="192.0"/>
      <point x="299.0" y="229.0"/>
      <point x="299.0" y="229.0" type="curve"/>
      <point x="299.0" y="229.0"/>
      <point x="242.0" y="271.0"/>
      <point x="185.0" y="279.0" type="curve" smooth="yes"/>
      <point x="128.0" y="287.0"/>
      <point x="74.0" y="277.0"/>
      <point x="74.0" y="277.0" type="curve"/>
      <point x="98.0" y="337.0" type="line"/>
      <point x="98.0" y="337.0"/>
      <point x="134.0" y="340.0"/>
      <point x="193.0" y="309.0" type="curve" smooth="yes"/>
      <point x="252.0" y="278.0"/>
      <point x="288.0" y="284.0"/>
      <point x="288.0" y="284.0" type="curve"/>
      <point x="302.0" y="427.0" type="line"/>
    </contour>
  </outline>
</glyph>
<glyph name="dieresis" format="2">
  <advance width="540"/>
  <unicode hex="00A8"/>
  <outline>
    <contour>
      <point x="272.0" y="728.0" type="line"/>
      <point x="366.0" y="821.0" type="line"/>
      <point x="459.0" y="728.0" type="line"/>
      <point x="366.0" y="634.0" type="line"/>
    </contour>
    <contour>
      <point x="73.0" y="728.0" type="line"/>
      <point x="166.0" y="821.0" type="line"/>
      <point x="260.0" y="728.0" type="line"/>
      <point x="166.0" y="634.0" type="line"/>
    </contour>
  </outline>
</glyph>
<glyph name="acute" format="2">
  <advance width="305"/>
  <unicode hex="00B4"/>
  <outline>
    <contour>
      <point x="300.0" y="698.0" type="line"/>
      <point x="61.0" y="552.0" type="line"/>
      <point x="10.0" y="623.0" type="line"/>
      <point x="192.0" y="826.0" type="line"/>
    </contour>
  </outline>
</glyph>
<glyph name="mu" format="2">
  <advance width="518"/>
  <unicode hex="00B5"/>
  <outline>
    <contour>
      <point x="55.0" y="479.0" type="line"/>
      <point x="186.0" y="452.0" type="line"/>
      <point x="187.0" y="-182.0" type="line"/>
      <point x="54.0" y="-182.0" type="line"/>
    </contour>
    <contour>
      <point x="339.0" y="232.0" type="line"/>
      <point x="339.0" y="232.0"/>
      <point x="345.0" y="466.0"/>
      <point x="345.0" y="467.0" type="curve"/>
      <point x="276.0" y="530.0" type="line"/>
      <point x="372.0" y="621.0" type="line"/>
      <point x="412.0" y="621.0" type="line"/>
      <point x="488.0" y="517.0" type="line"/>
      <point x="477.0" y="155.0" type="line" smooth="yes"/>
      <point x="478.0" y="129.0"/>
      <point x="492.0" y="120.0"/>
      <point x="497.0" y="117.0" type="curve"/>
      <point x="497.0" y="94.0" type="line"/>
      <point x="414.0" y="-10.0" type="line"/>
      <point x="364.0" y="16.0"/>
      <point x="341.0" y="29.0"/>
      <point x="341.0" y="168.0" type="curve"/>
      <point x="177.0" y="3.0" type="line"/>
      <point x="150.0" y="3.0" type="line"/>
      <point x="54.0" y="108.0" type="line"/>
      <point x="55.0" y="479.0" type="line"/>
      <point x="23.0" y="514.0" type="line"/>
      <point x="111.0" y="610.0" type="line"/>
      <point x="148.0" y="610.0" type="line"/>
      <point x="237.0" y="507.0" type="line"/>
      <point x="186.0" y="452.0" type="line"/>
      <point x="186.0" y="165.0" type="line"/>
      <point x="206.0" y="129.0" type="line"/>
      <point x="223.0" y="129.0" type="line"/>
    </contour>
  </outline>
</glyph>
<glyph name="periodcentered" format="2">
  <advance width="280"/>
  <unicode hex="00B7"/>
  <outline>
    <contour>
      <point x="139.0" y="184.0" type="line"/>
      <point x="17.0" y="306.0" type="line"/>
      <point x="139.0" y="428.0" type="line"/>
      <point x="261.0" y="306.0" type="line"/>
    </contour>
  </outline>
</glyph>
<glyph name="cedilla" format="2">
  <advance width="243"/>
  <unicode hex="00B8"/>
  <outline>
    <contour>
      <point x="73.0" y="182.0" type="line"/>
      <point x="89.0" y="180.0"/>
      <point x="116.0" y="174.0"/>
      <point x="143.0" y="156.0" type="curve" smooth="yes"/>
      <point x="148.0" y="153.0"/>
      <point x="204.0" y="114.0"/>
      <point x="214.0" y="44.0" type="curve" smooth="yes"/>
      <point x="227.0" y="-49.0"/>
      <point x="148.0" y="-115.0"/>
      <point x="132.0" y="-129.0" type="curve" smooth="yes"/>
      <point x="79.0" y="-174.0"/>
      <point x="43.0" y="-170.0"/>
      <point x="19.0" y="-173.0" type="curve"/>
      <point x="19.0" y="-168.0"/>
      <point x="18.0" y="-157.0"/>
      <point x="18.0" y="-157.0" type="curve" smooth="yes"/>
      <point x="18.0" y="-157.0"/>
      <point x="52.0" y="-128.0"/>
      <point x="62.0" y="-119.0" type="curve" smooth="yes"/>
      <point x="86.0" y="-97.0"/>
      <point x="118.0" y="-58.0"/>
      <point x="118.0" y="-7.0" type="curve" smooth="yes"/>
      <point x="118.0" y="7.0"/>
      <point x="118.0" y="47.0"/>
      <point x="84.0" y="71.0" type="curve" smooth="yes"/>
      <point x="47.0" y="97.0"/>
      <point x="20.0" y="100.0"/>
      <point x="17.0" y="98.0" type="curve"/>
    </contour>
  </outline>
</glyph>
<glyph name="guillemotright" format="2">
  <advance width="521"/>
  <unicode hex="00BB"/>
  <outline>
    <contour>
      <point x="265.0" y="505.0" type="line"/>
      <point x="387.0" y="285.0" type="line"/>
      <point x="262.0" y="48.0" type="line"/>
      <point x="497.0" y="281.0" type="line"/>
    </contour>
    <contour>
      <point x="30.0" y="505.0" type="line"/>
      <point x="152.0" y="285.0" type="line"/>
      <point x="27.0" y="48.0" type="line"/>
      <point x="262.0" y="281.0" type="line"/>
    </contour>
  </outline>
</glyph>
<glyph name="Aring" format="2">
  <advance width="868"/>
  <unicode hex="00C5"/>
  <outline>
    <contour>
      <point x="529.0" y="609.0" type="line"/>
      <point x="529.0" y="699.0" type="line"/>
      <point x="627.0" y="699.0" type="line"/>
      <point x="627.0" y="609.0" type="line"/>
    </contour>
    <component base="A"/>
    <component base="ring" xOffset="322.0" yOffset="191.0"/>
  </outline>
</glyph>
<glyph name="AE" format="2">
  <advance width="1348"/>
  <unicode hex="00C6"/>
  <outline>
    <contour>
      <point x="752.0" y="818.0" type="curve" smooth="yes"/>
      <point x="752.0" y="818.0"/>
      <point x="750.0" y="709.0"/>
      <point x="752.0" y="695.0" type="curve" smooth="yes"/>
      <point x="755.0" y="672.0"/>
      <point x="755.0" y="535.0"/>
      <point x="752.0" y="216.0" type="curve" smooth="yes"/>
      <point x="752.0" y="198.0"/>
      <point x="756.0" y="184.0"/>
      <point x="759.0" y="175.0" type="curve" smooth="yes"/>
      <point x="764.0" y="161.0"/>
      <point x="769.0" y="150.0"/>
      <point x="772.0" y="150.0" type="curve" smooth="yes"/>
      <point x="773.0" y="150.0" type="line" smooth="yes"/>
      <point x="777.0" y="149.0"/>
      <point x="783.0" y="158.0"/>
      <point x="785.0" y="163.0" type="curve" smooth="yes"/>
      <point x="790.0" y="174.0"/>
      <point x="789.0" y="183.0"/>
      <point x="789.0" y="188.0" type="curve" smooth="yes"/>
      <point x="789.0" y="193.0" type="line"/>
      <point x="823.0" y="193.0" type="line"/>
      <point x="826.0" y="172.0"/>
      <point x="830.0" y="147.0"/>
      <point x="822.0" y="112.0" type="curve" smooth="yes"/>
      <point x="809.0" y="54.0"/>
      <point x="762.0" y="-28.0"/>
      <point x="696.0" y="-25.0" type="curve" smooth="yes"/>
      <point x="653.0" y="-23.0"/>
      <point x="624.0" y="15.0"/>
      <point x="622.0" y="18.0" type="curve" smooth="yes"/>
      <point x="602.0" y="45.0"/>
      <point x="600.0" y="76.0"/>
      <point x="599.0" y="92.0" type="curve" smooth="yes"/>
      <point x="597.0" y="104.0"/>
      <point x="599.0" y="116.0"/>
      <point x="599.0" y="116.0" type="curve" smooth="yes"/>
      <point x="599.0" y="117.0" type="line" smooth="yes"/>
      <point x="600.0" y="126.0"/>
      <point x="600.0" y="147.0"/>
      <point x="600.0" y="184.0" type="curve"/>
      <point x="539.0" y="121.0"/>
      <point x="477.0" y="58.0"/>
      <point x="416.0" y="-6.0" type="curve"/>
      <point x="403.0" y="-2.0"/>
      <point x="388.0" y="3.0"/>
      <point x="374.0" y="19.0" type="curve" smooth="yes"/>
      <point x="350.0" y="45.0"/>
      <point x="359.0" y="70.0"/>
      <point x="339.0" y="102.0" type="curve" smooth="yes"/>
      <point x="323.0" y="129.0"/>
      <point x="302.0" y="143.0"/>
      <point x="293.0" y="149.0" type="curve" smooth="yes"/>
      <point x="278.0" y="158.0"/>
      <point x="242.0" y="182.0"/>
      <point x="208.0" y="171.0" type="curve" smooth="yes"/>
      <point x="159.0" y="157.0"/>
      <point x="129.0" y="80.0"/>
      <point x="123.0" y="62.0" type="curve" smooth="yes"/>
      <point x="115.0" y="39.0"/>
      <point x="110.0" y="14.0"/>
      <point x="90.0" y="8.0" type="curve" smooth="yes"/>
      <point x="74.0" y="3.0"/>
      <point x="56.0" y="14.0"/>
      <point x="47.0" y="22.0" type="curve" smooth="yes"/>
      <point x="40.0" y="25.0"/>
      <point x="32.0" y="36.0"/>
      <point x="28.0" y="51.0" type="curve" smooth="yes"/>
      <point x="15.0" y="95.0"/>
      <point x="58.0" y="152.0"/>
      <point x="68.0" y="165.0" type="curve" smooth="yes"/>
      <point x="96.0" y="204.0"/>
      <point x="140.0" y="265.0"/>
      <point x="224.0" y="291.0" type="curve" smooth="yes"/>
      <point x="239.0" y="296.0"/>
      <point x="259.0" y="302.0"/>
      <point x="282.0" y="306.0" type="curve"/>
      <point x="316.0" y="345.0"/>
      <point x="350.0" y="385.0"/>
      <point x="384.0" y="424.0" type="curve"/>
      <point x="384.0" y="425.0" type="line"/>
      <point x="386.0" y="425.0" type="line"/>
      <point x="398.0" y="439.0"/>
      <point x="409.0" y="452.0"/>
      <point x="421.0" y="466.0" type="curve"/>
      <point x="422.0" y="485.0"/>
      <point x="421.0" y="508.0"/>
      <point x="417.0" y="534.0" type="curve" smooth="yes"/>
      <point x="410.0" y="579.0"/>
      <point x="401.0" y="635.0"/>
      <point x="355.0" y="674.0" type="curve" smooth="yes"/>
      <point x="310.0" y="713.0"/>
      <point x="245.0" y="724.0"/>
      <point x="193.0" y="707.0" type="curve" smooth="yes"/>
      <point x="144.0" y="691.0"/>
      <point x="115.0" y="655.0"/>
      <point x="73.0" y="603.0" type="curve" smooth="yes"/>
      <point x="57.0" y="578.0"/>
      <point x="44.0" y="558.0"/>
      <point x="35.0" y="543.0" type="curve" smooth="yes"/>
      <point x="29.0" y="533.0" type="line"/>
      <point x="25.0" y="543.0" type="line" smooth="yes"/>
      <point x="2.0" y="607.0"/>
      <point x="13.0" y="661.0"/>
      <point x="65.0" y="720.0" type="curve" smooth="yes"/>
      <point x="89.0" y="747.0"/>
      <point x="151.0" y="816.0"/>
      <point x="258.0" y="842.0" type="curve" smooth="yes"/>
      <point x="295.0" y="851.0"/>
      <point x="357.0" y="865.0"/>
      <point x="421.0" y="842.0" type="curve" smooth="yes"/>
      <point x="520.0" y="805.0"/>
      <point x="563.0" y="703.0"/>
      <point x="580.0" y="647.0" type="curve"/>
      <point x="586.0" y="654.0"/>
      <point x="593.0" y="662.0"/>
      <point x="599.0" y="669.0" type="curve"/>
      <point x="599.0" y="691.0"/>
      <point x="599.0" y="714.0"/>
      <point x="599.0" y="737.0" type="curve" smooth="yes"/>
      <point x="599.0" y="740.0" type="line"/>
      <point x="626.0" y="764.0"/>
      <point x="670.0" y="805.0"/>
    </contour>
    <contour>
      <point x="600.0" y="587.0" type="curve"/>
      <point x="554.0" y="533.0"/>
      <point x="508.0" y="479.0"/>
      <point x="463.0" y="425.0" type="curve"/>
      <point x="600.0" y="425.0" type="line"/>
      <point x="600.0" y="473.0"/>
      <point x="600.0" y="527.0"/>
    </contour>
    <contour>
      <point x="601.0" y="256.0" type="curve"/>
      <point x="601.0" y="279.0"/>
      <point x="601.0" y="305.0"/>
      <point x="601.0" y="334.0" type="curve"/>
      <point x="530.0" y="334.0"/>
      <point x="458.0" y="334.0"/>
      <point x="387.0" y="334.0" type="curve"/>
      <point x="377.0" y="323.0"/>
      <point x="368.0" y="311.0"/>
      <point x="358.0" y="300.0" type="curve"/>
      <point x="414.0" y="276.0"/>
      <point x="397.0" y="235.0"/>
      <point x="452.0" y="190.0" type="curve" smooth="yes"/>
      <point x="469.0" y="176.0"/>
      <point x="490.0" y="158.0"/>
      <point x="513.0" y="163.0" type="curve" smooth="yes"/>
      <point x="524.0" y="166.0"/>
      <point x="554.0" y="202.0"/>
      <point x="574.0" y="223.0" type="curve" smooth="yes"/>
      <point x="580.0" y="230.0"/>
      <point x="592.0" y="244.0"/>
    </contour>
    <component base="E.alt3" xOffset="594.0"/>
  </outline>
</glyph>
<glyph name="Eth" format="2">
  <advance width="1105"/>
  <unicode hex="00D0"/>
  <outline>
    <contour>
      <point x="88.0" y="328.0" type="line"/>
      <point x="88.0" y="452.0" type="line"/>
      <point x="408.0" y="452.0" type="line"/>
      <point x="408.0" y="328.0" type="line"/>
    </contour>
    <contour>
      <point x="479.0" y="206.0" type="line"/>
      <point x="957.0" y="606.0" type="line"/>
      <point x="1006.0" y="548.0" type="line"/>
      <point x="528.0" y="148.0" type="line"/>
    </contour>
    <contour>
      <point x="445.0" y="349.0" type="line"/>
      <point x="924.0" y="749.0" type="line"/>
      <point x="973.0" y="690.0" type="line"/>
      <point x="494.0" y="290.0" type="line"/>
    </contour>
    <contour>
      <point x="432.0" y="116.0" type="line"/>
      <point x="432.0" y="779.0" type="line"/>
      <point x="508.0" y="779.0" type="line"/>
      <point x="508.0" y="116.0" type="line"/>
    </contour>
    <contour>
      <point x="135.0" y="881.0" type="curve"/>
      <point x="144.0" y="876.0"/>
      <point x="157.0" y="869.0"/>
      <point x="175.0" y="861.0" type="curve" smooth="yes"/>
      <point x="331.0" y="791.0"/>
      <point x="451.0" y="827.0"/>
      <point x="602.0" y="824.0" type="curve" smooth="yes"/>
      <point x="731.0" y="822.0"/>
      <point x="870.0" y="819.0"/>
      <point x="971.0" y="728.0" type="curve" smooth="yes"/>
      <point x="1067.0" y="642.0"/>
      <point x="1120.0" y="486.0"/>
      <point x="1078.0" y="364.0" type="curve" smooth="yes"/>
      <point x="1055.0" y="299.0"/>
      <point x="975.0" y="233.0"/>
      <point x="814.0" y="105.0" type="curve" smooth="yes"/>
      <point x="754.0" y="57.0"/>
      <point x="703.0" y="19.0"/>
      <point x="667.0" y="-7.0" type="curve"/>
      <point x="632.0" y="13.0"/>
      <point x="577.0" y="40.0"/>
      <point x="505.0" y="58.0" type="curve" smooth="yes"/>
      <point x="438.0" y="75.0"/>
      <point x="343.0" y="100.0"/>
      <point x="236.0" y="63.0" type="curve" smooth="yes"/>
      <point x="202.0" y="51.0"/>
      <point x="133.0" y="22.0"/>
      <point x="68.0" y="-53.0" type="curve"/>
      <point x="49.0" y="-32.0"/>
      <point x="30.0" y="-12.0"/>
      <point x="11.0" y="9.0" type="curve"/>
      <point x="34.0" y="34.0"/>
      <point x="57.0" y="58.0"/>
      <point x="80.0" y="83.0" type="curve" smooth="yes"/>
      <point x="131.0" y="137.0"/>
      <point x="155.0" y="165.0"/>
      <point x="166.0" y="186.0" type="curve" smooth="yes"/>
      <point x="191.0" y="236.0"/>
      <point x="183.0" y="283.0"/>
      <point x="180.0" y="324.0" type="curve" smooth="yes"/>
      <point x="175.0" y="388.0"/>
      <point x="180.0" y="482.0"/>
      <point x="224.0" y="604.0" type="curve"/>
      <point x="292.0" y="651.0"/>
      <point x="361.0" y="699.0"/>
      <point x="429.0" y="746.0" type="curve"/>
      <point x="408.0" y="716.0"/>
      <point x="381.0" y="669.0"/>
      <point x="367.0" y="606.0" type="curve" smooth="yes"/>
      <point x="345.0" y="509.0"/>
      <point x="372.0" y="458.0"/>
      <point x="350.0" y="370.0" type="curve" smooth="yes"/>
      <point x="340.0" y="330.0"/>
      <point x="317.0" y="275.0"/>
      <point x="261.0" y="214.0" type="curve"/>
      <point x="312.0" y="231.0"/>
      <point x="387.0" y="250.0"/>
      <point x="479.0" y="249.0" type="curve" smooth="yes"/>
      <point x="615.0" y="248.0"/>
      <point x="719.0" y="204.0"/>
      <point x="775.0" y="176.0" type="curve"/>
      <point x="795.0" y="180.0"/>
      <point x="857.0" y="197.0"/>
      <point x="901.0" y="255.0" type="curve" smooth="yes"/>
      <point x="954.0" y="325.0"/>
      <point x="941.0" y="406.0"/>
      <point x="938.0" y="426.0" type="curve" smooth="yes"/>
      <point x="912.0" y="591.0"/>
      <point x="720.0" y="663.0"/>
      <point x="710.0" y="667.0" type="curve" smooth="yes"/>
      <point x="646.0" y="690.0"/>
      <point x="573.0" y="684.0"/>
      <point x="426.0" y="672.0" type="curve" smooth="yes"/>
      <point x="269.0" y="659.0"/>
      <point x="181.0" y="633.0"/>
      <point x="88.0" y="685.0" type="curve" smooth="yes"/>
      <point x="56.0" y="703.0"/>
      <point x="35.0" y="724.0"/>
      <point x="21.0" y="738.0" type="curve"/>
      <point x="59.0" y="786.0"/>
      <point x="97.0" y="833.0"/>
    </contour>
  </outline>
</glyph>
<glyph name="multiply" format="2">
  <advance width="1000"/>
  <unicode hex="00D7"/>
  <outline>
    <contour>
      <point x="823.0" y="560.0" type="line"/>
      <point x="257.0" y="-10.0" type="line"/>
      <point x="192.0" y="54.0" type="line"/>
      <point x="759.0" y="624.0" type="line"/>
    </contour>
    <contour>
      <point x="257.0" y="624.0" type="line"/>
      <point x="823.0" y="54.0" type="line"/>
      <point x="759.0" y="-10.0" type="line"/>
      <point x="192.0" y="560.0" type="line"/>
    </contour>
  </outline>
</glyph>
<glyph name="Thorn" format="2">
  <advance width="915"/>
  <unicode hex="00DE"/>
  <outline>
    <contour>
      <point x="175.254963918" y="48.6883557591" type="curve" smooth="yes"/>
      <point x="123.977769288" y="48.6883557591"/>
      <point x="76.526303572" y="29.0150306126"/>
      <point x="52.0" y="15.0" type="curve"/>
      <point x="43.0" y="26.0"/>
      <point x="35.0" y="39.0"/>
      <point x="26.0" y="50.0" type="curve"/>
      <point x="31.0" y="63.0"/>
      <point x="145.0" y="203.0"/>
      <point x="171.0" y="203.0" type="curve" smooth="yes"/>
      <point x="177.857142857" y="203.0"/>
      <point x="185.040816327" y="203.653061224"/>
      <point x="192.737609329" y="203.653061224" type="curve" smooth="yes"/>
      <point x="198.510204082" y="203.653061224"/>
      <point x="204.571428571" y="203.285714286"/>
      <point x="211.0" y="202.0" type="curve"/>
      <point x="295.0" y="171.0"/>
      <point x="367.0" y="153.0"/>
      <point x="419.0" y="143.0" type="curve" smooth="yes"/>
      <point x="478.463814413" y="131.107237117"/>
      <point x="519.108057535" y="127.169138389"/>
      <point x="547.427601118" y="127.169138389" type="curve" smooth="yes"/>
      <point x="583.401584975" y="127.169138389"/>
      <point x="599.488035889" y="133.523781595"/>
      <point x="609.0" y="138.0" type="curve" smooth="yes"/>
      <point x="684.0" y="172.0"/>
      <point x="713.0" y="250.0"/>
      <point x="718.0" y="263.0" type="curve" smooth="yes"/>
      <point x="726.740573294" y="287.764957665"/>
      <point x="730.727516805" y="313.293891545"/>
      <point x="730.727516805" y="338.548065403" type="curve" smooth="yes"/>
      <point x="730.727516805" y="399.973013185"/>
      <point x="707.141025401" y="459.77249903"/>
      <point x="671.0" y="503.0" type="curve" smooth="yes"/>
      <point x="613.687802902" y="570.925566931"/>
      <point x="535.348796884" y="583.280281718"/>
      <point x="480.970272475" y="583.280281718" type="curve" smooth="yes"/>
      <point x="458.494990886" y="583.280281718"/>
      <point x="440.112796423" y="581.169768045"/>
      <point x="429.0" y="580.0" type="curve" smooth="yes"/>
      <point x="416.0" y="579.0"/>
      <point x="271.0" y="560.0"/>
      <point x="227.0" y="459.0" type="curve" smooth="yes"/>
      <point x="224.948966236" y="454.21425455"/>
      <point x="214.017037967" y="429.329642591"/>
      <point x="214.017037967" y="405.756795183" type="curve" smooth="yes"/>
      <point x="214.017037967" y="394.850179865"/>
      <point x="216.357236349" y="384.224374043"/>
      <point x="223.0" y="376.0" type="curve"/>
      <point x="143.0" y="507.0" type="line"/>
      <point x="162.0" y="532.0"/>
      <point x="189.0" y="568.0"/>
      <point x="307.0" y="633.0" type="curve" smooth="yes"/>
      <point x="392.0" y="680.0"/>
      <point x="435.0" y="703.0"/>
      <point x="491.0" y="711.0" type="curve" smooth="yes"/>
      <point x="501.674370001" y="712.52491"/>
      <point x="519.906129155" y="714.921826441"/>
      <point x="543.257436669" y="714.921826441" type="curve" smooth="yes"/>
      <point x="581.159075261" y="714.921826441"/>
      <point x="632.548020004" y="708.607217498"/>
      <point x="687.0" y="682.0" type="curve" smooth="yes"/>
      <point x="706.0" y="673.0"/>
      <point x="761.0" y="644.0"/>
      <point x="808.0" y="583.0" type="curve" smooth="yes"/>
      <point x="832.08217144" y="552.174820557"/>
      <point x="881.218225269" y="488.872386165"/>
      <point x="881.218225269" y="402.031243355" type="curve" smooth="yes"/>
      <point x="881.218225269" y="338.197365408"/>
      <point x="854.660066257" y="290.113861809"/>
      <point x="838.0" y="262.0" type="curve" smooth="yes"/>
      <point x="821.0" y="233.0"/>
      <point x="799.0" y="207.0"/>
      <point x="698.0" y="126.0" type="curve" smooth="yes"/>
      <point x="596.0" y="45.0"/>
      <point x="545.0" y="4.0"/>
      <point x="501.0" y="-4.0" type="curve" smooth="yes"/>
      <point x="491.43037018" y="-5.71762586512"/>
      <point x="481.740322458" y="-6.5321174611"/>
      <point x="471.383227015" y="-6.5321174611" type="curve" smooth="yes"/>
      <point x="439.531090766" y="-6.5321174611"/>
      <point x="401.369990113" y="1.17137710101"/>
      <point x="341.0" y="14.0" type="curve" smooth="yes"/>
      <point x="261.473613345" y="30.2473263058"/>
      <point x="224.358820876" y="48.6883557591"/>
    </contour>
    <contour>
      <point x="354.0" y="66.0" type="line"/>
      <point x="354.0" y="609.0" type="line"/>
      <point x="420.0" y="609.0" type="line"/>
      <point x="420.0" y="66.0" type="line"/>
    </contour>
    <contour>
      <point x="408.0" y="209.0" type="line"/>
      <point x="379.0" y="268.0" type="line"/>
      <point x="710.0" y="437.0" type="line"/>
      <point x="740.0" y="378.0" type="line"/>
    </contour>
    <contour>
      <point x="399.0" y="346.0" type="line"/>
      <point x="370.0" y="405.0" type="line"/>
      <point x="701.0" y="574.0" type="line"/>
      <point x="731.0" y="515.0" type="line"/>
    </contour>
    <contour>
      <point x="194.700154113" y="838.094432443" type="curve" smooth="yes"/>
      <point x="239.721817407" y="838.094432443"/>
      <point x="297.0" y="765.0"/>
      <point x="297.0" y="729.0" type="curve"/>
      <point x="297.0" y="488.0"/>
      <point x="297.0" y="149.0"/>
      <point x="297.0" y="-92.0" type="curve"/>
      <point x="308.0" y="-105.0"/>
      <point x="319.0" y="-117.0"/>
      <point x="330.0" y="-130.0" type="curve"/>
      <point x="329.0" y="-143.0"/>
      <point x="327.0" y="-155.0"/>
      <point x="326.0" y="-168.0" type="curve"/>
      <point x="316.134938288" y="-168.438447187"/>
      <point x="306.654348448" y="-168.636599454"/>
      <point x="297.58983747" y="-168.636599454" type="curve" smooth="yes"/>
      <point x="265.306102898" y="-168.636599454"/>
      <point x="238.300186567" y="-166.123105626"/>
      <point x="218.0" y="-163.0" type="curve" smooth="yes"/>
      <point x="155.0" y="-154.0"/>
      <point x="142.0" y="-141.0"/>
      <point x="135.0" y="-131.0" type="curve" smooth="yes"/>
      <point x="126.10546875" y="-118.684570312"/>
      <point x="122.6957693" y="-106.000648121"/>
      <point x="122.700831025" y="-92.7569616562" type="curve" smooth="yes"/>
      <point x="123.0" y="690.0" type="line"/>
      <point x="96.0" y="685.0"/>
      <point x="62.0" y="669.0"/>
      <point x="46.0" y="657.0" type="curve"/>
      <point x="41.0" y="667.0"/>
      <point x="35.0" y="676.0"/>
      <point x="30.0" y="686.0" type="curve"/>
      <point x="43.0" y="707.0"/>
      <point x="63.0" y="738.0"/>
      <point x="94.0" y="770.0" type="curve" smooth="yes"/>
      <point x="132.736275791" y="808.736275791"/>
      <point x="161.15662053" y="838.094432443"/>
    </contour>
  </outline>
</glyph>
<glyph name="germandbls" format="2">
  <advance width="665"/>
  <unicode hex="00DF"/>
  <outline>
    <contour>
      <point x="398.0" y="334.0" type="curve"/>
      <point x="495.0" y="338.0"/>
      <point x="604.0" y="282.0"/>
      <point x="634.0" y="189.0" type="curve" smooth="yes"/>
      <point x="666.0" y="90.0"/>
      <point x="594.0" y="-2.0"/>
      <point x="564.0" y="-41.0" type="curve" smooth="yes"/>
      <point x="548.0" y="-61.0"/>
      <point x="500.0" y="-120.0"/>
      <point x="413.0" y="-149.0" type="curve" smooth="yes"/>
      <point x="357.0" y="-168.0"/>
      <point x="306.0" y="-167.0"/>
      <point x="279.0" y="-164.0" type="curve"/>
      <point x="268.0" y="-146.0" type="line"/>
      <point x="304.0" y="-123.0"/>
      <point x="341.0" y="-98.0"/>
      <point x="375.0" y="-76.0" type="curve"/>
      <point x="406.0" y="-88.0"/>
      <point x="449.0" y="-90.0"/>
      <point x="482.0" y="-62.0" type="curve" smooth="yes"/>
      <point x="518.0" y="-31.0"/>
      <point x="513.0" y="23.0"/>
      <point x="511.0" y="44.0" type="curve" smooth="yes"/>
      <point x="505.0" y="114.0"/>
      <point x="461.0" y="161.0"/>
      <point x="449.0" y="173.0" type="curve" smooth="yes"/>
      <point x="373.0" y="251.0"/>
      <point x="285.0" y="259.0"/>
      <point x="260.0" y="257.0" type="curve"/>
      <point x="255.0" y="262.0"/>
      <point x="251.0" y="266.0"/>
      <point x="249.0" y="268.0" type="curve"/>
      <point x="257.0" y="276.0"/>
      <point x="269.0" y="287.0"/>
      <point x="286.0" y="299.0" type="curve" smooth="yes"/>
      <point x="408.0" y="397.0" type="line"/>
      <point x="389.0" y="416.0"/>
      <point x="364.0" y="437.0"/>
      <point x="332.0" y="456.0" type="curve" smooth="yes"/>
      <point x="286.0" y="484.0"/>
      <point x="219.0" y="504.0"/>
      <point x="188.0" y="510.0" type="curve"/>
      <point x="203.0" y="530.0"/>
      <point x="224.0" y="552.0"/>
      <point x="251.0" y="574.0" type="curve" smooth="yes"/>
      <point x="275.0" y="594.0"/>
      <point x="298.0" y="609.0"/>
      <point x="317.0" y="619.0" type="curve"/>
      <point x="349.0" y="600.0"/>
      <point x="410.0" y="573.0"/>
      <point x="458.0" y="557.0" type="curve" smooth="yes"/>
      <point x="509.0" y="540.0"/>
      <point x="556.0" y="531.0"/>
      <point x="592.0" y="526.0" type="curve"/>
      <point x="601.0" y="505.0" type="line"/>
      <point x="535.0" y="436.0"/>
      <point x="500.0" y="403.0"/>
    </contour>
    <contour>
      <point x="357.0" y="667.0" type="curve"/>
      <point x="344.0" y="672.0"/>
      <point x="272.0" y="706.0"/>
      <point x="235.0" y="724.0" type="curve" smooth="yes"/>
      <point x="223.0" y="729.0"/>
      <point x="209.0" y="721.0"/>
      <point x="209.0" y="708.0" type="curve" smooth="yes"/>
      <point x="209.0" y="151.0" type="line"/>
      <point x="251.0" y="123.0" type="line"/>
      <point x="254.0" y="121.0" type="line"/>
      <point x="255.0" y="124.0" type="line"/>
      <point x="279.0" y="163.0" type="line"/>
      <point x="301.0" y="156.0" type="line"/>
      <point x="301.0" y="149.0"/>
      <point x="302.0" y="127.0"/>
      <point x="293.0" y="111.0" type="curve" smooth="yes"/>
      <point x="284.0" y="92.0"/>
      <point x="208.0" y="12.0"/>
      <point x="199.0" y="3.0" type="curve"/>
      <point x="162.0" y="3.0" type="line"/>
      <point x="36.0" y="105.0" type="line"/>
      <point x="77.0" y="146.0" type="line"/>
      <point x="77.0" y="454.0" type="line" smooth="yes"/>
      <point x="73.0" y="460.0"/>
      <point x="69.0" y="465.0"/>
      <point x="64.0" y="471.0" type="curve" smooth="yes"/>
      <point x="51.0" y="488.0"/>
      <point x="38.0" y="503.0"/>
      <point x="27.0" y="514.0" type="curve"/>
      <point x="25.0" y="533.0"/>
      <point x="22.0" y="551.0"/>
      <point x="21.0" y="569.0" type="curve"/>
      <point x="34.0" y="571.0"/>
      <point x="54.0" y="572.0"/>
      <point x="77.0" y="565.0" type="curve"/>
      <point x="77.0" y="723.0" type="line" smooth="yes"/>
      <point x="77.0" y="725.0"/>
      <point x="78.0" y="726.0"/>
      <point x="78.0" y="726.0" type="curve" smooth="yes"/>
      <point x="78.0" y="727.0" type="line"/>
      <point x="81.0" y="734.0"/>
      <point x="91.0" y="754.0"/>
      <point x="112.0" y="772.0" type="curve" smooth="yes"/>
      <point x="139.0" y="796.0"/>
      <point x="199.0" y="822.0"/>
      <point x="269.0" y="825.0" type="curve" smooth="yes"/>
      <point x="315.0" y="826.0"/>
      <point x="418.0" y="797.0"/>
      <point x="431.0" y="791.0" type="curve"/>
      <point x="434.0" y="758.0"/>
      <point x="404.0" y="709.0"/>
    </contour>
    <contour>
      <point x="88.0" y="118.0" type="line" smooth="yes"/>
      <point x="87.0" y="118.0" type="line" smooth="yes"/>
    </contour>
  </outline>
</glyph>
<glyph name="eth" format="2">
  <advance width="489"/>
  <unicode hex="00F0"/>
  <outline>
    <contour>
      <point x="19.0" y="577.0" type="line"/>
      <point x="142.0" y="803.0" type="line"/>
      <point x="183.0" y="782.0" type="line"/>
      <point x="60.0" y="555.0" type="line"/>
    </contour>
    <contour>
      <point x="32.0" y="505.0" type="line"/>
      <point x="178.0" y="582.0" type="line"/>
      <point x="178.0" y="170.0" type="line"/>
      <point x="229.063568386" y="123.578574195"/>
      <point x="314.59364318" y="121.936431796"/>
      <point x="316.0" y="136.0" type="curve" smooth="yes"/>
      <point x="315.0" y="488.0" type="line"/>
      <point x="-6.0" y="668.0" type="line"/>
      <point x="55.0" y="788.0" type="line" smooth="yes"/>
      <point x="450.0" y="575.0" type="line"/>
      <point x="454.0" y="102.0" type="line"/>
      <point x="403.962087228" y="88.8316984996"/>
      <point x="339.421291007" y="71.10801915"/>
      <point x="262.0" y="-10.0" type="curve"/>
      <point x="235.202794121" y="7.52124999813"/>
      <point x="164.203281254" y="59.0"/>
      <point x="32.0" y="59.0" type="curve"/>
    </contour>
  </outline>
</glyph>
<glyph name="divide" format="2">
  <advance width="614"/>
  <unicode hex="00F7"/>
  <outline>
    <contour>
      <point x="615.0" y="365.0" type="line"/>
      <point x="0.0" y="365.0" type="line"/>
      <point x="0.0" y="458.0" type="line"/>
      <point x="615.0" y="458.0" type="line"/>
    </contour>
    <contour>
      <point x="308.0" y="545.0" type="line"/>
      <point x="186.0" y="667.0" type="line"/>
      <point x="308.0" y="789.0" type="line"/>
      <point x="430.0" y="667.0" type="line"/>
    </contour>
    <contour>
      <point x="308.0" y="38.0" type="line"/>
      <point x="186.0" y="160.0" type="line"/>
      <point x="308.0" y="282.0" type="line"/>
      <point x="430.0" y="160.0" type="line"/>
    </contour>
  </outline>
</glyph>
<glyph name="thorn" format="2">
  <advance width="489"/>
  <unicode hex="00FE"/>
  <outline>
    <contour>
      <point x="37.0" y="575.0" type="curve" smooth="yes"/>
      <point x="29.0" y="648.0"/>
      <point x="4.0" y="700.0"/>
      <point x="-8.0" y="707.0" type="curve"/>
      <point x="2.0" y="735.0" type="line"/>
      <point x="14.0" y="733.0"/>
      <point x="32.0" y="728.0"/>
      <point x="59.0" y="715.0" type="curve" smooth="yes"/>
      <point x="89.0" y="701.0"/>
      <point x="99.0" y="691.0"/>
      <point x="104.0" y="687.0" type="curve"/>
      <point x="106.0" y="691.0" type="line"/>
      <point x="106.0" y="691.0"/>
      <point x="111.0" y="703.0"/>
      <point x="129.0" y="720.0" type="curve" smooth="yes"/>
      <point x="143.0" y="732.0"/>
      <point x="168.0" y="742.0"/>
      <point x="178.0" y="745.0" type="curve"/>
      <point x="178.0" y="745.0"/>
      <point x="186.0" y="619.0"/>
      <point x="190.0" y="539.0" type="curve" smooth="yes"/>
      <point x="194.0" y="456.0"/>
      <point x="191.0" y="450.0"/>
      <point x="190.0" y="414.0" type="curve" smooth="yes"/>
      <point x="190.0" y="414.0"/>
      <point x="166.0" y="135.0"/>
      <point x="179.0" y="-34.0" type="curve" smooth="yes"/>
      <point x="180.0" y="-44.0"/>
      <point x="182.0" y="-66.0"/>
      <point x="194.0" y="-91.0" type="curve" smooth="yes"/>
      <point x="207.0" y="-119.0"/>
      <point x="227.0" y="-136.0"/>
      <point x="243.0" y="-148.0" type="curve"/>
      <point x="209.0" y="-172.0"/>
      <point x="189.0" y="-171.0"/>
      <point x="178.0" y="-166.0" type="curve" smooth="yes"/>
      <point x="157.0" y="-157.0"/>
      <point x="148.0" y="-120.0"/>
      <point x="109.0" y="-130.0" type="curve" smooth="yes"/>
      <point x="89.0" y="-135.0"/>
      <point x="86.0" y="-153.0"/>
      <point x="65.0" y="-157.0" type="curve" smooth="yes"/>
      <point x="61.0" y="-158.0"/>
      <point x="53.0" y="-160.0"/>
      <point x="47.0" y="-155.0" type="curve" smooth="yes"/>
      <point x="40.0" y="-149.0"/>
      <point x="39.0" y="-138.0"/>
      <point x="39.0" y="-132.0" type="curve" smooth="yes"/>
      <point x="39.0" y="-73.0"/>
      <point x="68.0" y="282.0"/>
    </contour>
    <contour>
      <point x="119.0" y="415.0" type="curve"/>
      <point x="178.0" y="490.0"/>
      <point x="236.0" y="565.0"/>
      <point x="295.0" y="640.0" type="curve"/>
      <point x="342.0" y="606.0"/>
      <point x="390.0" y="572.0"/>
      <point x="437.0" y="538.0" type="curve"/>
      <point x="454.0" y="490.0"/>
      <point x="473.0" y="416.0"/>
      <point x="474.0" y="325.0" type="curve" smooth="yes"/>
      <point x="475.0" y="237.0"/>
      <point x="459.0" y="164.0"/>
      <point x="444.0" y="116.0" type="curve"/>
      <point x="384.0" y="77.0"/>
      <point x="324.0" y="38.0"/>
      <point x="264.0" y="-1.0" type="curve"/>
      <point x="180.0" y="25.0"/>
      <point x="149.0" y="47.0"/>
      <point x="65.0" y="73.0" type="curve"/>
      <point x="85.0" y="90.0"/>
      <point x="103.0" y="133.0"/>
      <point x="194.0" y="132.0" type="curve" smooth="yes"/>
      <point x="243.0" y="132.0"/>
      <point x="277.0" y="126.0"/>
      <point x="300.0" y="115.0" type="curve"/>
      <point x="309.0" y="117.0"/>
      <point x="319.0" y="120.0"/>
      <point x="328.0" y="122.0" type="curve"/>
      <point x="333.0" y="148.0"/>
      <point x="340.0" y="187.0"/>
      <point x="344.0" y="235.0" type="curve" smooth="yes"/>
      <point x="352.0" y="321.0"/>
      <point x="356.0" y="372.0"/>
      <point x="334.0" y="429.0" type="curve" smooth="yes"/>
      <point x="325.0" y="452.0"/>
      <point x="306.0" y="489.0"/>
      <point x="265.0" y="527.0" type="curve"/>
      <point x="223.0" y="476.0"/>
      <point x="182.0" y="426.0"/>
      <point x="140.0" y="375.0" type="curve"/>
      <point x="133.0" y="388.0"/>
      <point x="126.0" y="402.0"/>
    </contour>
  </outline>
</glyph>
